<svg width="103" height="137" viewBox="0 0 103 137" fill="none" xmlns="http://www.w3.org/2000/svg">
<path fill-rule="evenodd" clip-rule="evenodd" d="M1.02794 0.951239C8.94419 4.78638 16.0067 9.31822 22.6968 14.1263C33.1151 21.6232 42.1508 30.1381 49.9481 39.6483C58.823 50.4845 66.0223 62.4982 72.0698 75.219C78.0849 87.8927 82.9853 101.207 86.7258 114.873C87.0579 116.093 87.2981 117.322 87.7345 118.512C87.9814 119.175 88.2531 119.792 88.5595 120.4C81.3897 113.661 72.0341 103.772 64.508 96.3837C59.5322 91.5152 55.343 87.812 53.6464 86.2315C53.3503 85.9217 52.8533 85.8954 52.5258 86.1964C52.2106 86.475 52.1889 86.9889 52.485 87.2986C53.9187 89.1428 57.1623 93.682 61.5376 99.0803C65.7984 104.342 71.1634 110.302 76.1179 115.948C82.4984 123.214 88.4429 129.684 91.6395 132.488C92.0648 132.855 92.5596 133.07 92.7961 133.435C93.8517 135.011 94.4728 134.946 94.988 135.625C96.2292 136.603 97.3114 135.784 98.3623 135.708C100.337 135.572 101.53 133.631 102.185 131.262C102.633 129.61 101.564 126.025 101.713 124.121C102.201 117.174 102.571 110.148 102.415 103.123C102.297 96.8205 101.841 90.5209 101.137 84.274C100.667 80.0846 99.993 75.9725 99.3141 71.843C99.1794 71.5057 99.1839 71.1283 98.9325 70.8433C97.5862 69.2373 97.458 69.9698 95.6725 68.8661C95.6524 68.665 95.4634 68.5314 95.2795 68.5466C95.0783 68.5668 94.9394 68.7384 94.9595 68.9394C93.4334 70.3747 93.1692 69.7174 92.1803 71.5811C92.0192 71.8718 92.0793 72.2118 92.0077 72.552C92.3795 80.9817 92.2097 89.4917 92.112 98.0563C92.0708 100.663 92.047 103.265 92.0058 105.871C89.1679 94.5592 85.5253 83.4598 80.7529 72.9484C76.6784 63.9474 71.8142 55.3427 66.0863 47.3999C56.6069 34.1991 44.9978 22.4942 30.776 13.5524C21.9133 7.99622 12.046 3.72542 1.24584 0.399725C1.08179 0.352871 0.912928 0.420219 0.843567 0.571779C0.796577 0.735711 0.863898 0.904385 1.02794 0.951239Z" fill="#FF5100"/>
</svg>
