<svg width="69" height="91" viewBox="0 0 69 91" fill="none" xmlns="http://www.w3.org/2000/svg">
<path fill-rule="evenodd" clip-rule="evenodd" d="M1.09654 1.04873C6.35346 3.59552 11.0434 6.60497 15.4862 9.79788C22.4046 14.7763 28.4049 20.4308 33.5828 26.7462C39.4764 33.9422 44.2572 41.9201 48.2731 50.3676C52.2676 58.7838 55.5218 67.6251 58.0057 76.7003C58.2263 77.5109 58.3858 78.3266 58.6756 79.1173C58.8395 79.5572 59.0199 79.9673 59.2234 80.3708C54.4622 75.896 48.2494 69.3287 43.2516 64.4224C39.9473 61.1894 37.1654 58.7302 36.0388 57.6806C35.8421 57.4749 35.5121 57.4574 35.2946 57.6573C35.0853 57.8423 35.0709 58.1836 35.2675 58.3893C36.2196 59.6139 38.3736 62.6282 41.2791 66.2131C44.1085 69.7075 47.6712 73.6653 50.9614 77.4143C55.1984 82.2397 59.146 86.5364 61.2687 88.3984C61.5512 88.6418 61.8798 88.7846 62.0368 89.0267C62.7378 90.0738 63.1503 90.0301 63.4924 90.4812C64.3166 91.1307 65.0353 90.587 65.7331 90.5362C67.0447 90.4464 67.8366 89.1574 68.2717 87.5839C68.5689 86.487 67.8594 84.1063 67.9584 82.8417C68.2821 78.2286 68.5282 73.5629 68.4245 68.8978C68.3462 64.7124 68.0436 60.5291 67.5759 56.3807C67.2636 53.5986 66.8161 50.8679 66.3652 48.1257C66.2758 47.9017 66.2787 47.6511 66.1118 47.4618C65.2178 46.3953 65.1326 46.8818 63.947 46.1488C63.9336 46.0153 63.8081 45.9265 63.686 45.9366C63.5524 45.9501 63.4601 46.064 63.4735 46.1975C62.4601 47.1506 62.2846 46.7141 61.6279 47.9517C61.5209 48.1448 61.5608 48.3706 61.5133 48.5965C61.7602 54.1944 61.6474 59.8456 61.5825 65.5331C61.5552 67.2641 61.5394 68.9917 61.512 70.7227C59.6275 63.2108 57.2085 55.84 54.0394 48.8597C51.3335 42.8825 48.1034 37.1683 44.2997 31.8938C38.0047 23.1275 30.2955 15.3547 20.8513 9.41673C14.9658 5.72708 8.4133 2.89097 1.24124 0.682484C1.1323 0.651371 1.02016 0.696095 0.974095 0.796742C0.942895 0.905602 0.987596 1.01762 1.09654 1.04873Z" fill="#FF5100"/>
</svg>
