<svg width="18" height="18" viewBox="0 0 18 18" fill="none" xmlns="http://www.w3.org/2000/svg">
<g clip-path="url(#clip0_760_22049)">
<path d="M0 6C0 3.17157 0 1.75736 0.87868 0.87868C1.75736 0 3.17157 0 6 0H12C14.8284 0 16.2426 0 17.1213 0.87868C18 1.75736 18 3.17157 18 6V12C18 14.8284 18 16.2426 17.1213 17.1213C16.2426 18 14.8284 18 12 18H6C3.17157 18 1.75736 18 0.87868 17.1213C0 16.2426 0 14.8284 0 12V6Z" fill="#ED1C24"/>
<path fill-rule="evenodd" clip-rule="evenodd" d="M13.8223 5.73819C13.8707 5.72278 13.9343 5.7536 13.9979 5.83834C13.9979 5.83834 13.9979 5.83834 16.8742 8.67849C17.0422 8.84798 17.0422 9.10477 16.8742 9.2306C16.8742 9.2306 16.8742 9.2306 13.9979 12.1144C13.9343 12.1992 13.8707 12.2197 13.8223 12.194C13.774 12.1683 13.7434 12.0939 13.7434 11.986V5.92308C13.7434 5.8178 13.774 5.7536 13.8223 5.73819Z" fill="white"/>
<path fill-rule="evenodd" clip-rule="evenodd" d="M8.90214 1.00781H9.10576L9.30176 1.08999C9.30176 1.08999 9.30176 1.08999 12.262 4.05854C12.3892 4.22802 12.346 4.35642 12.1347 4.35642C12.1347 4.35642 12.1347 4.35642 10.9079 4.35642C10.6966 4.35642 10.5286 4.5259 10.5286 4.73904C10.5286 4.73904 10.5286 4.73904 10.5286 6.94235C10.5286 7.15549 10.3581 7.32497 10.1035 7.32497C10.1035 7.32497 10.1035 7.32497 7.94764 7.32497C7.73638 7.32497 7.56584 7.15549 7.56584 6.94235C7.56584 6.94235 7.56584 6.94235 7.56584 4.73904C7.56584 4.5259 7.39785 4.35642 7.18404 4.35642H5.87319C5.66193 4.35642 5.61866 4.22802 5.74592 4.05854C5.74592 4.05854 5.74593 4.05854 8.70869 1.08999L8.90214 1.00781Z" fill="white"/>
<path fill-rule="evenodd" clip-rule="evenodd" d="M4.26457 5.67831C4.31802 5.70399 4.35111 5.77846 4.35111 5.88631V12.0751C4.35111 12.1829 4.31802 12.2471 4.26457 12.2677C4.21366 12.2882 4.13984 12.2677 4.0533 12.2035C4.0533 12.2035 4.0533 12.2035 1.13381 9.23492C0.965815 9.10909 0.965815 8.8523 1.13381 8.68281C1.13381 8.68281 1.13381 8.68281 4.0533 5.75792C4.13984 5.67318 4.21366 5.65263 4.26457 5.67831Z" fill="white"/>
<path fill-rule="evenodd" clip-rule="evenodd" d="M7.94783 10.5469C7.94783 10.5469 7.94783 10.5469 10.1037 10.5469C10.3583 10.5469 10.5288 10.7164 10.5288 10.9295C10.5288 10.9295 10.5288 10.9295 10.5288 13.2612C10.5288 13.5154 10.6968 13.6849 10.9081 13.6849H12.0509C12.2622 13.6849 12.3462 13.8107 12.1782 13.9391C12.1782 13.9391 12.1782 13.9391 9.30195 16.864C9.21541 16.9488 9.11105 16.9924 9.00415 16.9924C8.89979 16.9924 8.79288 16.9488 8.70889 16.864C8.70889 16.864 8.70889 16.864 5.83266 13.9391C5.66212 13.8107 5.74612 13.6849 5.95738 13.6849C5.95738 13.6849 5.95738 13.6849 7.18423 13.6849C7.39804 13.6849 7.56603 13.5154 7.56603 13.2612C7.56603 13.2612 7.56603 13.2612 7.56603 10.9295C7.56603 10.7164 7.73657 10.5469 7.94783 10.5469Z" fill="white"/>
</g>
<defs>
<clipPath id="clip0_760_22049">
<rect width="18" height="18" fill="white"/>
</clipPath>
</defs>
</svg>
