<svg width="29" height="74" viewBox="0 0 29 74" fill="none" xmlns="http://www.w3.org/2000/svg">
<path d="M28.6723 3.91286C28.6723 4.05103 28.6723 4.18919 28.6723 4.32736C28.6723 4.46554 28.7815 4.53462 29 4.53462C28.199 7.0217 27.0339 9.40515 25.5047 11.685C25.5047 12.2376 25.3591 12.6867 25.0678 13.0321C24.8493 13.3776 24.7401 13.8266 24.7401 14.3793C24.5945 14.3793 24.4852 14.4138 24.4124 14.4829C24.4124 14.552 24.3396 14.5866 24.194 14.5866C23.9027 15.5537 23.5386 16.5555 23.1017 17.5918C22.6648 18.628 22.2279 19.6298 21.791 20.597C21.9366 20.597 22.0094 20.7697 22.0094 21.1151C21.8638 21.1151 21.791 21.1151 21.791 21.1151C21.7181 21.7369 21.4633 22.3241 21.0264 22.8768C20.5895 23.3604 20.2982 23.9822 20.1525 24.7421C19.7884 24.8112 19.6428 25.0875 19.7156 25.5711C19.4972 25.5711 19.4244 25.6402 19.4972 25.7784C19.57 25.9166 19.57 26.0547 19.4972 26.1929C18.769 27.5746 18.2593 29.0254 17.968 30.5453C17.8223 30.6144 17.7495 30.9252 17.7495 31.4779C17.3854 31.6161 17.2398 31.8234 17.3126 32.0997C17.4583 32.376 17.3854 32.5833 17.0942 32.7215C17.167 32.7215 17.2034 32.756 17.2034 32.8251C17.2034 32.8251 17.2398 32.8251 17.3126 32.8251C17.0213 32.8251 16.9121 32.9633 16.9849 33.2396C17.0578 33.516 17.0942 33.7923 17.0942 34.0686C16.7301 34.6213 16.4752 35.2431 16.3296 35.9339C16.1839 36.5557 15.9655 37.1429 15.6742 37.6956C15.5286 37.8338 15.3829 38.0065 15.2373 38.2138C15.0917 38.3519 14.9824 38.5246 14.9096 38.7319C14.764 39.0082 14.7276 39.3191 14.8004 39.6646C14.946 40.01 14.8004 40.2863 14.3635 40.4936C14.4363 40.9081 14.4363 41.2881 14.3635 41.6335C14.2906 41.9098 14.1814 42.1862 14.0358 42.4625C14.1086 43.0843 14.0358 43.8097 13.8173 44.6387C13.5989 45.4677 13.2712 46.124 12.8343 46.6076V47.4367C12.6886 47.6439 12.543 47.9203 12.3974 48.2657C12.2517 48.6111 12.2517 48.922 12.3974 49.1983C11.9605 49.751 11.7056 50.4073 11.6328 51.1673C11.5599 51.9272 11.3415 52.5835 10.9774 53.1362C10.7589 53.8961 10.6497 54.6906 10.6497 55.5197C10.6497 56.3487 10.4677 57.0395 10.1036 57.5922C10.0308 58.4212 9.88512 59.2157 9.66667 59.9757C9.52103 60.7356 9.19335 61.3919 8.68362 61.9446C8.31952 61.8064 8.10107 61.6683 8.02825 61.5301C8.02825 61.6683 7.80979 61.7373 7.37288 61.7373C7.15443 61.3919 6.79033 61.2192 6.2806 61.2192C5.84369 61.2192 5.51601 61.0465 5.29755 60.7011C5.00628 60.9083 4.75141 60.9083 4.53296 60.7011C4.3145 60.4247 4.02323 60.3211 3.65913 60.3902C3.58631 60.252 3.54991 60.1484 3.54991 60.0793C3.54991 60.0102 3.47709 59.9757 3.33145 59.9757C3.18581 59.5612 2.96736 59.2503 2.67608 59.043C2.38481 58.7667 2.20276 58.3522 2.12994 57.7995C2.27558 57.8686 2.3484 57.8686 2.3484 57.7995C2.3484 57.6613 2.42122 57.6268 2.56685 57.6958C2.49404 57.6268 2.38481 57.5922 2.23917 57.5922C2.45763 57.385 2.63967 57.3159 2.78531 57.385C2.93095 56.8323 3.00377 56.4178 3.00377 56.1414C3.07658 55.796 3.22222 55.3815 3.44068 54.8979C3.44068 54.8288 3.33145 54.7943 3.11299 54.7943C3.33145 54.6561 3.40427 54.4834 3.33145 54.2761H3.65913C3.65913 53.9307 3.62272 53.7234 3.54991 53.6543C3.54991 53.5162 3.54991 53.2744 3.54991 52.929C3.69554 53.0671 3.76836 53.1362 3.76836 53.1362C4.05964 52.3763 4.24168 51.6163 4.3145 50.8564C4.46014 50.0274 4.82423 49.4056 5.40678 48.9911V48.2657C5.33396 48.2657 5.29755 48.3002 5.29755 48.3693C5.29755 48.4384 5.22473 48.4384 5.0791 48.3693C5.29755 47.8166 5.44319 47.2639 5.51601 46.7113C5.66164 46.0895 5.91651 45.6059 6.2806 45.2605C6.35342 45.1223 6.31701 45.0878 6.17137 45.1568C6.02574 45.2259 5.95292 45.1914 5.95292 45.0532C5.8801 44.915 5.91651 44.8805 6.06215 44.9496C6.20778 44.9496 6.35342 44.915 6.49906 44.846C6.35342 44.7078 6.31701 44.6042 6.38983 44.5351C6.53547 44.3969 6.64469 44.2933 6.71751 44.2242C6.64469 44.086 6.60829 44.086 6.60829 44.2242C6.6811 44.3624 6.6447 44.3624 6.49906 44.2242C6.42624 44.086 6.38983 43.8442 6.38983 43.4988H6.71751C6.71751 42.877 6.79033 42.2207 6.93597 41.5299C7.15443 40.839 7.40929 40.2518 7.70056 39.7682C7.55493 39.63 7.55493 39.4918 7.70056 39.3537C7.8462 39.2155 7.8462 39.0082 7.70056 38.7319C7.70056 38.7319 7.70056 38.8355 7.70056 39.0428C7.48211 39.0428 7.33647 39.0773 7.26365 39.1464C7.0452 38.801 7.00879 38.5592 7.15443 38.421C7.37288 38.2828 7.51852 38.2828 7.59134 38.421C7.66416 38.5592 7.77338 38.6283 7.91902 38.6283C8.06466 38.4901 8.10107 38.3519 8.02825 38.2138C7.95543 38.0065 8.06466 37.9374 8.35593 38.0065C8.35593 37.9374 8.2467 37.9029 8.02825 37.9029C8.10107 37.7647 8.21029 37.6265 8.35593 37.4884C8.57439 37.3502 8.6108 37.212 8.46516 37.0739C8.46516 36.9357 8.46516 36.9011 8.46516 36.9702C8.53798 36.9702 8.64721 36.9702 8.79284 36.9702C8.72003 36.9011 8.68362 36.8321 8.68362 36.763C8.75643 36.6248 8.72003 36.5903 8.57439 36.6593C8.72003 36.5903 8.79284 36.4866 8.79284 36.3485C8.79284 36.1412 8.86566 36.003 9.0113 35.9339C8.64721 35.9339 8.6108 35.7267 8.90207 35.3122C9.26616 34.8977 9.37539 34.5522 9.22975 34.2759H9.55744C9.55744 34.0686 9.59385 33.965 9.66667 33.965C9.66667 33.8268 9.59385 33.7923 9.44821 33.8614C9.37539 33.8614 9.37539 33.7923 9.44821 33.6541C9.59385 33.6541 9.66667 33.6196 9.66667 33.5505C9.73949 33.4123 9.84871 33.3432 9.99435 33.3432L9.44821 32.9287C9.59385 32.7906 9.66667 32.6869 9.66667 32.6178C9.73949 32.4797 9.88512 32.4106 10.1036 32.4106C10.0308 32.3415 9.92153 32.2379 9.7759 32.0997C9.70308 31.8924 9.7759 31.7543 9.99435 31.6852H9.88512V31.4779C9.73948 31.4779 9.70308 31.547 9.7759 31.6852C9.84871 31.7543 9.8123 31.7888 9.66667 31.7888C9.52103 31.6506 9.52103 31.547 9.66667 31.4779C9.8123 31.3398 9.95794 31.3398 10.1036 31.4779C10.1764 31.3398 10.1764 31.2361 10.1036 31.167C10.0308 31.0289 10.0672 30.9252 10.2128 30.8562C10.0672 30.8562 9.99435 30.8907 9.99435 30.9598C9.99435 30.9598 9.95794 30.9598 9.88512 30.9598C9.95794 30.8216 10.0672 30.718 10.2128 30.6489C10.3584 30.5798 10.4313 30.4417 10.4313 30.2344C10.4313 30.0962 10.3584 30.0617 10.2128 30.1308C10.14 30.1999 10.1036 30.1653 10.1036 30.0271C10.5405 30.0962 10.7225 29.9926 10.6497 29.7163C10.5769 29.4399 10.6133 29.3017 10.7589 29.3017C10.6861 29.1636 10.6133 29.1636 10.5405 29.3017C10.5405 29.3708 10.4677 29.3708 10.322 29.3017C10.4677 29.1636 10.6133 29.0599 10.7589 28.9909C10.9046 28.9218 10.9774 28.8181 10.9774 28.68C10.9774 28.68 11.0502 28.7491 11.1959 28.8872C11.2687 28.8181 11.2687 28.7145 11.1959 28.5763C11.1959 28.3691 11.123 28.3 10.9774 28.3691C11.2687 27.8164 11.4871 27.2983 11.6328 26.8147C11.7784 26.262 11.9605 25.7093 12.1789 25.1566C12.2517 25.0184 12.2153 24.9839 12.0697 25.053C11.9969 25.1221 11.9605 25.0875 11.9605 24.9494C11.9605 24.8112 12.0697 24.7076 12.2881 24.6385C12.5066 24.5694 12.5066 24.4658 12.2881 24.3276C12.6522 24.1894 12.7979 23.9476 12.725 23.6022C12.725 23.1877 12.9071 22.9113 13.2712 22.7732C13.1255 22.635 13.0891 22.4277 13.162 22.1514C13.3076 21.8751 13.4168 21.6678 13.4896 21.5296C13.6353 21.4605 13.7081 21.4951 13.7081 21.6333C13.8537 21.5642 13.8537 21.4605 13.7081 21.3224C13.6353 21.1842 13.7081 21.1497 13.9266 21.2188C13.8537 21.2188 13.8173 21.1497 13.8173 21.0115C13.963 20.6661 14.0358 20.217 14.0358 19.6643C14.2542 19.6643 14.3271 19.768 14.2542 19.9752C14.2542 20.1134 14.3271 20.2516 14.4727 20.3897C14.5455 20.1134 14.5819 19.9061 14.5819 19.768C14.6547 19.5607 14.6183 19.3534 14.4727 19.1462C14.6183 19.2153 14.6911 19.2153 14.6911 19.1462C14.764 19.0771 14.8368 19.008 14.9096 18.9389C14.764 18.8008 14.6911 18.6626 14.6911 18.5244C14.764 18.3862 14.8732 18.2826 15.0188 18.2135C14.8732 18.2135 14.8004 18.179 14.8004 18.1099C14.6547 18.1099 14.5819 18.179 14.5819 18.3172C14.6547 18.4553 14.6183 18.4899 14.4727 18.4208C14.3271 18.2826 14.3635 18.1099 14.5819 17.9027C14.8004 17.6954 14.8368 17.5227 14.6911 17.3845L15.1281 17.1773C15.2737 16.0028 15.6378 14.8629 16.2203 13.7575C16.8029 12.6522 17.3126 11.5468 17.7495 10.4414C17.8952 10.4414 17.968 10.476 17.968 10.5451C17.968 10.2687 18.0044 10.0269 18.0772 9.81966C18.2957 9.81966 18.4049 9.78511 18.4049 9.71603C18.4777 9.57786 18.5141 9.43969 18.5141 9.30152C18.5141 9.09426 18.5505 8.95609 18.6234 8.887C18.6962 8.74883 18.8418 8.71429 19.0603 8.78338C18.9874 8.6452 18.9146 8.57612 18.8418 8.57612C18.769 8.50703 18.769 8.40341 18.8418 8.26524C18.9874 8.26524 19.0239 8.26524 18.951 8.26524C18.951 8.19615 18.951 8.09252 18.951 7.95435C19.1695 7.88527 19.2787 7.78164 19.2787 7.64346C19.3515 7.43621 19.5336 7.2635 19.8249 7.12532C19.8249 7.05624 19.7156 7.0217 19.4972 7.0217C19.57 6.95261 19.6064 6.88353 19.6064 6.81444C19.6064 6.67627 19.6792 6.64173 19.8249 6.71081C19.8977 6.57264 19.8613 6.5381 19.7156 6.60718C19.57 6.60718 19.4972 6.5381 19.4972 6.39993C19.6428 6.46901 19.7156 6.46901 19.7156 6.39993C19.7156 6.26176 19.7884 6.22721 19.9341 6.2963C19.7156 6.08905 19.7156 5.95087 19.9341 5.88179C20.1525 5.74362 20.189 5.50182 20.0433 5.15639C20.189 5.15639 20.2618 5.19093 20.2618 5.26002C20.3346 5.26002 20.371 5.26002 20.371 5.26002C20.371 5.19093 20.4074 5.15639 20.4802 5.15639C20.3346 5.01822 20.3346 4.88005 20.4802 4.74188C20.6259 4.60371 20.6259 4.46554 20.4802 4.32736C20.553 4.32736 20.5895 4.36191 20.5895 4.431C20.5895 4.431 20.6259 4.431 20.6987 4.431C20.99 2.84203 21.5361 1.59849 22.3371 0.700383C23.1381 -0.266812 24.194 -0.23227 25.5047 0.80401C25.796 1.08035 26.0873 1.35669 26.3785 1.63304C26.6698 1.90938 26.9975 2.11663 27.3616 2.2548C27.6529 2.80749 28.0898 3.36017 28.6723 3.91286ZM7.15443 65.3643C7.22724 65.7098 7.37288 65.8825 7.59134 65.8825C7.80979 65.9516 8.06466 66.0206 8.35593 66.0897C8.64721 66.297 8.82925 66.5733 8.90207 66.9187C8.97489 67.2642 9.08412 67.506 9.22975 67.6441C9.08412 68.8186 8.6108 69.7858 7.80979 70.5457C7.00879 71.3748 6.53547 72.3765 6.38983 73.5509C6.09856 73.3437 5.69805 73.2401 5.18832 73.2401C4.67859 73.2401 4.42373 73.4819 4.42373 73.9655C4.13245 74.0345 3.95041 74 3.87759 73.8618C3.80477 73.7237 3.65913 73.6891 3.44068 73.7582C3.44068 73.62 3.40427 73.5509 3.33145 73.5509C3.33145 73.5509 3.33145 73.4819 3.33145 73.3437C3.11299 73.3437 3.00377 73.3437 3.00377 73.3437C3.07658 73.4128 3.07658 73.4819 3.00377 73.5509C2.78531 73.2055 2.31199 72.9637 1.5838 72.8255C0.928437 72.7565 0.455116 72.5492 0.163842 72.2038C-0.054614 71.8584 -0.054614 71.4438 0.163842 70.9602C0.382298 70.5457 0.418707 70.2348 0.273069 70.0276C0.200251 69.8894 0.200251 69.7512 0.273069 69.6131C0.345888 69.4749 0.418707 69.4404 0.491526 69.5094C0.418707 68.7495 0.600753 67.9205 1.03766 67.0224C1.47458 66.1243 1.98431 65.3643 2.56685 64.7426C3.22222 64.1899 3.87759 63.9135 4.53296 63.9135C5.26114 63.8444 5.84369 64.2935 6.2806 65.2607C6.49906 65.2607 6.64469 65.2952 6.71751 65.3643C6.86315 65.4334 7.00879 65.4334 7.15443 65.3643ZM4.86064 49.9237C5.22473 49.7165 5.29755 49.5092 5.0791 49.302C5.0791 49.4401 5.00628 49.5783 4.86064 49.7165C4.715 49.7856 4.715 49.8547 4.86064 49.9237ZM15.8927 16.6591C15.747 16.5209 15.7106 16.4519 15.7834 16.4519C15.9291 16.4519 16.0019 16.3828 16.0019 16.2446C15.8562 16.2446 15.7834 16.3137 15.7834 16.4519C15.7834 16.59 15.7106 16.6937 15.565 16.7627C15.7834 16.7627 15.8927 16.7282 15.8927 16.6591ZM11.0866 27.9546C10.941 27.8164 10.8682 27.6782 10.8682 27.5401C10.941 27.4019 11.0502 27.3328 11.1959 27.3328C11.2687 27.471 11.2323 27.5746 11.0866 27.6437C11.0138 27.7128 11.0138 27.8164 11.0866 27.9546ZM14.4727 19.5607C14.3271 19.5607 14.2542 19.5607 14.2542 19.5607C14.2542 19.4916 14.1814 19.4916 14.0358 19.5607C13.963 19.4225 14.1086 19.3534 14.4727 19.3534V19.5607ZM15.6742 16.0373C15.5286 16.0373 15.4193 16.141 15.3465 16.3482C15.3465 16.4864 15.3829 16.59 15.4557 16.6591C15.4557 16.5209 15.4922 16.4173 15.565 16.3482C15.6378 16.2791 15.6742 16.1755 15.6742 16.0373ZM15.1281 21.9441C15.2009 21.8751 15.2737 21.8751 15.3465 21.9441C15.4922 21.9441 15.5286 21.8751 15.4557 21.7369C15.4557 21.7369 15.3465 21.7369 15.1281 21.7369V21.9441ZM7.59134 46.504C7.59134 46.2968 7.48211 46.2277 7.26365 46.2968C7.26365 46.4349 7.30006 46.504 7.37288 46.504C7.4457 46.4349 7.51852 46.4349 7.59134 46.504ZM7.26365 47.4367C7.19083 47.2985 7.19083 47.1603 7.26365 47.0221C7.40929 46.884 7.40929 46.884 7.26365 47.0221L7.15443 47.1258C7.15443 47.4021 7.19083 47.5057 7.26365 47.4367ZM5.95292 51.5818C6.09856 51.5818 6.17137 51.5127 6.17137 51.3745C6.17137 51.2364 6.09856 51.1673 5.95292 51.1673V51.5818ZM13.162 27.2292C13.3804 27.2292 13.4896 27.1256 13.4896 26.9183C13.344 26.9183 13.2712 26.9528 13.2712 27.0219C13.2712 27.091 13.2348 27.1601 13.162 27.2292ZM12.9435 27.9546C13.0891 28.0237 13.162 27.9891 13.162 27.8509C13.162 27.6437 13.0891 27.6091 12.9435 27.7473V27.9546ZM25.7232 12.3067C25.7232 12.4449 25.7596 12.5485 25.8324 12.6176H25.6139V12.3067H25.7232ZM8.90207 41.9444V41.7371H8.68362V41.9444H8.90207ZM13.8173 21.5296C13.963 21.5296 13.9994 21.5296 13.9266 21.5296C13.9266 21.4605 13.963 21.3915 14.0358 21.3224C13.8173 21.3224 13.7445 21.3915 13.8173 21.5296ZM16.6572 14.5866C16.8029 14.6556 16.8757 14.6211 16.8757 14.4829C16.8757 14.2757 16.8029 14.2411 16.6572 14.3793V14.5866ZM14.145 20.9079C14.145 20.8388 14.1814 20.7352 14.2542 20.597C14.3999 20.4588 14.3999 20.4243 14.2542 20.4934C14.2542 20.5624 14.2178 20.597 14.145 20.597C14.2178 20.7352 14.1814 20.8388 14.0358 20.9079C13.963 20.9079 13.9994 20.9079 14.145 20.9079ZM14.3635 18.5244C14.4363 18.5244 14.4727 18.628 14.4727 18.8353C14.3999 18.8353 14.3635 18.7317 14.3635 18.5244ZM15.8927 15.8301V15.7265H15.7834V15.6228H15.6742V15.8301H15.8927ZM4.86064 50.3382V50.131C4.78782 50.131 4.75141 50.1655 4.75141 50.2346C4.75141 50.2346 4.715 50.2346 4.64218 50.2346V50.3382H4.86064ZM9.22975 33.6541C9.15694 33.585 9.12053 33.5159 9.12053 33.4469H9.33898V33.5505L9.22975 33.6541ZM12.725 22.7732V22.6695H12.9435V22.7732H12.725ZM15.0188 17.3845L15.1281 17.4881H15.2373V17.3845H15.0188ZM17.7495 11.685L17.6403 11.5813H17.5311V11.685H17.7495ZM17.5311 32.307V32.4106H17.4218V32.307H17.5311ZM14.145 21.2188C14.0722 21.2188 14.0358 21.2533 14.0358 21.3224V21.2188H13.9266H14.145Z" fill="#FF5100"/>
</svg>
