<svg width="31" height="30" viewBox="0 0 31 30" fill="none" xmlns="http://www.w3.org/2000/svg">
<g clip-path="url(#clip0_2254_27936)">
<path d="M15.5 0C11.5227 0 7.70469 1.58133 4.89453 4.39336C2.08148 7.20651 0.500779 11.0217 0.5 15C0.5 18.9766 2.08203 22.7946 4.89453 25.6066C7.70469 28.4187 11.5227 30 15.5 30C19.4773 30 23.2953 28.4187 26.1055 25.6066C28.918 22.7946 30.5 18.9766 30.5 15C30.5 11.0234 28.918 7.20539 26.1055 4.39336C23.2953 1.58133 19.4773 0 15.5 0Z" fill="url(#paint0_linear_2254_27936)"/>
<path d="M7.86743 14.6694C12.2303 12.7291 15.1389 11.4498 16.5932 10.8318C20.7504 9.06698 21.6131 8.76047 22.1766 8.75009C22.3005 8.74806 22.5764 8.77933 22.7565 8.92793C22.9061 9.05326 22.9482 9.22274 22.9692 9.34174C22.9879 9.46062 23.0137 9.73156 22.9926 9.94306C22.7682 12.3588 21.7932 18.2212 21.2975 20.927C21.0894 22.0719 20.6755 22.4557 20.2757 22.4932C19.406 22.5748 18.7466 21.9069 17.9049 21.3438C16.5885 20.4622 15.845 19.9136 14.5661 19.0536C13.0884 18.0596 14.047 17.5131 14.8887 16.6204C15.1085 16.3867 18.9383 12.831 19.0108 12.5085C19.0202 12.4682 19.0295 12.3178 18.9407 12.2385C18.8542 12.159 18.7256 12.1863 18.632 12.2077C18.4988 12.2383 16.3968 13.6582 12.3192 16.4671C11.723 16.8858 11.1829 17.0899 10.6965 17.0792C10.1634 17.0675 9.13468 16.7707 8.37012 16.5172C7.43488 16.2062 6.68903 16.0417 6.75449 15.5134C6.78723 15.2384 7.15898 14.957 7.86743 14.6694Z" fill="white"/>
</g>
<defs>
<linearGradient id="paint0_linear_2254_27936" x1="1500.5" y1="0" x2="1500.5" y2="3000" gradientUnits="userSpaceOnUse">
<stop stop-color="#2AABEE"/>
<stop offset="1" stop-color="#229ED9"/>
</linearGradient>
<clipPath id="clip0_2254_27936">
<rect width="30" height="30" fill="white" transform="translate(0.5)"/>
</clipPath>
</defs>
</svg>
