<svg width="270" height="170" viewBox="0 0 270 170" fill="none" xmlns="http://www.w3.org/2000/svg">
<g clip-path="url(#clip0_1678_32440)">
<path d="M210.525 34.4587C209.893 33.4077 209.238 32.3758 208.549 31.3667C199.41 17.94 184.197 8.74773 169.415 4.58569C162.938 2.7579 156.289 1.80211 149.652 1.55841C106.112 -0.0218736 90.1152 35.8752 76.0869 45.1322C62.0586 54.3892 40.5287 70.1997 43.2323 103.412C45.281 128.666 59.6482 152.812 85.8846 163.798C88.7748 165.013 91.8097 166.067 94.9893 166.939C100.903 168.565 107.312 169.59 114.219 169.894C134.055 170.778 150.162 165.995 165.915 153.954C169.579 151.156 173.219 147.999 177.971 147.652C181.425 147.401 184.7 148.642 181.09 151.982C176.848 155.904 181.741 163.623 192.517 158.261C210.51 149.305 217.912 129.984 221.4 110.339C225.68 86.2233 223.605 56.2323 210.525 34.4587Z" fill="#FF5100"/>
<path d="M210.525 34.4587C209.893 33.4077 209.238 32.3758 208.549 31.3667C199.41 17.94 184.197 8.74773 169.415 4.58569C162.938 2.7579 156.289 1.80211 149.652 1.55841C106.112 -0.0218736 90.1152 35.8752 76.0869 45.1322C62.0586 54.3892 40.5287 70.1997 43.2323 103.412C45.281 128.666 59.6482 152.812 85.8846 163.798C88.7748 165.013 91.8097 166.067 94.9893 166.939C100.903 168.565 107.312 169.59 114.219 169.894C134.055 170.778 150.162 165.995 165.915 153.954C169.579 151.156 173.219 147.999 177.971 147.652C181.425 147.401 184.7 148.642 181.09 151.982C176.848 155.904 181.741 163.623 192.517 158.261C210.51 149.305 217.912 129.984 221.4 110.339C225.68 86.2233 223.605 56.2323 210.525 34.4587Z" fill="#FFB89C"/>
<path d="M203.096 41.2681C203.096 41.2681 201.096 32.9403 189.44 31.2762C177.784 29.6121 176.117 39.6041 173.786 40.9368C171.456 42.2696 170.123 38.6064 166.46 38.9377C162.797 39.269 160.797 42.2696 159.133 43.6024C157.469 44.9351 154.469 40.9368 152.138 41.6032C149.808 42.2696 147.809 45.6015 147.809 45.6015H215.422C215.422 45.6015 213.091 41.9383 209.759 40.6056C206.427 39.2728 205.095 41.2719 203.099 41.2719L203.096 41.2681Z" stroke="#263238" stroke-linecap="round" stroke-linejoin="round"/>
<path d="M90.8463 66.2688C90.8463 66.2688 89.4145 60.3018 81.0562 59.1061C72.7016 57.9142 71.5059 65.0731 69.8343 66.0289C68.1626 66.9846 67.2068 64.3572 64.5832 64.5971C61.9557 64.837 60.5239 66.9846 59.3321 67.9404C58.1402 68.8962 55.9887 66.0289 54.3171 66.5087C52.6454 66.9885 51.2136 69.3722 51.2136 69.3722H99.6806C99.6806 69.3722 98.0089 66.7447 95.6214 65.7928C93.2338 64.837 92.278 66.2688 90.8463 66.2688Z" stroke="#263238" stroke-linecap="round" stroke-linejoin="round"/>
<path d="M112.635 15.835C112.635 15.835 111.729 12.0538 106.432 11.296C101.139 10.5382 100.381 15.0772 99.3228 15.6827C98.2642 16.2881 97.6587 14.6241 95.9947 14.7764C94.3306 14.9287 93.4243 16.2881 92.6665 16.8936C91.9088 17.4991 90.5494 15.6827 89.4908 15.9873C88.4322 16.292 87.5259 17.8037 87.5259 17.8037H118.237C118.237 17.8037 117.178 16.1396 115.666 15.5342C114.155 14.9287 113.549 15.835 112.639 15.835H112.635Z" stroke="#263238" stroke-linecap="round" stroke-linejoin="round"/>
<path d="M156.137 23.63C160.97 23.63 164.887 19.7123 164.887 14.8795C164.887 10.0467 160.97 6.12891 156.137 6.12891C151.304 6.12891 147.386 10.0467 147.386 14.8795C147.386 19.7123 151.304 23.63 156.137 23.63Z" stroke="#263238" stroke-linecap="round" stroke-linejoin="round"/>
<path d="M156.137 0.191406V3.7518" stroke="#263238" stroke-linecap="round" stroke-linejoin="round"/>
<path d="M156.137 26.5938V30.1541" stroke="#263238" stroke-linecap="round" stroke-linejoin="round"/>
<path d="M166.73 4.57812L164.213 7.09896" stroke="#263238" stroke-linecap="round" stroke-linejoin="round"/>
<path d="M148.06 23.2539L145.539 25.7709" stroke="#263238" stroke-linecap="round" stroke-linejoin="round"/>
<path d="M171.117 15.1758H167.557" stroke="#263238" stroke-linecap="round" stroke-linejoin="round"/>
<path d="M144.713 15.1758H141.153" stroke="#263238" stroke-linecap="round" stroke-linejoin="round"/>
<path d="M166.73 25.7709L164.213 23.2539" stroke="#263238" stroke-linecap="round" stroke-linejoin="round"/>
<path d="M148.06 7.09896L145.539 4.57812" stroke="#263238" stroke-linecap="round" stroke-linejoin="round"/>
<path d="M177.24 63.5719C177.24 63.5719 178.999 63.134 179.525 63.3091C180.05 63.4843 179.175 64.1088 179.175 64.1088C179.175 64.1088 179.612 64.3639 179.875 64.9808C180.138 65.5977 178.999 65.3311 178.999 65.3311C178.999 65.3311 179.346 65.7728 178.999 66.1232C178.653 66.4735 177.065 64.7181 177.065 64.7181C177.065 64.7181 175.923 65.4225 174.868 65.3349C173.813 65.2474 173.196 64.9846 172.495 63.9298C171.795 62.875 171.265 62.3495 171.265 62.3495L170.561 62.0868L171.616 61.4699C171.616 61.4699 172.495 60.6779 173.375 60.7655C174.255 60.853 174.605 61.1158 174.605 61.1158C174.605 61.1158 175.131 59.7107 175.923 59.1814C176.715 58.6521 179.175 57.9514 179.967 57.5097C180.759 57.0718 180.583 57.7724 180.317 58.2142C180.05 58.6559 179.262 59.0062 178.912 59.1814C178.561 59.3565 180.759 59.4441 180.404 59.8858C180.05 60.3275 178.733 60.5027 178.733 60.5027C178.733 60.5027 179.963 60.9406 179.7 61.2947C179.437 61.6451 178.382 61.6451 178.382 61.6451C178.382 61.6451 178.733 62.5247 178.207 62.5247H177.678C177.678 62.5247 177.941 63.7547 177.24 63.5795V63.5719Z" fill="#FF5100"/>
<path d="M174.601 61.1112C174.601 61.1112 173.897 59.7061 174.251 58.8265C174.601 57.9469 177.853 55.6621 177.766 56.5417C177.678 57.4214 176.798 57.9469 176.798 57.9469C176.798 57.9469 178.116 57.5089 178.116 57.8593V58.2096C178.116 58.2096 176.623 58.5599 175.919 59.1768C175.214 59.7937 174.601 61.1112 174.601 61.1112Z" fill="#421503"/>
<path d="M172.545 62.0567C172.69 62.0567 172.808 61.9391 172.808 61.794C172.808 61.6489 172.69 61.5312 172.545 61.5312C172.4 61.5312 172.282 61.6489 172.282 61.794C172.282 61.9391 172.4 62.0567 172.545 62.0567Z" fill="#421503"/>
<path d="M176.075 64.4814C175.915 65.0145 175.077 65.2354 174.201 64.9765C173.326 64.7175 172.743 64.074 172.903 63.5409C173.063 63.0078 173.901 62.7869 174.776 63.0459C175.652 63.3048 176.235 63.9483 176.075 64.4814Z" fill="white" stroke="#263238" stroke-width="0.5" stroke-linecap="round" stroke-linejoin="round"/>
<path d="M89.8107 41.0445C89.8107 41.0445 88.0514 40.6066 87.5259 40.7818C87.0004 40.9569 87.8762 41.5814 87.8762 41.5814C87.8762 41.5814 87.4383 41.8366 87.1756 42.4535C86.9128 43.0703 88.0514 42.8038 88.0514 42.8038C88.0514 42.8038 87.7049 43.2455 88.0514 43.5958C88.4017 43.9461 89.9858 42.1907 89.9858 42.1907C89.9858 42.1907 91.1282 42.8952 92.183 42.8076C93.2378 42.72 93.8546 42.4573 94.5553 41.4025C95.256 40.3477 95.7853 39.8222 95.7853 39.8222L96.4897 39.5594L95.4349 38.9426C95.4349 38.9426 94.5553 38.1505 93.6757 38.2381C92.7961 38.3257 92.4457 38.5884 92.4457 38.5884C92.4457 38.5884 91.9202 37.1833 91.1282 36.654C90.3361 36.1247 87.8762 35.4241 87.0842 34.9824C86.2922 34.5444 86.4673 35.2451 86.7339 35.6868C86.9966 36.1247 87.7887 36.4789 88.139 36.654C88.4893 36.8292 86.2922 36.9168 86.6463 37.3585C86.9966 37.7964 88.318 37.9754 88.318 37.9754C88.318 37.9754 87.088 38.4133 87.3508 38.7674C87.6135 39.1215 88.6683 39.1177 88.6683 39.1177C88.6683 39.1177 88.318 39.9974 88.8434 39.9974H89.3689C89.3689 39.9974 89.1062 41.2273 89.8068 41.0521L89.8107 41.0445Z" fill="#FF5100"/>
<path d="M92.4495 38.58C92.4495 38.58 93.154 37.1749 92.7998 36.2952C92.4495 35.4156 89.1976 33.1309 89.2851 34.0105C89.3727 34.8901 90.2523 35.4156 90.2523 35.4156C90.2523 35.4156 88.9348 34.9777 88.9348 35.328V35.6784C88.9348 35.6784 90.4275 36.0287 91.132 36.6456C91.8364 37.2624 92.4495 38.58 92.4495 38.58Z" fill="#421503"/>
<path d="M94.2432 39.2667C94.2432 39.4114 94.3612 39.5294 94.5059 39.5294C94.6506 39.5294 94.7687 39.4114 94.7687 39.2667C94.7687 39.122 94.6506 39.0039 94.5059 39.0039C94.3612 39.0039 94.2432 39.122 94.2432 39.2667Z" fill="#421503"/>
<path d="M90.9759 41.9541C91.1358 42.4872 91.9736 42.7081 92.8494 42.4491C93.7252 42.1902 94.3078 41.5466 94.1479 41.0135C93.9879 40.4804 93.1502 40.2596 92.2744 40.5185C91.3986 40.7775 90.816 41.421 90.9759 41.9541Z" fill="white" stroke="#263238" stroke-width="0.5" stroke-linecap="round" stroke-linejoin="round"/>
<path d="M85.0925 106.505C85.0925 106.505 81.6159 100.98 75.3176 97.7129C69.0194 94.4457 66.3348 91.2204 69.602 91.4146C73.566 91.6469 82.5488 94.796 86.6309 105.877C88.394 110.66 85.0887 106.505 85.0887 106.505" fill="#FF5100"/>
<path d="M84.883 105.06C84.883 105.06 81.7338 98.7615 75.7859 95.7266" stroke="#263238" stroke-linecap="round" stroke-linejoin="round"/>
<path d="M88.8776 110.322C88.8776 110.322 86.8899 104.766 88.0894 98.4638C89.2851 92.1617 88.493 88.4528 86.8061 90.886C84.7575 93.8334 81.9777 101.975 87.5753 111.068C89.9895 114.99 88.8814 110.325 88.8814 110.325" fill="#FF5100"/>
<path d="M87.9714 109.366C87.9714 109.366 85.2526 103.609 86.4216 97.6875" stroke="#263238" stroke-linecap="round" stroke-linejoin="round"/>
<path d="M85.3476 103.724C85.3476 103.724 83.3599 98.1682 84.5593 91.8661C85.755 85.564 84.963 81.8551 83.2761 84.2884C81.2274 87.2357 78.4477 95.377 84.0453 104.47C86.4595 108.392 85.3514 103.728 85.3514 103.728" fill="#FF5100"/>
<path d="M84.8831 105.057C84.8831 105.057 81.7225 97.0111 82.8915 91.0898" stroke="#263238" stroke-linecap="round" stroke-linejoin="round"/>
<path d="M164.419 99.6225C164.419 99.6225 167.896 94.0972 174.194 90.8301C180.492 87.5629 183.177 84.3376 179.909 84.5318C175.942 84.7641 166.963 87.9132 162.881 98.9942C161.117 103.777 164.423 99.6225 164.423 99.6225" fill="#FF5100"/>
<path d="M164.628 98.1808C164.628 98.1808 167.778 91.8826 173.725 88.8477" stroke="#263238" stroke-linecap="round" stroke-linejoin="round"/>
<path d="M160.63 103.439C160.63 103.439 162.618 97.883 161.418 91.5809C160.223 85.2789 161.015 81.57 162.701 84.0032C164.75 86.9505 167.53 95.0918 161.932 104.185C159.518 108.107 160.626 103.443 160.626 103.443" fill="#FF5100"/>
<path d="M161.54 102.487C161.54 102.487 164.259 96.7299 163.09 90.8086" stroke="#263238" stroke-linecap="round" stroke-linejoin="round"/>
<path d="M164.16 96.8411C164.16 96.8411 166.148 91.2854 164.948 84.9833C163.753 78.6812 164.545 74.9723 166.231 77.4056C168.28 80.3529 171.06 88.4942 165.462 97.5875C163.048 101.51 164.156 96.8449 164.156 96.8449" fill="#FF5100"/>
<path d="M164.628 98.1783C164.628 98.1783 167.789 90.1322 166.62 84.2109" stroke="#263238" stroke-linecap="round" stroke-linejoin="round"/>
<path d="M166.003 79.9184H129.805L109.554 47.7188H145.752L166.003 79.9184Z" fill="#421503"/>
<path d="M124.771 78.8125H87.6704V111.583H124.771V78.8125Z" fill="#C7C7C7" stroke="#263238" stroke-linecap="round" stroke-linejoin="round"/>
<path d="M161.867 111.582H124.767V78.8113L143.628 48.8203L161.867 78.8113V111.582Z" fill="white" stroke="#263238" stroke-linecap="round" stroke-linejoin="round"/>
<path d="M132.806 84.6836H129.097V95.8141H132.806V84.6836Z" fill="#C7C7C7" stroke="#263238" stroke-linecap="round" stroke-linejoin="round"/>
<path d="M136.515 84.6836H132.806V95.8141H136.515V84.6836Z" fill="#421503"/>
<path d="M140.227 84.6836H136.518V95.8141H140.227V84.6836Z" fill="#C7C7C7" stroke="#263238" stroke-linecap="round" stroke-linejoin="round"/>
<path d="M115.803 84.6836H112.711V95.8141H115.803V84.6836Z" fill="#919191" stroke="#263238" stroke-linecap="round" stroke-linejoin="round"/>
<path d="M118.895 84.6836H115.803V95.8141H118.895V84.6836Z" fill="#421503"/>
<path d="M121.987 84.6836H118.895V95.8141H121.987V84.6836Z" fill="#919191" stroke="#263238" stroke-linecap="round" stroke-linejoin="round"/>
<path d="M92.9253 84.6836H89.8333V95.8141H92.9253V84.6836Z" fill="#919191" stroke="#263238" stroke-linecap="round" stroke-linejoin="round"/>
<path d="M96.0173 84.6836H92.9253V95.8141H96.0173V84.6836Z" fill="#421503"/>
<path d="M99.1094 84.6836H96.0173V95.8141H99.1094V84.6836Z" fill="#919191" stroke="#263238" stroke-linecap="round" stroke-linejoin="round"/>
<path d="M151.666 84.6836H147.957V95.8141H151.666V84.6836Z" fill="#C7C7C7" stroke="#263238" stroke-linecap="round" stroke-linejoin="round"/>
<path d="M155.375 84.6836H151.666V95.8141H155.375V84.6836Z" fill="#421503"/>
<path d="M159.084 84.6836H155.375V95.8141H159.084V84.6836Z" fill="#C7C7C7" stroke="#263238" stroke-linecap="round" stroke-linejoin="round"/>
<path d="M143.011 66.4453H140.536V73.2462H143.011V66.4453Z" fill="#C7C7C7" stroke="#263238" stroke-linecap="round" stroke-linejoin="round"/>
<path d="M145.486 66.4453H143.011V73.2462H145.486V66.4453Z" fill="#421503"/>
<path d="M147.957 66.4453H145.482V73.2462H147.957V66.4453Z" fill="#C7C7C7" stroke="#263238" stroke-linecap="round" stroke-linejoin="round"/>
<path d="M85.6028 79.9184H125.441L145.691 47.7188H105.853L85.6028 79.9184Z" fill="#FF5100"/>
<path d="M116.706 62.2617H100.975V72.6725H116.706V62.2617Z" fill="#C7C7C7" stroke="#263238" stroke-linecap="round" stroke-linejoin="round"/>
<path d="M116.709 62.2604L127.581 54.7969L116.709 72.6712V62.2604Z" fill="white" stroke="#263238" stroke-linecap="round" stroke-linejoin="round"/>
<path d="M99.7148 62.6145H116.192L127.581 54.7969H111.104L99.7148 62.6145Z" fill="#FF5100"/>
<path d="M107.304 64.4727H104.829V71.2736H107.304V64.4727Z" fill="#919191" stroke="#263238" stroke-linecap="round" stroke-linejoin="round"/>
<path d="M109.775 64.4727H107.3V71.2736H109.775V64.4727Z" fill="#421503"/>
<path d="M112.251 64.4727H109.775V71.2736H112.251V64.4727Z" fill="#919191" stroke="#263238" stroke-linecap="round" stroke-linejoin="round"/>
<path d="M136.103 42.832H134.717V52.9344L136.103 50.703V42.832Z" fill="white" stroke="#263238" stroke-linecap="round" stroke-linejoin="round"/>
<path d="M134.782 42.832H130.692V52.9344H134.782V42.832Z" fill="#C7C7C7" stroke="#263238" stroke-linecap="round" stroke-linejoin="round"/>
<path d="M110.983 86.5586H101.459V111.584H110.983V86.5586Z" fill="#421503"/>
<path d="M110.476 99.0369C110.476 98.5723 110.099 98.1953 109.635 98.1953C109.17 98.1953 108.793 98.5723 108.793 99.0369C108.793 99.5014 109.17 99.8784 109.635 99.8784C110.099 99.8784 110.476 99.5014 110.476 99.0369Z" fill="white" stroke="#263238" stroke-linecap="round" stroke-linejoin="round"/>
<path d="M85.7057 106.347C85.7057 106.347 77.7319 101.983 70.2837 101.172C62.8354 100.361 58.5287 103.83 58.5629 105.338C58.601 106.846 63.7683 106.956 64.7508 107.208C65.7294 107.459 71.7193 105.806 80.5612 107.904C89.3993 110.006 90.5303 110.437 90.5303 110.437L85.7057 106.343V106.347Z" fill="white" stroke="#263238" stroke-linecap="round" stroke-linejoin="round"/>
<path d="M82.3699 106.246C82.3699 106.246 74.0496 102.583 66.5595 102.419C59.0693 102.252 55.0748 106.079 55.2424 107.579C55.4099 109.076 60.5696 108.744 61.5673 108.912C62.565 109.079 68.3911 106.917 77.3777 108.245C86.3644 109.578 87.5296 109.91 87.5296 109.91L82.3699 106.25V106.246Z" fill="white" stroke="#263238" stroke-linecap="round" stroke-linejoin="round"/>
<path d="M188.74 103.166L177.187 100.036C177.187 100.036 169.003 93.5358 159.133 94.2593C149.263 94.9828 140.357 98.8326 137.466 100.999C134.576 103.166 130.966 105.333 130.243 105.813C129.519 106.292 119.649 103.646 114.356 105.813C109.059 107.979 104.966 112.313 104.966 112.313C104.966 112.313 82.5793 105.573 77.0426 104.609C71.5059 103.646 65.0058 104.129 60.4325 107.499C55.8592 110.869 56.8226 113.036 59.2292 113.516C61.6358 113.996 62.1194 111.589 75.3595 115.203C88.5996 118.813 104.73 128.203 111.23 131.813C117.73 135.423 128.564 140.48 135.783 138.313C143.007 136.146 162.743 128.683 167.32 128.683C171.897 128.683 186.577 129.646 186.577 129.646L188.744 103.166H188.74Z" fill="white" stroke="#263238" stroke-linecap="round" stroke-linejoin="round"/>
<path d="M182.453 119.09L172.522 128.625L186.573 129.645L182.453 119.09Z" fill="#421503"/>
<path d="M104.966 112.312C104.966 112.312 102.731 115.252 103.671 119.06C104.254 121.413 106.999 120.892 111.991 119.894C116.984 118.896 112.323 118.23 123.975 118.062C135.623 117.895 148.106 117.564 148.772 117.564" stroke="#263238" stroke-linecap="round" stroke-linejoin="round"/>
<path d="M104.882 120.481C104.882 120.481 105.103 118.962 106.725 118.022C106.725 118.022 109.493 116.586 111.234 116.586C112.974 116.586 114.409 118.429 113.899 119.046" stroke="#263238" stroke-linecap="round" stroke-linejoin="round"/>
<path d="M119.844 117.611V115.562" stroke="#263238" stroke-linecap="round" stroke-linejoin="round"/>
<path d="M120.868 113.613C120.868 113.613 121.176 114.74 120.97 116.484" stroke="#263238" stroke-linecap="round" stroke-linejoin="round"/>
<path d="M183.34 98.3788H198.865V140.749H183.34C182.396 140.749 181.63 139.984 181.63 139.04V100.085C181.63 99.1404 182.396 98.375 183.34 98.375V98.3788Z" fill="#FF5100"/>
<path d="M198.995 96.2031H226.484V144.061H198.995C198.279 144.061 197.696 143.478 197.696 142.762V97.5054C197.696 96.7895 198.279 96.2069 198.995 96.2069V96.2031Z" fill="#FF5100"/>
</g>
<defs>
<clipPath id="clip0_1678_32440">
<rect width="183.484" height="170" fill="white" transform="translate(43)"/>
</clipPath>
</defs>
</svg>
