<svg width="270" height="170" viewBox="0 0 270 170" fill="none" xmlns="http://www.w3.org/2000/svg">
<g clip-path="url(#clip0_1678_31937)">
<path d="M167.23 143.902L96.6479 155.402C97.4117 158.019 100.13 159.915 102.849 159.74C104.497 159.63 106.178 158.859 107.739 159.407C109.186 159.915 110.015 161.384 110.896 162.641C112.942 165.55 115.924 167.79 119.286 168.945C124.782 170.834 130.804 169.807 136.523 168.759C141.46 167.856 146.397 166.95 151.334 166.047C155.259 165.327 159.242 164.593 162.83 162.846C166.419 161.099 169.627 158.187 170.819 154.375C172.01 150.568 170.705 145.868 167.234 143.902H167.23Z" fill="#F5F5F5"/>
<path d="M169.554 8.71969C169.178 6.65868 166.813 5.16043 164.811 5.11658C162.808 5.07273 161.478 6.03746 160.331 7.76958V7.82439C160.166 5.62087 158.964 3.51601 157.159 2.37588C155.153 1.10785 152.489 1.08227 150.446 2.30645C148.403 3.53063 147.058 5.95706 147.062 8.42004C145.268 7.98152 143.338 9.49074 142.98 11.391C142.619 13.2912 143.671 15.301 145.268 16.2548C146.868 17.2085 148.889 17.1866 150.61 16.485C151.455 18.3998 153.428 19.6934 155.441 19.6569C157.455 19.6167 159.395 18.2464 160.196 16.3023C161.533 16.982 163.097 17.4095 164.508 16.8943C165.918 16.379 166.985 14.6432 166.404 13.2035C168.403 13.1048 169.934 10.7807 169.558 8.71969H169.554Z" fill="#F5F5F5"/>
<path d="M217.677 55.9607C217.312 53.9618 215.02 52.5111 213.08 52.4672C211.14 52.4234 209.85 53.3589 208.735 55.0362V55.091C208.574 52.9533 207.409 50.9142 205.658 49.8106C203.714 48.5828 201.13 48.5572 199.15 49.7412C197.169 50.9288 195.868 53.2785 195.868 55.6684C194.129 55.2445 192.262 56.7062 191.911 58.5479C191.56 60.3897 192.58 62.3411 194.129 63.2619C195.678 64.1865 197.641 64.1682 199.311 63.4848C200.129 65.3412 202.04 66.5946 203.992 66.5581C205.943 66.5215 207.825 65.1914 208.6 63.3058C209.897 63.9672 211.414 64.3801 212.78 63.8795C214.147 63.3789 215.181 61.6979 214.618 60.302C216.559 60.207 218.039 57.9523 217.673 55.9534L217.677 55.9607Z" fill="#F5F5F5"/>
<path d="M212.751 99.7882C212.481 98.3082 210.785 97.2339 209.349 97.201C207.913 97.1681 206.956 97.8624 206.133 99.1049V99.1451C206.016 97.5628 205.15 96.0535 203.857 95.235C202.417 94.3251 200.506 94.3068 199.037 95.1838C197.571 96.0609 196.607 97.8039 196.607 99.5726C195.32 99.2583 193.935 100.34 193.676 101.703C193.417 103.066 194.169 104.51 195.317 105.193C196.464 105.876 197.915 105.862 199.154 105.357C199.76 106.731 201.175 107.659 202.622 107.634C204.065 107.605 205.461 106.622 206.035 105.226C206.996 105.715 208.118 106.019 209.13 105.65C210.142 105.281 210.906 104.034 210.493 103C211.929 102.931 213.025 101.261 212.755 99.7809L212.751 99.7882Z" fill="#F5F5F5"/>
<path d="M73.8526 110.187C73.5822 108.707 71.8866 107.632 70.4505 107.599C69.0143 107.567 68.0569 108.261 67.2347 109.503V109.543C67.1178 107.961 66.2517 106.452 64.9581 105.633C63.5183 104.724 61.6072 104.705 60.1381 105.582C58.6728 106.459 57.7081 108.202 57.7081 109.971C56.4218 109.657 55.0368 110.738 54.7773 112.101C54.5179 113.465 55.2707 114.908 56.4181 115.591C57.5655 116.275 59.0163 116.26 60.2551 115.756C60.8617 117.13 62.2759 118.058 63.723 118.032C65.1664 118.003 66.5623 117.02 67.1361 115.624C68.0971 116.114 69.219 116.417 70.2312 116.048C71.2434 115.679 72.0072 114.433 71.5943 113.399C73.0304 113.329 74.1267 111.659 73.8562 110.179L73.8526 110.187Z" fill="#F5F5F5"/>
<path d="M107.95 7.21229C107.578 5.17686 105.246 3.70054 103.273 3.66034C101.3 3.61649 99.9842 4.57025 98.8513 6.27679V6.33161C98.6906 4.15732 97.5029 2.0817 95.7196 0.959841C93.7427 -0.289917 91.1116 -0.315497 89.0981 0.89041C87.081 2.09632 85.7581 4.48986 85.7618 6.9236C83.9931 6.4924 82.0892 7.97968 81.7348 9.85432C81.3803 11.729 82.4145 13.7132 83.9931 14.6524C85.5717 15.5915 87.567 15.5732 89.2662 14.8789C90.0994 16.7682 92.0434 18.0435 94.0314 18.007C96.0156 17.9704 97.9341 16.6147 98.7198 14.6962C100.039 15.3686 101.585 15.7888 102.973 15.2809C104.366 14.773 105.414 13.0591 104.844 11.6413C106.818 11.5462 108.327 9.25136 107.954 7.21594L107.95 7.21229Z" fill="#F5F5F5"/>
<path d="M209.21 5.9341L209.729 6.98287C209.788 7.09981 209.897 7.17655 210.025 7.19848L211.183 7.36657C211.505 7.41408 211.633 7.80874 211.399 8.0353L210.562 8.8502C210.471 8.94156 210.427 9.06946 210.449 9.19736L210.646 10.3485C210.701 10.6664 210.365 10.9112 210.08 10.7614L209.046 10.2169C208.932 10.1584 208.797 10.1584 208.68 10.2169L207.646 10.7614C207.357 10.9112 207.025 10.67 207.08 10.3485L207.277 9.19736C207.299 9.06946 207.255 8.94156 207.164 8.8502L206.327 8.0353C206.093 7.80874 206.225 7.41408 206.543 7.36657L207.701 7.19848C207.829 7.1802 207.938 7.09981 207.997 6.98287L208.516 5.9341C208.658 5.64176 209.075 5.64176 209.217 5.9341H209.21Z" fill="#E0E0E0"/>
<path d="M59.2867 66.9747L59.8203 68.0601C59.8787 68.1806 59.992 68.261 60.1236 68.283L61.3222 68.4584C61.6547 68.5059 61.7863 68.9152 61.5451 69.149L60.679 69.9932C60.584 70.0845 60.5401 70.2197 60.5621 70.3513L60.7667 71.5426C60.8252 71.8715 60.478 72.1236 60.1784 71.9701L59.1077 71.4074C58.9907 71.3452 58.8482 71.3452 58.7313 71.4074L57.6606 71.9701C57.3646 72.1272 57.0174 71.8751 57.0723 71.5426L57.2769 70.3513C57.2988 70.2197 57.255 70.0845 57.16 69.9932L56.2939 69.149C56.0527 68.9152 56.1879 68.5059 56.5168 68.4584L57.7154 68.283C57.847 68.2647 57.9602 68.1806 58.0187 68.0601L58.5522 66.9747C58.7021 66.6751 59.1296 66.6751 59.2794 66.9747H59.2867Z" fill="#E0E0E0"/>
<path d="M60.7594 12.6508L61.5561 14.2623C61.6438 14.4414 61.8119 14.562 62.0092 14.5912L63.7852 14.8506C64.2785 14.9237 64.4758 15.5267 64.1177 15.8775L62.8314 17.1309C62.6889 17.2698 62.6268 17.4671 62.6597 17.6644L62.963 19.4331C63.047 19.9228 62.5318 20.2991 62.0896 20.0653L60.5 19.2284C60.3246 19.1371 60.1163 19.1371 59.9409 19.2284L58.3513 20.0653C57.9091 20.2955 57.3939 19.9228 57.4779 19.4331L57.7812 17.6644C57.8141 17.4707 57.7483 17.2698 57.6095 17.1309L56.3232 15.8775C55.965 15.5303 56.1624 14.9237 56.6557 14.8506L58.4317 14.5912C58.629 14.562 58.7971 14.4414 58.8848 14.2623L59.6814 12.6508C59.9007 12.205 60.5402 12.205 60.7594 12.6508Z" fill="#E0E0E0"/>
<path d="M70.9948 131.447L71.4882 132.444C71.543 132.554 71.6489 132.631 71.7695 132.649L72.8695 132.81C73.1764 132.853 73.297 133.23 73.0741 133.445L72.2775 134.22C72.1898 134.304 72.1496 134.428 72.1715 134.549L72.3579 135.645C72.409 135.949 72.0911 136.182 71.817 136.036L70.834 135.517C70.7244 135.459 70.5965 135.459 70.4869 135.517L69.5039 136.036C69.2298 136.179 68.9119 135.949 68.9631 135.645L69.1494 134.549C69.1714 134.428 69.1312 134.304 69.0435 134.22L68.2468 133.445C68.0276 133.23 68.1482 132.853 68.4515 132.81L69.5514 132.649C69.672 132.631 69.778 132.554 69.8328 132.444L70.3261 131.447C70.4613 131.169 70.856 131.169 70.9948 131.447Z" fill="#E0E0E0"/>
<path d="M183.868 75.5091L184.361 76.5067C184.416 76.6163 184.522 76.6931 184.643 76.7113L185.743 76.8721C186.049 76.916 186.17 77.2924 185.947 77.508L185.151 78.2827C185.063 78.3667 185.023 78.491 185.045 78.6115L185.231 79.7078C185.282 80.0111 184.964 80.245 184.69 80.0988L183.707 79.5799C183.597 79.5215 183.47 79.5215 183.36 79.5799L182.377 80.0988C182.103 80.2413 181.785 80.0111 181.836 79.7078L182.022 78.6115C182.044 78.491 182.004 78.3667 181.917 78.2827L181.12 77.508C180.901 77.2924 181.021 76.916 181.325 76.8721L182.424 76.7113C182.545 76.6931 182.651 76.6163 182.706 76.5067L183.199 75.5091C183.334 75.2314 183.729 75.2314 183.868 75.5091Z" fill="#E0E0E0"/>
<path d="M206.667 119.97L207.16 120.968C207.215 121.077 207.321 121.154 207.441 121.172L208.541 121.333C208.848 121.377 208.969 121.753 208.746 121.969L207.949 122.744C207.862 122.828 207.821 122.952 207.843 123.072L208.03 124.169C208.081 124.472 207.763 124.706 207.489 124.56L206.506 124.041C206.396 123.982 206.268 123.982 206.159 124.041L205.176 124.56C204.902 124.702 204.584 124.472 204.635 124.169L204.821 123.072C204.843 122.952 204.803 122.828 204.715 122.744L203.919 121.969C203.699 121.753 203.82 121.377 204.123 121.333L205.223 121.172C205.344 121.154 205.45 121.077 205.505 120.968L205.998 119.97C206.133 119.692 206.528 119.692 206.667 119.97Z" fill="#E0E0E0"/>
<path d="M88.4332 77.1319C88.2687 76.7409 87.9654 76.4229 87.6073 76.1964C87.2565 75.9771 86.8436 75.8419 86.4306 75.8711C85.9921 75.9004 85.5682 76.1196 85.2905 76.4595C85.1261 76.6605 85.0128 76.9053 84.958 77.1611C84.7862 76.9967 84.5779 76.8724 84.355 76.7957C83.9384 76.6568 83.4634 76.7007 83.0797 76.909C82.7142 77.1063 82.4402 77.4388 82.2611 77.8116C82.0784 78.1916 81.9944 78.6265 82.0638 79.043C82.1515 79.5656 82.4109 80.0882 82.7983 80.4463C83.2076 80.8263 83.763 81.0675 84.3002 81.21C85.2065 81.4512 86.3941 81.7399 86.3941 81.7399C86.3941 81.7399 87.0665 80.8482 87.706 80.1576C88.086 79.7483 88.4222 79.2477 88.5684 78.7069C88.7036 78.1953 88.6415 77.6142 88.4368 77.1282L88.4332 77.1319Z" fill="#E0E0E0"/>
<path d="M214.914 143.353C214.914 143.404 178.441 143.448 133.461 143.448C88.4805 143.448 52 143.404 52 143.353C52 143.302 88.4659 143.258 133.461 143.258C178.456 143.258 214.914 143.302 214.914 143.353Z" fill="black"/>
<path d="M209.203 43.3165L209.707 44.336C209.762 44.4493 209.871 44.5261 209.992 44.5443L211.117 44.7088C211.428 44.7526 211.556 45.1363 211.329 45.3592L210.514 46.1522C210.423 46.2399 210.383 46.3642 210.405 46.4884L210.599 47.6103C210.653 47.9209 210.324 48.1584 210.047 48.0122L209.038 47.4824C208.929 47.4239 208.793 47.4239 208.684 47.4824L207.675 48.0122C207.397 48.1584 207.069 47.9209 207.123 47.6103L207.317 46.4884C207.339 46.3642 207.299 46.2399 207.207 46.1522L206.392 45.3592C206.166 45.14 206.29 44.7563 206.604 44.7088L207.73 44.5443C207.854 44.5261 207.96 44.4493 208.015 44.336L208.519 43.3165C208.658 43.0351 209.064 43.0351 209.203 43.3165Z" fill="#FF5100"/>
<path d="M107.486 13.139L107.844 13.8626C107.885 13.943 107.961 13.9978 108.049 14.0124L108.849 14.1293C109.072 14.1622 109.16 14.4326 108.999 14.5898L108.422 15.1525C108.36 15.2146 108.33 15.306 108.345 15.3937L108.48 16.1903C108.517 16.4096 108.287 16.5813 108.089 16.4754L107.373 16.099C107.293 16.0588 107.201 16.0588 107.121 16.099L106.405 16.4754C106.207 16.5813 105.973 16.4096 106.014 16.1903L106.149 15.3937C106.163 15.306 106.134 15.2146 106.072 15.1525L105.495 14.5898C105.334 14.4326 105.422 14.1622 105.645 14.1293L106.445 14.0124C106.533 13.9978 106.609 13.943 106.649 13.8626L107.008 13.139C107.106 12.938 107.395 12.938 107.494 13.139H107.486Z" fill="#FF5100"/>
<path d="M150.65 8.41246L151.008 9.136C151.049 9.21639 151.125 9.27121 151.213 9.28583L152.013 9.40276C152.236 9.43565 152.324 9.70607 152.163 9.8632L151.586 10.426C151.524 10.4881 151.494 10.5794 151.509 10.6671L151.644 11.4638C151.681 11.683 151.451 11.8548 151.253 11.7488L150.537 11.3724C150.457 11.3322 150.365 11.3322 150.285 11.3724L149.569 11.7488C149.371 11.8548 149.137 11.683 149.178 11.4638L149.313 10.6671C149.328 10.5794 149.298 10.4881 149.236 10.426L148.659 9.8632C148.498 9.70607 148.586 9.43565 148.809 9.40276L149.609 9.28583C149.697 9.27486 149.773 9.21639 149.814 9.136L150.172 8.41246C150.27 8.21147 150.559 8.21147 150.658 8.41246H150.65Z" fill="#FF5100"/>
<path d="M190.895 133.181L191.348 134.095C191.399 134.197 191.494 134.267 191.604 134.281L192.612 134.427C192.894 134.468 193.003 134.811 192.802 135.008L192.071 135.721C191.991 135.798 191.955 135.911 191.973 136.024L192.145 137.029C192.192 137.307 191.9 137.523 191.648 137.391L190.745 136.916C190.646 136.865 190.526 136.865 190.427 136.916L189.524 137.391C189.272 137.523 188.98 137.311 189.027 137.029L189.199 136.024C189.217 135.915 189.181 135.801 189.101 135.721L188.37 135.008C188.169 134.811 188.278 134.468 188.56 134.427L189.568 134.281C189.678 134.267 189.777 134.194 189.824 134.095L190.277 133.181C190.401 132.929 190.763 132.929 190.891 133.181H190.895Z" fill="#FF5100"/>
<path d="M120.934 3.42714C120.934 3.42714 120.909 3.42714 120.894 3.4308C125.016 4.51611 128.228 8.0644 128.674 12.5555C129.248 18.3292 125.031 23.4781 119.257 24.0518C115.529 24.4209 112.069 22.7984 109.924 20.0504C111.696 25.762 117.294 29.6392 123.477 29.0216C130.545 28.32 135.705 22.02 135.003 14.9527C134.301 7.88534 128.001 2.72553 120.934 3.42714Z" fill="#FF5100"/>
<g opacity="0.6">
<path d="M120.934 3.42714C120.934 3.42714 120.909 3.42714 120.894 3.4308C125.016 4.51611 128.228 8.0644 128.674 12.5555C129.248 18.3292 125.031 23.4781 119.257 24.0518C115.529 24.4209 112.069 22.7984 109.924 20.0504C111.696 25.762 117.294 29.6392 123.477 29.0216C130.545 28.32 135.705 22.02 135.003 14.9527C134.301 7.88534 128.001 2.72553 120.934 3.42714Z" fill="#FF5100"/>
</g>
<path d="M137.703 42.0547C137.755 42.0547 137.798 45.5555 137.798 49.8748C137.798 54.1941 137.755 57.6949 137.703 57.6949C137.652 57.6949 137.608 54.1941 137.608 49.8748C137.608 45.5555 137.652 42.0547 137.703 42.0547Z" fill="black"/>
<path d="M138.04 56.5887L138.478 57.4803C138.526 57.579 138.621 57.6448 138.727 57.6631L139.71 57.8056C139.984 57.8458 140.09 58.1783 139.892 58.372L139.18 59.0663C139.103 59.143 139.067 59.2527 139.085 59.3586L139.253 60.338C139.3 60.6084 139.015 60.8167 138.771 60.6888L137.89 60.2284C137.795 60.1772 137.678 60.1772 137.579 60.2284L136.699 60.6888C136.454 60.8167 136.169 60.6084 136.216 60.338L136.384 59.3586C136.403 59.2527 136.366 59.1394 136.289 59.0663L135.577 58.372C135.379 58.1783 135.489 57.8458 135.759 57.8056L136.742 57.6631C136.852 57.6484 136.943 57.579 136.991 57.4803L137.429 56.5887C137.55 56.3402 137.904 56.3402 138.025 56.5887H138.04Z" fill="#FF5100"/>
<path d="M161.668 31.5776C161.003 29.0342 157.784 27.3533 155.16 27.4556C152.536 27.5579 150.866 28.8625 149.507 31.1099L149.514 31.1793C149.116 28.4422 147.369 25.9171 144.91 24.6382C142.18 23.2166 138.686 23.3884 136.107 25.073C133.53 26.7576 131.97 29.8857 132.175 32.9589C129.792 32.5533 127.387 34.5814 127.07 36.9786C126.755 39.3758 128.294 41.8022 130.464 42.862C132.639 43.9254 135.284 43.7426 137.484 42.7341C138.745 45.0545 141.438 46.5162 144.069 46.3116C146.704 46.107 149.134 44.2469 150.022 41.7584C151.831 42.5038 153.914 42.9095 155.723 42.1603C157.532 41.4112 158.781 39.1602 157.904 37.4135C160.517 37.1357 162.33 34.1173 161.664 31.5776H161.668Z" fill="white"/>
<path d="M161.668 31.5771C161.668 31.5771 161.716 31.7488 161.781 32.085C161.818 32.4248 161.865 32.9438 161.738 33.6015C161.61 34.252 161.321 35.0523 160.725 35.8197C160.13 36.5688 159.18 37.3142 157.915 37.4641L157.955 37.391C158.314 38.0999 158.343 39.0098 158.025 39.8467C157.707 40.6798 157.089 41.4582 156.242 41.9734C155.383 42.4814 154.323 42.6787 153.249 42.6239C152.171 42.5654 151.074 42.2694 150.004 41.8346L150.102 41.7907C149.708 42.8907 148.995 43.9248 148.034 44.7361C147.077 45.5473 145.867 46.1503 144.541 46.3512C141.888 46.7678 138.855 45.3938 137.411 42.7883L137.528 42.8285C136.509 43.2926 135.383 43.5923 134.217 43.6654C133.055 43.7384 131.846 43.574 130.731 43.0953C129.617 42.6239 128.637 41.8053 127.947 40.7748C127.256 39.748 126.854 38.4836 126.96 37.2119C127.062 35.9183 127.753 34.727 128.718 33.9231C129.675 33.1118 130.965 32.666 132.197 32.8816L132.087 32.9803C131.926 30.3602 132.997 27.8132 134.74 26.0884C135.613 25.2259 136.662 24.5645 137.773 24.1626C138.884 23.7533 140.053 23.5815 141.19 23.6181C142.326 23.651 143.426 23.9031 144.424 24.3307C144.917 24.5536 145.388 24.8094 145.823 25.109C146.254 25.4123 146.656 25.7449 147.022 26.1066C148.476 27.561 149.328 29.4064 149.587 31.186L149.452 31.2007C149.452 31.1751 149.448 31.1532 149.445 31.1312V31.1093L149.456 31.091C150.073 30.0788 150.804 29.1835 151.681 28.555C152.554 27.9228 153.545 27.5829 154.484 27.477C155.423 27.3454 156.315 27.4477 157.097 27.6451C157.882 27.8461 158.562 28.1457 159.136 28.4855C160.283 29.1689 160.956 29.9984 161.292 30.605C161.453 30.9156 161.559 31.1605 161.602 31.3322C161.654 31.504 161.679 31.5917 161.679 31.5917C161.679 31.5917 161.643 31.5076 161.584 31.3395C161.533 31.1678 161.423 30.9266 161.255 30.6233C160.912 30.0276 160.236 29.2164 159.096 28.5477C158.529 28.2151 157.849 27.9228 157.075 27.7328C156.3 27.5464 155.423 27.4477 154.498 27.5829C153.574 27.6889 152.606 28.0324 151.754 28.6536C150.899 29.2712 150.179 30.1555 149.576 31.1605L149.587 31.1203C149.587 31.1422 149.591 31.1641 149.594 31.1897L149.459 31.2043C149.196 29.4539 148.352 27.6414 146.92 26.2163C146.561 25.8618 146.163 25.5366 145.739 25.2369C145.312 24.9446 144.848 24.6961 144.365 24.4768C143.386 24.0639 142.308 23.8154 141.193 23.7862C138.975 23.7131 136.585 24.4987 134.875 26.2163C133.169 27.9082 132.123 30.4113 132.284 32.9693L132.292 33.0899L132.175 33.068C131.009 32.8634 129.774 33.2909 128.849 34.0729C127.921 34.8513 127.256 35.9951 127.161 37.2339C127.055 38.458 127.442 39.6822 128.115 40.6762C128.783 41.6774 129.737 42.4704 130.819 42.9309C131.901 43.3949 133.081 43.5594 134.217 43.49C135.357 43.4205 136.461 43.1282 137.462 42.6714L137.539 42.6349L137.579 42.7079C138.975 45.244 141.939 46.5924 144.522 46.1905C145.816 45.9968 147 45.4121 147.939 44.6191C148.878 43.8261 149.58 42.8176 149.967 41.7469L149.993 41.6738L150.066 41.703C151.126 42.1379 152.204 42.4339 153.263 42.4923C154.316 42.5508 155.354 42.3608 156.183 41.8711C157.009 41.3778 157.612 40.6214 157.926 39.8138C158.24 39.0062 158.211 38.1292 157.875 37.4458L157.842 37.38L157.915 37.3727C159.147 37.2375 160.082 36.514 160.674 35.7831C161.266 35.0303 161.562 34.2483 161.697 33.6052C161.946 32.2933 161.639 31.588 161.683 31.588L161.668 31.5771Z" fill="#263238"/>
<path d="M91.1372 46.9453C91.1884 46.9453 91.2323 50.4461 91.2323 54.7654C91.2323 59.0848 91.1884 62.5856 91.1372 62.5856C91.0861 62.5856 91.0422 59.0848 91.0422 54.7654C91.0422 50.4461 91.0861 46.9453 91.1372 46.9453Z" fill="black"/>
<path d="M74.7478 50.2031C74.799 50.2031 74.8429 60.0989 74.8429 72.3041C74.8429 84.5093 74.799 94.4088 74.7478 94.4088C74.6967 94.4088 74.6528 84.513 74.6528 72.3041C74.6528 60.0952 74.6967 50.2031 74.7478 50.2031Z" fill="black"/>
<path d="M107.768 31.8636C106.777 28.0778 101.983 25.5746 98.0767 25.7244C94.1666 25.8742 91.6854 27.822 89.6572 31.1693L89.6682 31.2716C89.0762 27.1971 86.4707 23.4332 82.8092 21.5293C78.742 19.4098 73.5383 19.6693 69.7013 22.1798C65.8607 24.6903 63.5402 29.3494 63.8472 33.9246C60.2952 33.3216 56.7141 36.34 56.2427 39.9139C55.7713 43.4841 58.0625 47.0945 61.3002 48.6805C64.5342 50.2628 68.4808 49.9924 71.755 48.4905C73.6333 51.9474 77.642 54.1217 81.5667 53.8184C85.4877 53.5114 89.1128 50.7415 90.4319 47.0361C93.1251 48.1433 96.2313 48.7536 98.9208 47.6354C101.61 46.5172 103.478 43.1662 102.173 40.5644C106.065 40.1514 108.765 35.6567 107.775 31.8709L107.768 31.8636Z" fill="#F5F5F5"/>
<path d="M107.768 31.8628C107.768 31.8628 107.833 32.1186 107.928 32.6229C107.983 33.1309 108.045 33.8983 107.859 34.8776C107.669 35.846 107.234 37.03 106.346 38.1701C105.904 38.7365 105.327 39.2737 104.632 39.7195C103.938 40.1617 103.098 40.5015 102.173 40.6038L102.213 40.5308C102.739 41.5795 102.787 42.928 102.312 44.1667C101.837 45.3982 100.927 46.553 99.6625 47.3131C98.3908 48.0658 96.8159 48.3545 95.2226 48.2741C93.622 48.1864 91.9922 47.7443 90.399 47.0975L90.4976 47.0536C89.9093 48.6871 88.8496 50.2182 87.4281 51.4241C86.0065 52.63 84.2123 53.5217 82.2427 53.8177C80.273 54.121 78.1645 53.7738 76.2862 52.8566C74.4079 51.943 72.7306 50.4557 71.6709 48.5299L71.7878 48.5701C70.2749 49.2608 68.6013 49.7066 66.8728 49.8126C65.148 49.9186 63.3538 49.6737 61.702 48.9648C60.0503 48.2632 58.5959 47.05 57.5727 45.5225C56.5495 44.0023 55.9539 42.1277 56.1147 40.2421C56.2645 38.3272 57.2913 36.5659 58.7165 35.3746C60.1344 34.176 62.0419 33.5109 63.8581 33.8288L63.7484 33.9275C63.5072 30.043 65.0968 26.2572 67.6841 23.6956C68.9813 22.4129 70.5344 21.4336 72.1861 20.8379C73.8378 20.2313 75.5736 19.9719 77.2582 20.0267C78.9465 20.0742 80.5763 20.4506 82.0599 21.0791C82.7944 21.4116 83.4924 21.7917 84.1392 22.2339C84.7787 22.687 85.378 23.1803 85.9188 23.7175C88.0822 25.8772 89.3465 28.6179 89.7339 31.2599L89.5987 31.2745C89.5987 31.238 89.5914 31.2051 89.5877 31.1722V31.1503L89.5987 31.132C90.5122 29.6264 91.6012 28.2963 92.9021 27.3608C94.1957 26.4253 95.6684 25.9137 97.0607 25.7566C98.453 25.5592 99.7795 25.7127 100.945 26.0014C102.111 26.2974 103.127 26.7432 103.975 27.2475C105.681 28.2597 106.686 29.4912 107.187 30.3938C107.428 30.8543 107.589 31.216 107.654 31.4755C107.735 31.7276 107.771 31.8592 107.771 31.8592C107.771 31.8592 107.724 31.7313 107.636 31.4791C107.563 31.2233 107.399 30.8652 107.154 30.4084C106.646 29.5168 105.637 28.3036 103.938 27.3096C103.094 26.8126 102.082 26.3741 100.923 26.0891C99.7685 25.8077 98.4566 25.6616 97.0753 25.8625C95.6977 26.0233 94.2506 26.5313 92.9752 27.4558C91.6962 28.3803 90.6219 29.6995 89.7193 31.1978L89.7302 31.1576C89.7302 31.1905 89.7375 31.2233 89.7412 31.2599L89.606 31.2745C89.215 28.6617 87.9579 25.9539 85.8165 23.8235C85.2793 23.2936 84.691 22.8076 84.0552 22.3618C83.4157 21.9232 82.725 21.5505 82.0015 21.2253C80.5398 20.6077 78.9282 20.235 77.2619 20.1911C75.5992 20.14 73.8853 20.3958 72.2592 20.9987C70.6294 21.5907 69.1019 22.5554 67.8229 23.8198C65.2759 26.3486 63.7119 30.0869 63.9494 33.9092L63.9567 34.0298L63.8398 34.0079C62.0894 33.7009 60.233 34.3404 58.8517 35.5134C57.4594 36.6792 56.4655 38.393 56.3193 40.253C56.1622 42.0875 56.7432 43.9219 57.7481 45.4092C58.753 46.9074 60.1746 48.0951 61.7934 48.7821C63.4122 49.48 65.1772 49.7212 66.8765 49.6189C68.5794 49.5166 70.2311 49.0781 71.7257 48.3984L71.8024 48.3618L71.8426 48.4349C72.8768 50.3242 74.5248 51.7895 76.3739 52.6885C78.223 53.5911 80.2949 53.9346 82.228 53.6423C84.1648 53.3536 85.9335 52.4765 87.333 51.2926C88.7399 50.1049 89.7851 48.5994 90.3661 46.9951L90.3917 46.9221L90.4647 46.9513C92.0434 47.5981 93.6549 48.0366 95.2372 48.128C96.8085 48.212 98.3616 47.927 99.6041 47.1961C100.839 46.4543 101.742 45.3215 102.21 44.1156C102.677 42.9024 102.637 41.5941 102.129 40.5673L102.096 40.5015L102.169 40.4942C103.079 40.3955 103.905 40.0703 104.592 39.6355C105.279 39.1969 105.849 38.6707 106.291 38.1116C107.176 36.9898 107.614 35.8168 107.812 34.8557C108.009 33.8873 107.954 33.1199 107.907 32.6156C107.87 32.3635 107.826 32.1735 107.804 32.0456C107.782 31.9177 107.771 31.8519 107.771 31.8519L107.768 31.8628Z" fill="#263238"/>
<path d="M75.285 93.9359L76.0817 95.5511C76.1694 95.7302 76.3375 95.8508 76.5348 95.88L78.3144 96.1394C78.8078 96.2125 79.0051 96.8192 78.647 97.1663L77.357 98.4234C77.2145 98.5622 77.1487 98.7596 77.1853 98.9569L77.4886 100.729C77.5726 101.223 77.0574 101.595 76.6152 101.365L75.0219 100.528C74.8465 100.437 74.6382 100.437 74.4628 100.528L72.8696 101.365C72.4274 101.599 71.9122 101.223 71.9962 100.729L72.2995 98.9569C72.3324 98.7632 72.2666 98.5622 72.1278 98.4234L70.8378 97.1663C70.4797 96.8192 70.677 96.2125 71.1703 96.1394L72.95 95.88C73.1473 95.8508 73.3154 95.7302 73.4031 95.5511L74.1997 93.9359C74.419 93.4901 75.0585 93.4901 75.2777 93.9359H75.285Z" fill="#FF5100"/>
<path d="M91.4367 61.8465L91.8752 62.7382C91.9227 62.8368 92.0177 62.9026 92.1237 62.9209L93.1067 63.0634C93.3808 63.1036 93.4867 63.4361 93.2894 63.6298L92.5768 64.3241C92.5001 64.4009 92.4635 64.5105 92.4818 64.6165L92.6499 65.5958C92.6974 65.8662 92.4124 66.0745 92.1675 65.9466L91.2905 65.4862C91.1955 65.435 91.0786 65.435 90.9799 65.4862L90.1029 65.9466C89.8581 66.0745 89.573 65.8662 89.6205 65.5958L89.7886 64.6165C89.8069 64.5105 89.7704 64.3972 89.6936 64.3241L88.981 63.6298C88.7837 63.4361 88.8933 63.1036 89.1637 63.0634L90.1467 62.9209C90.2564 62.9063 90.3477 62.8368 90.3952 62.7382L90.8337 61.8465C90.9543 61.598 91.3088 61.598 91.4294 61.8465H91.4367Z" fill="#FF5100"/>
<path d="M197.714 33.6055C197.765 33.6055 197.809 44.5427 197.809 58.0269C197.809 71.5111 197.765 82.452 197.714 82.452C197.663 82.452 197.619 71.5185 197.619 58.0269C197.619 44.5354 197.663 33.6055 197.714 33.6055Z" fill="black"/>
<path d="M198.251 83.3305L199.048 84.9456C199.135 85.1247 199.304 85.2453 199.501 85.2745L201.281 85.534C201.774 85.6071 201.971 86.2137 201.613 86.5608L200.323 87.8179C200.181 87.9568 200.115 88.1541 200.151 88.3514L200.455 90.1237C200.539 90.6171 200.023 90.9898 199.581 90.7596L197.988 89.9228C197.813 89.8314 197.604 89.8314 197.429 89.9228L195.836 90.7596C195.393 90.9935 194.878 90.6171 194.962 90.1237L195.266 88.3514C195.298 88.1577 195.233 87.9568 195.094 87.8179L193.804 86.5608C193.446 86.2137 193.643 85.6071 194.136 85.534L195.916 85.2745C196.113 85.2453 196.281 85.1247 196.369 84.9456L197.166 83.3305C197.385 82.8846 198.025 82.8846 198.244 83.3305H198.251Z" fill="#FF5100"/>
<path d="M165.962 19.1968C166.821 15.9153 170.976 13.7447 174.363 13.8762C177.751 14.0078 179.903 15.6924 181.661 18.5939L181.653 18.6852C182.165 15.1516 184.423 11.892 187.599 10.2402C191.125 8.40578 195.634 8.62869 198.96 10.803C202.289 12.9773 204.302 17.0189 204.036 20.9838C207.113 20.4612 210.219 23.0777 210.624 26.1765C211.034 29.2716 209.046 32.4033 206.239 33.7737C203.433 35.144 200.016 34.9102 197.177 33.6092C195.547 36.6057 192.072 38.4913 188.673 38.2246C185.275 37.9578 182.132 35.557 180.988 32.3449C178.653 33.3059 175.96 33.8322 173.632 32.8638C171.301 31.8954 169.682 28.9903 170.815 26.7319C167.442 26.3738 165.099 22.4784 165.958 19.1968H165.962Z" fill="#F5F5F5"/>
<path d="M165.962 19.1961C165.962 19.1961 165.955 19.2546 165.936 19.3642C165.918 19.4738 165.882 19.6383 165.849 19.8575C165.808 20.296 165.765 20.9611 165.933 21.7979C166.104 22.6311 166.485 23.6433 167.252 24.6154C167.636 25.1014 168.129 25.5545 168.725 25.9345C169.32 26.3109 170.033 26.5923 170.822 26.6764L170.895 26.6837L170.862 26.7494C170.424 27.6374 170.387 28.7703 170.793 29.819C171.198 30.8641 171.977 31.8435 173.048 32.483C174.126 33.1152 175.467 33.3637 176.83 33.2869C178.196 33.2065 179.596 32.8265 180.963 32.2674L181.036 32.2382L181.061 32.3112C181.566 33.6999 182.472 35.0044 183.689 36.0313C184.902 37.0581 186.433 37.8146 188.11 38.0631C189.784 38.3188 191.578 38.0192 193.179 37.2372C194.779 36.4588 196.205 35.1871 197.1 33.5537L197.14 33.4806L197.217 33.5171C198.51 34.1055 199.939 34.4855 201.416 34.5732C202.888 34.6609 204.416 34.4526 205.815 33.8497C207.215 33.254 208.446 32.2272 209.316 30.9299C210.182 29.64 210.686 28.054 210.551 26.4681C210.427 24.8602 209.565 23.3766 208.359 22.368C207.164 21.3558 205.56 20.8003 204.047 21.0671L203.93 21.089L203.937 20.9684C204.142 17.6576 202.79 14.42 200.582 12.2311C199.475 11.1348 198.152 10.3016 196.742 9.78636C195.331 9.26745 193.848 9.04454 192.408 9.08839C190.964 9.12859 189.568 9.44651 188.304 9.98369C187.679 10.2687 187.08 10.5903 186.524 10.9703C185.976 11.354 185.465 11.7779 185.001 12.2347C183.144 14.0801 182.055 16.4262 181.715 18.6881L181.58 18.6735C181.58 18.6406 181.588 18.6114 181.588 18.5858L181.599 18.626C180.813 17.3288 179.885 16.185 178.777 15.3847C177.674 14.5808 176.42 14.1422 175.225 14.0034C174.031 13.828 172.894 13.9559 171.893 14.1971C170.888 14.4455 170.015 14.8256 169.28 15.2531C167.807 16.1155 166.934 17.1643 166.492 17.939C166.28 18.3337 166.137 18.6443 166.072 18.8635C165.995 19.0791 165.955 19.1924 165.955 19.1924C165.955 19.1924 165.984 19.0792 166.053 18.8599C166.112 18.637 166.251 18.3191 166.459 17.9207C166.89 17.1351 167.763 16.068 169.243 15.191C169.978 14.7525 170.859 14.3651 171.871 14.1094C172.879 13.8572 174.031 13.7257 175.24 13.8974C176.45 14.0326 177.725 14.4748 178.851 15.286C179.98 16.0973 180.922 17.252 181.715 18.5566L181.726 18.5749V18.5968C181.723 18.626 181.719 18.6553 181.715 18.6845L181.58 18.6699C181.916 16.3786 183.013 13.9997 184.891 12.1251C185.362 11.661 185.878 11.2298 186.433 10.8388C186.992 10.4514 187.602 10.1225 188.238 9.83386C189.525 9.28938 190.939 8.96049 192.404 8.9203C193.866 8.87279 195.371 9.0957 196.804 9.62557C198.24 10.1445 199.585 10.9923 200.71 12.1068C202.954 14.3323 204.332 17.6138 204.123 20.9867L204.014 20.888C205.592 20.6103 207.251 21.1877 208.479 22.2291C209.718 23.2669 210.606 24.7944 210.738 26.4571C210.876 28.0942 210.358 29.7204 209.47 31.0396C208.582 32.3661 207.321 33.4185 205.885 34.0251C204.452 34.6427 202.896 34.8546 201.397 34.7596C199.895 34.6682 198.448 34.2809 197.133 33.6816L197.25 33.6414C196.333 35.3114 194.874 36.605 193.245 37.3943C191.611 38.191 189.784 38.4906 188.074 38.2275C186.364 37.968 184.807 37.197 183.575 36.1482C182.34 35.1031 181.419 33.7729 180.912 32.3551L181.01 32.3989C179.629 32.9617 178.218 33.3454 176.826 33.4185C175.441 33.4879 174.074 33.2358 172.971 32.5853C171.875 31.9239 171.085 30.9226 170.672 29.8519C170.259 28.7776 170.303 27.6082 170.76 26.6946L170.8 26.7677C169.996 26.6764 169.269 26.384 168.666 26.0003C168.063 25.613 167.566 25.1489 167.179 24.6556C166.408 23.6653 166.035 22.6384 165.867 21.7979C165.702 20.9501 165.757 20.2814 165.808 19.8429C165.893 19.4044 165.951 19.1851 165.951 19.1851L165.962 19.1961Z" fill="#263238"/>
<path d="M181.617 33.0938C181.668 33.0938 181.712 37.9832 181.712 44.0163C181.712 50.0495 181.668 54.9389 181.617 54.9389C181.566 54.9389 181.522 50.0495 181.522 44.0163C181.522 37.9832 181.566 33.0938 181.617 33.0938Z" fill="black"/>
<path d="M181.953 53.8309L182.392 54.7225C182.439 54.8212 182.534 54.887 182.64 54.9053L183.623 55.0478C183.897 55.088 184.003 55.4205 183.806 55.6142L183.093 56.3085C183.016 56.3852 182.98 56.4949 182.998 56.6008L183.166 57.5802C183.214 57.8506 182.929 58.0589 182.684 57.931L181.803 57.4705C181.708 57.4194 181.591 57.4194 181.493 57.4705L180.612 57.931C180.367 58.0589 180.082 57.8506 180.13 57.5802L180.298 56.6008C180.316 56.4949 180.279 56.3816 180.203 56.3085L179.49 55.6142C179.293 55.4205 179.402 55.088 179.673 55.0478L180.656 54.9053C180.765 54.8906 180.857 54.8212 180.904 54.7225L181.343 53.8309C181.463 53.5824 181.818 53.5824 181.938 53.8309H181.953Z" fill="#FF5100"/>
<path d="M170.475 134.2C169.463 130.655 167.756 122.656 167.53 120.836C166.766 114.69 166.561 106.468 163.937 102.594C161.021 98.2933 155.547 97.8219 154.031 97.6282C152.514 97.4345 137.455 98.0375 137.455 98.0375C137.455 98.0375 129.876 106.625 127.958 111.642C126.039 116.66 125.48 139.524 125.48 139.524L126.339 146.471L162.125 156.476C162.125 156.476 168.768 153.743 170.49 147.184C172.207 140.624 171.352 137.255 170.479 134.196L170.475 134.2Z" fill="#FF5100"/>
<path d="M125.359 133.267C119.432 129.825 107.709 133.238 104.355 136.366C103.057 134.846 101.72 133.293 99.9622 132.35C98.2045 131.403 95.906 131.192 94.2798 132.35C92.8072 133.399 92.2152 135.284 91.8899 137.064C91.3272 140.119 91.276 143.265 91.7401 146.335C92.1713 149.203 93.4028 152.386 96.1508 153.318C97.7112 153.848 99.4396 153.508 100.985 152.931C102.527 152.35 103.986 151.535 105.568 151.071C110.234 149.708 123.638 155.445 129.635 152.898L125.367 133.271L125.359 133.267Z" fill="#FF5100"/>
<path d="M98.6175 152.372C98.6029 152.35 98.9354 152.252 99.2825 151.791C99.6297 151.331 99.9147 150.527 100.065 149.507C100.372 147.457 100.247 144.574 99.9622 141.424C99.8892 140.635 99.8124 139.867 99.7284 139.122C99.6407 138.38 99.5822 137.66 99.4543 136.991C99.1948 135.658 98.665 134.503 97.967 133.754C97.2654 133.001 96.4505 132.676 95.8877 132.592C95.3177 132.504 94.9961 132.606 94.9961 132.581C94.9961 132.573 95.0728 132.555 95.2263 132.526C95.3798 132.508 95.6064 132.482 95.9023 132.519C96.4834 132.581 97.3312 132.895 98.0693 133.659C98.8038 134.422 99.3593 135.595 99.6297 136.955C99.7686 137.638 99.827 138.358 99.9184 139.1C100.002 139.842 100.083 140.613 100.156 141.406C100.445 144.563 100.547 147.457 100.203 149.526C100.035 150.556 99.7247 151.375 99.3483 151.835C99.1656 152.069 98.9683 152.2 98.8404 152.281C98.7015 152.35 98.6248 152.379 98.6248 152.372H98.6175Z" fill="black"/>
<g opacity="0.3">
<path d="M111.331 143.66C111.974 141.233 112.259 138.653 111.674 136.212C111.517 135.562 111.291 134.904 110.837 134.411C110.384 133.917 109.657 133.629 109.025 133.848C108.882 133.899 108.744 133.976 108.649 134.096C108.448 134.363 108.528 134.736 108.619 135.057C109.463 138.072 110.308 141.083 111.155 144.098C111.283 143.842 111.407 143.586 111.535 143.331" fill="black"/>
</g>
<path d="M166.334 52.9857C166.433 51.8346 166.725 50.7055 167.197 49.653C167.38 49.2437 167.789 48.7723 168.187 48.9806C168.447 49.1158 168.501 49.463 168.498 49.7553C168.49 50.647 168.275 51.5386 167.877 52.3353C168.75 51.7688 169.843 51.5496 170.866 51.7396C171.195 51.8017 171.564 51.9479 171.644 52.2731C171.754 52.697 171.304 53.0369 170.921 53.2415C169.773 53.8554 168.629 54.473 167.482 55.0869" fill="#FFBF9D"/>
<g opacity="0.2">
<path d="M171.644 52.2692C171.56 51.9476 171.191 51.7978 170.866 51.7357C169.843 51.5457 168.75 51.7649 167.877 52.3313C168.279 51.5347 168.49 50.6431 168.498 49.7514C168.498 49.4591 168.447 49.1119 168.187 48.9767C167.789 48.7684 167.38 49.2398 167.197 49.6491C166.725 50.7015 166.433 51.8344 166.334 52.9818L167.482 55.083C168.629 54.4691 169.773 53.8515 170.921 53.2376C171.304 53.0293 171.754 52.6895 171.644 52.2692Z" fill="black"/>
</g>
<path d="M169.627 55.03C163.831 48.1856 153.775 45.5289 149.401 46.0624C149.145 46.0953 133.143 44.926 129.247 67.0671C129.247 67.0671 126.887 76.3344 126.766 77.4087C126.755 77.5037 126.722 77.6535 126.678 77.8509C125.023 85.068 128.308 94.6057 136.797 97.6387L143.758 99.3306C148.739 100.336 157.038 99.3379 161.153 96.2318C166.148 92.4643 172.295 79.5136 173.241 75.0736C174.1 71.0576 175.419 61.8781 169.623 55.0337L169.627 55.03Z" fill="#FFBF9D"/>
<path d="M168.531 81.3189C168.757 81.2897 177.56 80.3761 175.032 88.357C172.503 96.3416 165.235 91.5033 165.293 91.2695C165.352 91.0356 168.531 81.3153 168.531 81.3153V81.3189Z" fill="#FFBF9D"/>
<path d="M168.881 88.7768C168.914 88.7658 168.962 88.8827 169.115 89.0216C169.261 89.1568 169.543 89.303 169.894 89.2847C170.603 89.2518 171.458 88.4113 171.83 87.337C172.02 86.7925 172.072 86.2371 172.013 85.7437C171.969 85.2468 171.783 84.8484 171.48 84.6877C171.184 84.5122 170.899 84.6328 170.771 84.779C170.635 84.9215 170.635 85.0531 170.603 85.0531C170.581 85.064 170.504 84.9106 170.632 84.6767C170.694 84.5634 170.811 84.4465 170.99 84.3734C171.173 84.3003 171.403 84.3076 171.618 84.4026C172.072 84.5817 172.357 85.1408 172.419 85.6816C172.506 86.2334 172.463 86.8656 172.251 87.4759C171.827 88.6781 170.847 89.6136 169.897 89.5917C169.441 89.5661 169.126 89.3286 168.987 89.1276C168.849 88.9193 168.86 88.7768 168.885 88.7695L168.881 88.7768Z" fill="#FF9A6C"/>
<path d="M132.81 71.9293C132.931 72.2326 134.594 71.8014 136.413 72.5395C138.24 73.2485 139.198 74.7211 139.487 74.5786C139.622 74.5201 139.571 74.0341 139.158 73.3763C138.756 72.7259 137.944 71.922 136.808 71.4725C135.672 71.023 134.55 71.0559 133.83 71.2642C133.099 71.4688 132.748 71.7904 132.81 71.9329V71.9293Z" fill="#263238"/>
<path d="M151.432 74.4109C151.6 74.6922 153.175 74.0016 155.087 74.4364C157.001 74.8457 158.185 76.1466 158.445 75.9603C158.569 75.8799 158.445 75.4121 157.93 74.8274C157.429 74.2464 156.497 73.585 155.306 73.3219C154.111 73.0588 153.011 73.2707 152.331 73.5886C151.644 73.9066 151.348 74.283 151.432 74.4109Z" fill="#263238"/>
<path d="M155.105 67.5714C155.266 68.0903 156.764 68.0793 158.427 68.5288C160.104 68.9308 161.416 69.658 161.803 69.2779C161.979 69.0916 161.847 68.6165 161.35 68.0684C160.86 67.5239 159.987 66.9502 158.898 66.6724C157.809 66.3947 156.768 66.4824 156.077 66.7236C155.379 66.9648 155.035 67.3229 155.101 67.5677L155.105 67.5714Z" fill="#263238"/>
<path d="M135.924 62.7354C136.085 63.2543 137.583 63.2434 139.245 63.6929C140.923 64.0948 142.235 64.822 142.622 64.442C142.797 64.2556 142.666 63.7806 142.169 63.2324C141.679 62.6879 140.806 62.1142 139.717 61.8365C138.628 61.5588 137.586 61.6465 136.896 61.8877C136.198 62.1288 135.854 62.4833 135.92 62.7318L135.924 62.7354Z" fill="#263238"/>
<path d="M143.7 81.2621C143.696 81.3571 143.313 81.4594 142.724 81.2475C142.436 81.1379 142.099 80.9332 141.829 80.5897C141.559 80.2462 141.376 79.7712 141.398 79.2523C141.409 78.7297 141.686 78.2327 142.041 77.9587C142.392 77.6736 142.816 77.564 143.155 77.6005C143.506 77.6444 143.678 77.7613 143.813 77.8052C143.941 77.8563 144.029 77.8783 144.043 77.9294C144.062 77.9769 143.981 78.061 143.799 78.1012C143.623 78.145 143.364 78.1048 143.159 78.1414C142.739 78.1962 142.169 78.6347 142.158 79.2852C142.143 79.6104 142.246 79.9356 142.399 80.1841C142.556 80.4363 142.768 80.6299 142.969 80.7724C143.375 81.0538 143.711 81.1561 143.7 81.2658V81.2621Z" fill="#263238"/>
<path d="M149.254 82.9297C149.518 83.0429 149.733 83.2476 149.854 83.5618C149.974 83.8761 149.996 84.289 149.868 84.7604C149.744 85.2282 149.463 85.7434 149.013 86.2075C148.567 86.668 147.943 87.0736 147.201 87.2965C146.459 87.5158 145.717 87.5194 145.089 87.3806C144.46 87.2417 143.941 86.964 143.579 86.6387C143.218 86.3135 143.006 85.9554 142.936 85.6265C142.867 85.2976 142.933 85.0053 143.09 84.7678C143.422 84.289 144.003 84.0625 144.522 83.8359C145.056 83.6203 145.549 83.423 145.998 83.2878C146.448 83.1526 146.971 83.0466 147.533 82.937C148.096 82.842 148.706 82.7141 149.243 82.9333L149.254 82.9297Z" fill="#FF9A6C"/>
<g opacity="0.6">
<path d="M152.002 80.8754C151.458 80.8754 150.983 81.3541 150.895 81.8912C150.808 82.4284 151.052 82.9839 151.44 83.3676C151.886 83.8061 152.496 84.0399 153.095 84.1898C153.742 84.3469 154.411 84.4017 155.072 84.3396C155.653 84.2848 156.252 84.113 156.494 83.4078C156.618 83.0496 156.592 82.6477 156.45 82.2969C156.081 81.4016 155.251 81.186 154.4 80.9996C153.662 80.8352 152.679 80.6598 152.002 80.8827" fill="#FF5100"/>
</g>
<g opacity="0.6">
<path d="M134.908 78.154C135.409 78.3696 136.033 78.1175 136.326 77.6571C136.618 77.1966 136.611 76.59 136.403 76.0857C136.165 75.5084 135.697 75.0516 135.204 74.6825C134.67 74.2842 134.075 73.9699 133.443 73.7689C132.887 73.5899 132.27 73.5131 131.769 74.0686C131.513 74.35 131.382 74.7263 131.374 75.1064C131.36 76.0748 132.039 76.5973 132.748 77.1053C133.362 77.5474 134.199 78.0956 134.908 78.1577" fill="#FF5100"/>
</g>
<path d="M160.791 56.6191C160.809 56.6191 160.809 56.7579 160.784 57.021C160.744 57.2805 160.67 57.6678 160.477 58.1319C160.287 58.596 159.976 59.1442 159.494 59.6813C159.008 60.2112 158.346 60.7411 157.484 61.07C156.629 61.4025 155.584 61.5121 154.524 61.2929C153.468 61.0773 152.372 60.5401 151.549 59.6156C151.144 59.1551 150.8 58.607 150.607 57.9785C150.409 57.3572 150.376 56.6373 150.603 55.9723C150.822 55.3145 151.275 54.6933 151.948 54.3571C152.627 54.0136 153.464 54.0538 154.129 54.4338C154.465 54.6238 154.751 54.9162 154.926 55.2743C155.098 55.6288 155.149 56.0234 155.109 56.3925C155.039 57.138 154.604 57.7957 154.067 58.2196C152.971 59.0674 151.608 59.2867 150.402 59.1442C149.189 58.9943 148.096 58.4754 147.289 57.7556C146.883 57.3974 146.547 56.9882 146.284 56.557C146.024 56.1221 145.852 55.669 145.732 55.2268C145.611 54.7846 145.571 54.3461 145.553 53.9368C145.553 53.5276 145.578 53.1402 145.651 52.7857C145.783 52.0768 146.028 51.4995 146.284 51.0646C146.401 50.8417 146.543 50.6663 146.653 50.5091C146.781 50.363 146.883 50.2351 146.978 50.1437C147.172 49.9647 147.278 49.8806 147.292 49.8916C147.34 49.9318 146.905 50.2935 146.477 51.1669C146.265 51.5981 146.061 52.1609 145.966 52.8369C145.911 53.1731 145.904 53.5385 145.915 53.9222C145.944 54.3059 145.995 54.7079 146.119 55.1172C146.243 55.5228 146.415 55.9321 146.66 56.3231C146.908 56.7068 147.223 57.0722 147.603 57.3938C148.352 58.0369 149.364 58.4974 150.468 58.618C151.02 58.6764 151.593 58.6508 152.156 58.5156C152.715 58.3804 153.271 58.1429 153.72 57.7775C154.169 57.4157 154.495 56.9041 154.55 56.3304C154.615 55.7603 154.36 55.2049 153.848 54.9235C153.351 54.6385 152.697 54.6019 152.203 54.8577C151.692 55.1099 151.319 55.6032 151.136 56.144C150.95 56.6848 150.968 57.2732 151.133 57.814C151.294 58.3549 151.593 58.8482 151.951 59.2648C152.675 60.1016 153.665 60.6095 154.63 60.8251C155.598 61.0444 156.559 60.9676 157.352 60.6863C158.153 60.4085 158.792 59.9371 159.271 59.4584C159.746 58.9688 160.067 58.4681 160.283 58.0369C160.703 57.1636 160.744 56.6045 160.798 56.6118L160.791 56.6191Z" fill="#263238"/>
<path d="M136.797 97.6365L136.176 99.5403C138.01 102.175 155.602 98.7218 155.602 98.7218C156.446 97.6584 136.797 97.6328 136.797 97.6328V97.6365Z" fill="#FFBF9D"/>
<path d="M136.797 97.6367C136.797 97.6367 141.632 99.0144 146.229 98.2543C146.229 98.2543 143.331 99.917 139.395 99.3031C137.959 99.0802 136.636 98.2981 136.636 98.2981L136.801 97.6404" fill="#FF9A6C"/>
<path d="M164.654 79.2676L165.194 79.5636L164.654 79.856L164.361 80.3968L164.065 79.856L163.528 79.5636L164.065 79.2676L164.361 78.7305L164.654 79.2676Z" fill="white"/>
<path d="M162.461 81.6571L163.528 82.2382L162.461 82.8228L161.88 83.8862L161.295 82.8228L160.232 82.2382L161.295 81.6571L161.88 80.5938L162.461 81.6571Z" fill="white"/>
<path d="M144.771 87.3428C144.782 87.3136 144.994 87.3757 145.377 87.4305C145.761 87.4817 146.335 87.5073 147 87.3392C147.329 87.2515 147.679 87.109 148.012 86.8934C148.337 86.6704 148.67 86.3781 148.958 86.0346C149.24 85.6875 149.485 85.2782 149.605 84.8141C149.722 84.3573 149.74 83.8311 149.576 83.3706C149.496 83.1441 149.364 82.9468 149.185 82.8298C149.01 82.7129 148.79 82.68 148.56 82.7056C148.107 82.7567 147.643 82.9796 147.204 83.1368C146.335 83.4657 145.549 83.7617 144.877 84.0138C143.546 84.5035 142.713 84.7812 142.691 84.7337C142.669 84.6862 143.47 84.3171 144.778 83.7617C145.443 83.4839 146.221 83.1624 147.084 82.8042C147.522 82.6361 147.957 82.4059 148.52 82.3292C148.798 82.2926 149.123 82.3292 149.39 82.5082C149.656 82.6836 149.832 82.9577 149.93 83.2354C150.124 83.8019 150.095 84.3829 149.96 84.9054C149.817 85.4317 149.536 85.8848 149.222 86.2539C148.896 86.6229 148.545 86.9153 148.176 87.1528C147.8 87.3794 147.416 87.5182 147.055 87.595C146.331 87.7411 145.732 87.6681 145.341 87.5694C144.946 87.4707 144.752 87.3575 144.76 87.3392L144.771 87.3428Z" fill="#263238"/>
<path d="M152.083 77.2082C151.75 78.1108 152.244 79.1377 153.183 79.5031C154.118 79.8649 155.149 79.43 155.481 78.5238C155.814 77.6175 155.32 76.5907 154.385 76.2289C153.446 75.8671 152.419 76.302 152.086 77.2082H152.083Z" fill="#263238"/>
<path d="M154.835 77.2091C154.732 77.2456 154.677 77.3954 154.688 77.5014C154.703 77.6439 154.864 77.7535 155.003 77.717C155.142 77.6805 155.229 77.516 155.185 77.3772C155.138 77.2419 154.973 77.1616 154.835 77.2091Z" fill="white"/>
<path d="M119.491 70.7561C115.712 63.327 115.197 54.3119 118.098 46.4991C118.65 45.0154 119.545 43.3856 121.102 43.1006C122.842 42.7827 124.351 44.3248 125.253 45.8486C127.263 49.2507 128.075 53.2741 127.998 57.2243C127.917 61.1746 126.986 65.0664 125.699 68.8047C125.239 70.1458 124.647 71.571 123.426 72.2945" fill="#F5F5F5"/>
<path d="M123.653 48.5298C123.437 47.9196 123.108 47.2362 122.476 47.101C121.636 46.9219 120.996 47.8282 120.653 48.6175C117.66 55.4729 117.886 63.6585 121.252 70.3385L122.377 70.6637C125.707 63.8448 126.178 55.6849 123.649 48.5298H123.653Z" fill="#BA9080"/>
<path d="M116.026 70.9104C115.146 69.6278 114.25 68.3342 113.081 67.3037C111.912 66.2732 110.432 65.5204 108.875 65.5314C106.624 65.546 104.691 67.1064 103.171 68.7654C97.6417 74.7913 94.9486 83.0864 94.8353 91.2647C94.7914 94.5828 95.1788 98.0178 96.8232 100.901C97.1959 101.555 97.671 102.209 98.3689 102.498C99.1838 102.834 100.123 102.6 100.923 102.224C102.933 101.277 104.446 99.4831 105.466 97.5098C106.485 95.5365 107.062 93.3695 107.633 91.2208C109.251 85.1182 110.87 79.0119 112.493 72.9093" fill="#EBEBEB"/>
<path d="M109.997 73.2354L106.997 71.8906C105.272 73.0454 103.627 74.909 102.677 76.7581C101.731 78.6035 101.11 80.6024 100.529 82.594C99.5383 85.9888 98.6357 89.4238 98.2301 92.9392C98.146 93.6737 98.0839 94.4192 98.2228 95.1427C98.3616 95.8662 98.727 96.5752 99.3446 96.9808C100.269 97.5911 101.559 97.3755 102.465 96.7396C103.375 96.1038 103.982 95.1317 104.53 94.167C108.14 87.8159 110.26 80.533 109.993 73.2354H109.997Z" fill="#BA9080"/>
<path d="M116.355 70.8718C115.822 70.9814 108.425 73.0242 105.071 78.9733C102.429 83.6617 103.364 89.2126 105.027 91.6207C106.69 94.0325 112.602 100.358 117.251 100.091C117.251 100.091 126.85 99.8026 130.019 96.3713C133.187 92.9399 137.528 84.3634 134.016 77.0695C130.505 69.7755 123.244 69.4686 116.355 70.8718Z" fill="#EBEBEB"/>
<path d="M110.194 141.167C109.507 137.122 109.2 133.015 109.27 128.911L103.087 124.562C101.903 125.049 101.018 126.105 100.503 127.278C99.9878 128.451 99.7941 129.737 99.6589 131.012C99.1144 136.198 99.4579 141.445 100.255 146.598C100.474 148.005 100.792 149.525 101.877 150.446C103.141 151.516 105.053 151.403 106.595 150.796C107.98 150.252 109.259 149.32 109.96 148.008C111.06 145.958 110.581 143.462 110.194 141.167Z" fill="#EBEBEB"/>
<path d="M126.934 129.216C126.657 128.613 126.116 128.098 125.458 127.992L117.408 134.72C115.657 136.236 114.4 138.257 113.508 140.395C112.617 142.533 112.076 144.798 111.575 147.056C111.137 149.037 110.739 151.16 111.495 153.042C112.229 154.866 114.071 156.178 116.034 156.316C117.996 156.455 119.987 155.425 121.04 153.766C122.059 152.161 122.191 150.174 122.447 148.288C122.82 145.533 123.51 142.818 124.5 140.219C125.63 137.256 127.175 134.343 127.256 131.171C127.274 130.506 127.219 129.819 126.942 129.216H126.934Z" fill="#EBEBEB"/>
<path d="M131.107 113.083C130.884 108.189 128.842 101.915 127.479 97.2852L116.414 97.3692C112.288 101.857 113.395 98.8163 110.472 104.29C110.472 104.29 110.073 104.48 109.054 105.58C105.791 109.114 102.622 116.865 102.801 121.378C102.959 125.332 104.413 129.143 107.088 131.73C109.818 134.369 113.549 135.852 117.243 135.425C121.741 134.902 125.809 131.584 128.173 127.327C130.537 123.066 131.334 117.979 131.107 113.086V113.083Z" fill="#EBEBEB"/>
<path d="M104.055 114.317C102.9 114.291 101.563 113.79 100.565 113.209C100.331 113.07 100.035 112.917 99.805 113.063C99.6735 113.144 99.6113 113.293 99.5529 113.436C99.224 114.273 98.9134 115.12 98.6283 115.972C98.5078 116.326 98.3981 116.728 98.5626 117.065C98.716 117.375 99.0596 117.532 99.3811 117.657C100.832 118.219 101.42 118.545 102.977 118.621L104.055 114.313V114.317Z" fill="#FF5100"/>
<path d="M106.88 108.554C106.88 108.554 106.861 108.613 106.807 108.711C106.741 108.828 106.661 108.971 106.562 109.143C106.452 109.329 106.324 109.559 106.182 109.826C106.032 110.093 105.868 110.396 105.696 110.739C104.994 112.102 104.117 114.047 103.532 116.312C102.933 118.578 102.831 120.712 102.937 122.239C102.999 123.003 103.072 123.621 103.16 124.041C103.193 124.235 103.222 124.395 103.244 124.527C103.262 124.64 103.266 124.699 103.262 124.699C103.255 124.699 103.236 124.644 103.207 124.534C103.174 124.403 103.134 124.242 103.09 124.052C102.981 123.635 102.886 123.014 102.805 122.247C102.663 120.712 102.747 118.545 103.35 116.261C103.938 113.977 104.841 112.026 105.575 110.674C105.754 110.334 105.93 110.031 106.087 109.767C106.24 109.504 106.379 109.278 106.496 109.099C106.606 108.934 106.693 108.799 106.77 108.686C106.836 108.591 106.872 108.547 106.876 108.547L106.88 108.554Z" fill="black"/>
<path d="M101.278 115.796C100.978 115.694 100.646 115.694 100.346 115.793C100.152 115.855 99.944 116.019 99.9878 116.217C100.013 116.326 100.116 116.41 100.225 116.44C100.335 116.472 100.452 116.461 100.565 116.45C101.219 116.381 101.862 116.231 102.476 116.001C102.509 115.99 102.542 115.975 102.557 115.946C102.582 115.899 102.542 115.84 102.506 115.8C102.14 115.394 101.742 114.97 101.212 114.843C101.033 114.799 100.806 114.81 100.704 114.967C100.598 115.135 100.704 115.358 100.854 115.489C101.004 115.621 101.194 115.701 101.318 115.855" fill="#F5F5F5"/>
<path d="M114.561 96.2712C113.527 95.4234 112.149 95.1201 110.815 95.0251C106.507 94.7254 102.323 96.3333 98.0619 97.0167C96.4212 97.2798 94.6744 97.4369 93.3406 98.4272C92.1566 99.3042 91.4623 100.821 91.6341 102.282C91.8058 103.744 92.8692 105.082 94.2761 105.513C95.7342 105.962 97.2982 105.473 98.7416 104.983C103.605 103.342 108.469 101.701 113.333 100.061L115.635 99.8451C116.176 98.6209 115.595 97.1153 114.561 96.2675V96.2712Z" fill="#EBEBEB"/>
<path d="M114.561 96.2695C114.561 96.2695 114.875 96.4632 115.277 97.0223C115.471 97.3037 115.676 97.6801 115.8 98.1661C115.913 98.6484 115.946 99.2587 115.683 99.8653L115.672 99.8909H115.643C114.967 99.9603 114.192 100.037 113.34 100.117H113.355C110.921 100.943 107.804 102.003 104.227 103.22C102.436 103.827 100.529 104.473 98.5334 105.146C97.5358 105.475 96.4797 105.803 95.3578 105.774C94.7987 105.756 94.236 105.639 93.7207 105.383C93.2091 105.127 92.756 104.755 92.3979 104.302C91.7693 103.516 91.4404 102.5 91.5281 101.517C91.6012 100.534 92.0288 99.6132 92.661 98.9079C93.3005 98.199 94.1592 97.7568 95.0216 97.4973C95.8877 97.2342 96.7611 97.1136 97.6015 96.9857C99.2861 96.7409 100.865 96.3682 102.341 96.0283C103.817 95.6848 105.202 95.3815 106.481 95.1878C109.036 94.7859 111.17 94.8663 112.573 95.25C113.275 95.44 113.783 95.7031 114.101 95.9077C114.422 96.116 114.561 96.2586 114.561 96.2586C114.561 96.2586 114.517 96.233 114.44 96.1745C114.364 96.116 114.243 96.0356 114.082 95.937C113.757 95.7433 113.253 95.4948 112.555 95.3194C111.163 94.9613 109.043 94.9028 106.503 95.3194C105.232 95.5204 103.854 95.831 102.378 96.1818C100.901 96.5253 99.319 96.909 97.6271 97.1575C96.783 97.2891 95.9169 97.4096 95.0728 97.6691C94.2323 97.9212 93.4101 98.3524 92.7962 99.0285C92.1896 99.7045 91.7839 100.589 91.7145 101.524C91.6341 102.46 91.9447 103.425 92.544 104.177C92.8875 104.609 93.3187 104.963 93.8048 105.204C94.2908 105.442 94.8279 105.559 95.3651 105.573C96.4431 105.602 97.4846 105.281 98.4749 104.956C100.47 104.287 102.378 103.644 104.172 103.041C107.757 101.842 110.877 100.797 113.315 99.9822H113.322H113.329C114.181 99.9092 114.956 99.8397 115.635 99.7776L115.595 99.8068C115.855 99.2295 115.833 98.6375 115.73 98.1624C115.617 97.6874 115.423 97.311 115.241 97.0296C115.054 96.7482 114.875 96.5618 114.755 96.4339C114.696 96.3791 114.649 96.3353 114.612 96.2987C114.579 96.2695 114.565 96.2512 114.568 96.2512L114.561 96.2695Z" fill="#263238"/>
<path d="M95.9207 105.08C95.8914 105.061 96.1436 104.743 96.3519 104.148C96.5638 103.559 96.6881 102.653 96.3884 101.74C96.0888 100.826 95.4493 100.168 94.934 99.8211C94.4115 99.463 94.0204 99.357 94.0351 99.3241C94.0351 99.3131 94.1374 99.3241 94.3128 99.3826C94.4882 99.4374 94.733 99.5397 95.0108 99.7078C95.5662 100.04 96.2532 100.713 96.5748 101.681C96.889 102.649 96.7319 103.6 96.4834 104.195C96.3592 104.499 96.224 104.725 96.1143 104.871C96.0047 105.017 95.9353 105.087 95.9243 105.08H95.9207Z" fill="black"/>
<path d="M114.429 79.2138C114.597 79.6852 114.349 80.2077 113.878 80.3722C113.406 80.5403 112.884 80.2918 112.719 79.8204C112.555 79.349 112.8 78.8264 113.271 78.662C113.742 78.4939 114.265 78.7424 114.429 79.2138Z" fill="#263238"/>
<path d="M119.012 77.5927C119.18 78.0641 118.931 78.5866 118.46 78.7511C117.989 78.9192 117.466 78.6707 117.302 78.1993C117.134 77.7279 117.382 77.2053 117.853 77.0409C118.325 76.8728 118.847 77.1213 119.012 77.5927Z" fill="#263238"/>
<path d="M121.135 91.5761C121.135 91.5761 121.062 91.4738 120.967 91.2728C120.868 91.0718 120.737 90.7795 120.576 90.4141C120.258 89.6832 119.841 88.6673 119.425 87.5272C119.008 86.3871 118.668 85.3383 118.442 84.5782C118.328 84.1982 118.241 83.8876 118.19 83.672C118.135 83.4564 118.113 83.3358 118.124 83.3321C118.149 83.3248 118.314 83.7889 118.573 84.538C118.833 85.2908 119.191 86.325 119.607 87.4651C120.024 88.6016 120.419 89.6248 120.704 90.3666C120.989 91.1084 121.164 91.5688 121.139 91.5798L121.135 91.5761Z" fill="black"/>
<path d="M126.002 70.5981C126.002 70.5981 125.966 70.5981 125.896 70.5908C125.816 70.5798 125.717 70.5689 125.589 70.5542C125.323 70.514 124.924 70.4702 124.413 70.4154C123.393 70.3167 121.902 70.2327 120.072 70.3715C118.244 70.5177 116.077 70.916 113.812 71.7784C111.546 72.6189 109.211 74.0331 107.3 76.0722C106.353 77.0954 105.553 78.2136 104.954 79.3829C104.358 80.556 103.96 81.7692 103.741 82.9605C103.302 85.343 103.54 87.5685 104.055 89.3189C104.329 90.1922 104.658 90.9523 105.012 91.5882C105.195 91.9024 105.378 92.1875 105.553 92.4433C105.747 92.6881 105.911 92.922 106.076 93.1157C106.247 93.302 106.401 93.4701 106.536 93.6163C106.675 93.7588 106.807 93.8611 106.902 93.9561C106.993 94.0402 107.07 94.1096 107.128 94.1644C107.179 94.2119 107.205 94.2375 107.201 94.2412C107.201 94.2412 107.172 94.2229 107.117 94.1791C107.055 94.1279 106.975 94.0658 106.876 93.9854C106.774 93.8977 106.638 93.7954 106.496 93.6565C106.357 93.514 106.196 93.3495 106.017 93.1632C105.846 92.9731 105.674 92.7393 105.476 92.4944C105.297 92.235 105.107 91.9536 104.917 91.6393C104.552 91.0035 104.208 90.2361 103.923 89.3554C103.39 87.5904 103.134 85.343 103.565 82.9276C103.781 81.7217 104.183 80.4865 104.782 79.2989C105.389 78.1113 106.196 76.9784 107.154 75.9443C109.087 73.8796 111.451 72.4545 113.742 71.6176C116.03 70.7589 118.219 70.3679 120.053 70.24C121.895 70.1157 123.39 70.218 124.413 70.3423C124.924 70.4081 125.319 70.4629 125.586 70.5177C125.71 70.5396 125.809 70.5579 125.889 70.5762C125.959 70.5908 125.991 70.5981 125.991 70.6017L126.002 70.5981Z" fill="black"/>
<path d="M115.343 81.7765C115.179 81.8971 114.999 82.0725 115.04 82.2699C115.073 82.4307 115.237 82.5257 115.383 82.5988C116.048 82.924 116.743 83.1944 117.451 83.4063C117.689 83.4758 117.945 83.5379 118.179 83.4539C118.354 83.3917 118.489 83.2529 118.614 83.1104C119.191 82.4562 119.633 81.6888 119.911 80.863C120.009 80.5706 119.757 80.271 119.454 80.3221C118.076 80.5524 116.348 81.0347 115.343 81.7729V81.7765Z" fill="#FF5100"/>
<path d="M121.007 134.156C121.007 134.156 120.927 134.203 120.758 134.28C120.594 134.357 120.353 134.47 120.028 134.591C119.384 134.839 118.427 135.15 117.203 135.34C115.982 135.53 114.484 135.574 112.876 135.245C112.076 135.073 111.25 134.799 110.45 134.401C109.646 134.01 108.871 133.498 108.133 132.91C106.653 131.729 105.491 130.297 104.76 128.828C104.029 127.37 103.481 125.996 103.178 124.794C102.867 123.595 102.776 122.59 102.761 121.903C102.754 121.556 102.761 121.289 102.772 121.11C102.783 120.927 102.79 120.832 102.798 120.836C102.82 120.836 102.798 121.216 102.834 121.903C102.871 122.586 102.984 123.58 103.309 124.764C103.627 125.948 104.183 127.308 104.917 128.755C105.644 130.195 106.796 131.601 108.254 132.767C109.708 133.937 111.334 134.748 112.916 135.077C114.499 135.413 115.979 135.38 117.188 135.212C118.401 135.044 119.359 134.751 120.006 134.529C120.656 134.306 121 134.141 121.011 134.163L121.007 134.156Z" fill="black"/>
<path d="M112.493 124.449C112.525 124.457 112.372 125.049 112.215 126.021C112.058 126.993 111.919 128.348 111.963 129.85C112.01 131.352 112.229 132.697 112.445 133.658C112.661 134.619 112.851 135.2 112.818 135.211C112.807 135.215 112.748 135.072 112.653 134.813C112.558 134.553 112.438 134.17 112.313 133.691C112.061 132.733 111.82 131.374 111.769 129.858C111.725 128.341 111.886 126.971 112.08 125.999C112.175 125.513 112.27 125.122 112.35 124.858C112.427 124.592 112.478 124.449 112.489 124.449H112.493Z" fill="black"/>
<path d="M105.963 71.234C105.984 71.1865 106.978 71.6214 108.181 72.2061C109.383 72.7907 110.337 73.3023 110.315 73.3498C110.293 73.3973 109.299 72.9625 108.097 72.3778C106.894 71.7931 105.941 71.2815 105.963 71.234Z" fill="black"/>
<path d="M127.961 96.5956C127.961 96.5956 127.892 96.6796 127.746 96.8002C127.599 96.9244 127.377 97.0889 127.088 97.2753C126.514 97.648 125.663 98.0865 124.654 98.3861C123.646 98.6821 122.695 98.7845 122.008 98.7808C121.665 98.7808 121.387 98.7662 121.197 98.7406C121.007 98.7187 120.901 98.7004 120.905 98.6858C120.905 98.6529 121.329 98.6785 122.005 98.6456C122.681 98.6127 123.609 98.4921 124.599 98.1998C125.586 97.9038 126.43 97.4982 127.015 97.1583C127.599 96.8185 127.939 96.57 127.958 96.5956H127.961Z" fill="black"/>
<path d="M127.271 141.416C124.519 130.958 128.74 125.677 130.742 119.695L127.271 141.416Z" fill="#FF5100"/>
<path d="M130.742 119.695C130.742 119.695 130.728 119.772 130.684 119.918C130.629 120.079 130.563 120.287 130.479 120.543C130.296 121.084 130 121.855 129.609 122.798C128.846 124.687 127.651 127.256 126.967 130.285C126.624 131.798 126.5 133.274 126.459 134.616C126.456 135.957 126.543 137.166 126.686 138.175C126.763 138.675 126.828 139.129 126.891 139.531C126.975 139.922 127.044 140.258 127.106 140.546C127.157 140.81 127.201 141.021 127.234 141.19C127.263 141.336 127.274 141.416 127.267 141.416C127.26 141.416 127.238 141.343 127.197 141.197C127.154 141.032 127.099 140.82 127.033 140.561C126.964 140.276 126.88 139.94 126.785 139.549C126.715 139.143 126.638 138.69 126.551 138.189C126.39 137.181 126.288 135.964 126.28 134.608C126.31 133.256 126.43 131.765 126.777 130.238C127.468 127.183 128.688 124.61 129.481 122.739C129.883 121.804 130.198 121.04 130.402 120.51C130.501 120.262 130.578 120.057 130.64 119.9C130.695 119.761 130.728 119.688 130.735 119.692L130.742 119.695Z" fill="#263238"/>
<path d="M124.925 102.433C124.629 102.225 124.329 101.94 122.984 101.245C123.024 100.796 123.035 100.339 123.046 99.8859C123.057 99.3341 123.054 98.7275 122.692 98.3146C122.407 97.9894 121.935 97.8505 121.511 97.9492C121.091 98.0442 120.733 98.3585 120.554 98.7531C120.39 99.1185 120.463 99.5022 120.335 99.8823C120.258 100.105 120.079 100.204 120.031 100.262C118.88 99.9042 117.846 99.367 117.846 99.367C116.863 98.8847 115.215 98.3365 114.137 98.1392C113.516 98.0259 112.664 97.9492 112.288 98.6727C112.062 99.1039 112.127 99.6265 112.379 100.047C112.763 100.686 113.176 100.803 113.801 101.132C113.531 101.128 112.931 101.212 112.653 101.344C112.248 101.534 111.999 101.713 111.842 102.192C111.711 102.601 111.904 103.222 112.226 103.504C112.548 103.785 112.917 103.979 113.319 104.136C112.431 104.253 111.773 105.068 111.919 105.948C112.069 106.833 113.33 107.399 114.207 107.22C113.969 107.341 113.746 107.567 113.461 107.918C113.216 108.221 113.107 108.78 113.227 109.149C113.381 109.621 113.563 109.961 114.006 110.18C114.448 110.403 114.981 110.399 115.46 110.264C115.789 110.173 116.629 110.359 116.969 110.359C117.287 110.359 118.833 111.525 119.034 111.77C120.342 113.392 121.124 114.218 123.81 114.821L127.647 104.611C124.994 102.966 125.933 103.142 124.921 102.433H124.925Z" fill="#FFBF9D"/>
<path d="M116.439 104.35C116.425 104.405 115.661 104.215 114.696 104.175C113.735 104.127 112.957 104.244 112.946 104.186C112.935 104.138 113.717 103.934 114.704 103.985C115.69 104.029 116.454 104.306 116.436 104.35H116.439Z" fill="#FF9A6C"/>
<path d="M116.425 106.698C116.425 106.76 115.84 106.789 115.153 106.98C114.462 107.159 113.991 107.502 113.954 107.462C113.94 107.447 114.035 107.323 114.236 107.188C114.437 107.049 114.74 106.895 115.098 106.797C115.818 106.599 116.421 106.654 116.421 106.698H116.425Z" fill="#FF9A6C"/>
<path d="M113.571 101.145C113.563 101.105 114.411 100.995 115.398 101.313C116.377 101.638 117.035 102.161 117.009 102.19C116.976 102.249 116.282 101.803 115.339 101.496C114.393 101.192 113.567 101.211 113.571 101.149V101.145Z" fill="#FF9A6C"/>
<path d="M116.622 108.134C116.582 108.159 116.326 107.725 116.308 107.122C116.286 106.519 116.516 106.069 116.56 106.095C116.615 106.113 116.48 106.559 116.498 107.118C116.513 107.677 116.673 108.112 116.622 108.134Z" fill="#FF9A6C"/>
<path d="M116.754 102.918C116.702 102.918 116.673 102.564 116.801 102.147C116.925 101.73 117.148 101.453 117.188 101.478C117.236 101.507 117.097 101.811 116.984 102.202C116.863 102.589 116.808 102.922 116.757 102.918H116.754Z" fill="#FF9A6C"/>
<path d="M116.436 105.17C116.384 105.181 116.286 104.911 116.293 104.556C116.3 104.206 116.414 103.935 116.461 103.95C116.512 103.964 116.487 104.231 116.483 104.56C116.476 104.889 116.487 105.159 116.436 105.17Z" fill="#FF9A6C"/>
<path d="M159.951 116.299C155.723 120.315 144.153 122.943 137.74 121.982C131.327 121.021 120.437 113.917 120.437 113.917L124.574 102.124C124.574 102.124 137.565 106.853 137.897 106.798C137.897 106.798 154.787 98.8319 159.187 101.383" fill="#FF5100"/>
<path d="M159.187 101.383C159.187 101.383 159.055 101.332 158.81 101.222C158.558 101.123 158.167 101.021 157.648 100.955C157.126 100.915 156.479 100.889 155.723 100.966C154.966 101.036 154.104 101.167 153.146 101.372C149.32 102.201 144.022 104.083 137.934 106.875L137.915 106.882H137.912C137.835 106.868 137.758 106.857 137.681 106.838L137.484 106.78L137.093 106.659C136.834 106.575 136.574 106.488 136.315 106.4C135.792 106.221 135.266 106.038 134.732 105.855C133.669 105.479 132.576 105.095 131.466 104.704C129.244 103.904 126.931 103.075 124.544 102.216L124.665 102.157C123.671 104.993 122.637 107.935 121.581 110.946C121.219 111.973 120.861 112.992 120.528 113.946L120.492 113.836C122.999 115.444 125.52 116.884 127.998 118.178C130.483 119.446 132.935 120.579 135.372 121.331C136.589 121.711 137.809 121.938 139.012 122.04C140.214 122.106 141.387 122.121 142.512 122.04C144.771 121.905 146.85 121.565 148.721 121.156C150.592 120.743 152.258 120.261 153.68 119.731C153.859 119.669 154.034 119.603 154.206 119.544C154.374 119.475 154.542 119.405 154.703 119.34C155.028 119.205 155.343 119.08 155.642 118.949C155.935 118.81 156.216 118.675 156.483 118.547C156.614 118.481 156.746 118.419 156.874 118.36C156.998 118.291 157.115 118.225 157.232 118.159C157.696 117.9 158.112 117.673 158.445 117.432C158.781 117.202 159.081 117.023 159.289 116.833C159.501 116.657 159.666 116.526 159.782 116.431C159.896 116.34 159.954 116.299 159.954 116.299C159.954 116.299 159.903 116.351 159.793 116.446C159.68 116.544 159.519 116.683 159.311 116.862C159.106 117.056 158.81 117.242 158.474 117.476C158.145 117.721 157.729 117.955 157.265 118.218C157.148 118.284 157.031 118.353 156.907 118.423C156.779 118.485 156.651 118.547 156.516 118.613C156.249 118.744 155.967 118.879 155.675 119.022C155.379 119.153 155.061 119.281 154.736 119.42C154.571 119.49 154.407 119.559 154.239 119.628C154.067 119.691 153.892 119.756 153.713 119.818C152.288 120.359 150.621 120.853 148.747 121.273C146.872 121.693 144.785 122.04 142.516 122.183C141.383 122.27 140.207 122.256 138.993 122.194C137.784 122.091 136.545 121.865 135.317 121.485C132.862 120.728 130.402 119.599 127.91 118.327C125.425 117.038 122.9 115.594 120.386 113.983L120.324 113.942L120.349 113.873C120.685 112.919 121.04 111.9 121.402 110.873C122.461 107.862 123.492 104.92 124.49 102.084L124.522 101.997L124.61 102.029C129.368 103.758 133.866 105.38 137.897 106.765L137.868 106.718C143.974 103.933 149.287 102.073 153.132 101.269C154.093 101.072 154.962 100.948 155.723 100.886C156.483 100.82 157.137 100.849 157.659 100.9C158.182 100.977 158.573 101.087 158.825 101.193C159.07 101.313 159.194 101.379 159.194 101.379L159.187 101.383Z" fill="#263238"/>
<g opacity="0.3">
<path d="M143.028 112.817C142.626 111.472 141.8 110.296 140.93 109.196C140.057 108.096 139.121 107.033 138.438 105.805L138.792 117.809C140.006 118.514 141.687 117.981 142.516 116.848C143.346 115.715 143.426 114.162 143.028 112.817Z" fill="black"/>
</g>
<g opacity="0.3">
<path d="M130.501 120.392C134.926 123.085 139.863 123.849 145.019 123.345C150.176 122.84 155.149 120.622 158.968 117.125C155.54 118.685 152.094 120.257 148.473 121.295C144.851 122.332 138.869 122.482 135.759 121.561L130.742 119.705L130.501 120.396V120.392Z" fill="black"/>
</g>
<path d="M108.29 145.854C108.29 145.887 107.841 145.873 107.132 145.993C106.427 146.11 105.458 146.384 104.519 146.947C103.58 147.506 102.853 148.215 102.538 148.851C102.206 149.487 102.297 149.962 102.257 149.958C102.25 149.958 102.213 149.848 102.217 149.64C102.217 149.436 102.264 149.132 102.421 148.792C102.721 148.105 103.467 147.353 104.428 146.783C105.392 146.205 106.394 145.942 107.117 145.862C107.479 145.814 107.779 145.814 107.98 145.818C108.184 145.829 108.294 145.843 108.294 145.854H108.29Z" fill="black"/>
<path d="M142.45 112.134C142.1 111.119 141.489 110.212 140.872 109.335C138.478 105.929 135.836 102.688 132.884 99.7538C131.897 98.7744 130.837 97.806 129.518 97.3639C128.202 96.9217 126.565 97.1519 125.718 98.2519L126.302 102.323C128.685 105.707 133.516 112.865 135.898 116.249C136.322 116.852 136.79 117.488 137.477 117.758C138.281 118.073 139.191 117.813 139.973 117.448C140.978 116.976 141.939 116.286 142.41 115.281C142.867 114.309 142.798 113.15 142.447 112.134H142.45Z" fill="#EBEBEB"/>
<path d="M140.762 110.869C140.762 110.905 140.305 110.869 139.618 111.07C138.939 111.26 138.021 111.753 137.4 112.652C136.786 113.555 136.658 114.589 136.724 115.29C136.786 116.007 136.984 116.42 136.951 116.43C136.94 116.434 136.881 116.339 136.805 116.145C136.728 115.955 136.64 115.667 136.593 115.301C136.49 114.578 136.596 113.492 137.247 112.539C137.901 111.592 138.877 111.099 139.585 110.934C139.944 110.847 140.243 110.825 140.448 110.829C140.653 110.832 140.766 110.85 140.766 110.861L140.762 110.869Z" fill="black"/>
<path d="M171.615 142.277C171.56 145.971 168.684 154.204 160.031 157.409C156.567 158.692 141.756 160.358 138.113 160.972C134.919 161.513 131.597 161.078 128.447 161.842C126.189 162.39 124.077 163.541 121.767 163.767C118.058 164.137 114.4 161.955 112.325 158.86C110.249 155.765 109.584 151.902 109.715 148.178C109.796 145.913 110.315 143.38 112.208 142.131C113.79 141.085 115.939 141.272 117.642 142.109C119.341 142.949 120.693 144.341 122.005 145.712C124.362 142.211 130.223 139.547 134.776 137.749C138.701 136.2 148.392 133.821 151.411 136.77" fill="#FF5100"/>
<path d="M151.41 136.771C151.41 136.771 151.37 136.741 151.294 136.675C151.217 136.613 151.107 136.511 150.939 136.409C150.617 136.189 150.091 135.919 149.357 135.729C147.888 135.323 145.618 135.283 142.816 135.707C141.412 135.919 139.87 136.241 138.222 136.694C137.396 136.92 136.545 137.18 135.675 137.487C134.805 137.794 133.921 138.166 133.008 138.546C131.188 139.318 129.269 140.195 127.351 141.313C126.393 141.868 125.436 142.489 124.53 143.213C123.623 143.937 122.754 144.766 122.07 145.764L122.012 145.848L121.942 145.775C121.102 144.901 120.24 144.002 119.242 143.235C118.252 142.464 117.097 141.828 115.807 141.605C114.539 141.368 113.114 141.539 112.047 142.365C111.506 142.763 111.082 143.304 110.76 143.907C110.435 144.507 110.223 145.172 110.077 145.851C109.781 147.214 109.763 148.651 109.814 150.087C109.872 151.523 110.073 152.977 110.446 154.399C110.83 155.817 111.389 157.212 112.193 158.48C112.979 159.756 114.038 160.874 115.266 161.773C116.183 162.431 117.196 162.95 118.255 163.29C119.315 163.633 120.433 163.765 121.526 163.691C123.737 163.538 125.725 162.511 127.797 161.923C129.883 161.313 132.028 161.276 134.086 161.21C135.116 161.177 136.139 161.137 137.137 161.02C138.131 160.896 139.121 160.717 140.101 160.589C144.014 160.052 147.734 159.577 151.206 159.062C152.942 158.806 154.615 158.535 156.216 158.243C157.016 158.097 157.798 157.94 158.558 157.757C159.322 157.585 160.042 157.355 160.722 157.044C162.11 156.5 163.32 155.743 164.412 154.976C164.935 154.559 165.465 154.176 165.911 153.726C166.137 153.507 166.378 153.306 166.583 153.083C166.788 152.857 166.992 152.634 167.193 152.418C167.398 152.206 167.577 151.976 167.752 151.749C167.928 151.523 168.099 151.304 168.271 151.088C168.571 150.627 168.889 150.204 169.137 149.761C169.389 149.323 169.645 148.91 169.835 148.486C169.938 148.278 170.036 148.077 170.135 147.879C170.226 147.678 170.303 147.481 170.383 147.287C171.023 145.749 171.315 144.477 171.458 143.611C171.491 143.396 171.516 143.202 171.542 143.038C171.553 142.873 171.564 142.734 171.571 142.621C171.589 142.398 171.6 142.281 171.6 142.281C171.6 142.281 171.6 142.398 171.589 142.621C171.582 142.734 171.575 142.877 171.567 143.041C171.545 143.209 171.52 143.399 171.494 143.619C171.366 144.488 171.085 145.767 170.453 147.317C170.372 147.51 170.296 147.711 170.204 147.912C170.109 148.11 170.011 148.314 169.908 148.523C169.718 148.947 169.463 149.363 169.214 149.805C168.966 150.251 168.648 150.679 168.348 151.143C168.18 151.362 168.004 151.585 167.829 151.811C167.654 152.038 167.478 152.272 167.27 152.488C167.069 152.707 166.868 152.933 166.66 153.16C166.451 153.386 166.214 153.587 165.984 153.81C165.534 154.263 165.004 154.651 164.478 155.071C163.378 155.849 162.161 156.617 160.765 157.169C160.086 157.479 159.348 157.72 158.584 157.892C157.824 158.079 157.038 158.236 156.238 158.385C154.634 158.685 152.96 158.959 151.22 159.215C147.749 159.741 144.025 160.22 140.115 160.761C139.136 160.889 138.156 161.068 137.148 161.196C136.139 161.316 135.112 161.353 134.082 161.389C132.021 161.459 129.894 161.495 127.837 162.098C126.81 162.394 125.801 162.793 124.764 163.143C123.729 163.494 122.651 163.805 121.53 163.878C120.411 163.951 119.268 163.819 118.186 163.469C117.104 163.121 116.074 162.595 115.142 161.926C113.892 161.013 112.814 159.876 112.018 158.579C111.203 157.293 110.636 155.879 110.249 154.446C109.872 153.006 109.671 151.541 109.613 150.094C109.565 148.647 109.58 147.203 109.883 145.811C110.033 145.117 110.253 144.437 110.585 143.82C110.914 143.198 111.36 142.636 111.922 142.219C112.474 141.791 113.136 141.532 113.808 141.408C114.48 141.294 115.167 141.309 115.825 141.43C117.148 141.66 118.328 142.314 119.333 143.096C120.346 143.878 121.208 144.784 122.048 145.658L121.921 145.669C122.619 144.653 123.503 143.816 124.416 143.089C125.334 142.358 126.298 141.737 127.259 141.181C129.189 140.063 131.115 139.19 132.938 138.422C133.855 138.046 134.74 137.677 135.617 137.37C136.494 137.067 137.349 136.807 138.175 136.584C139.83 136.138 141.376 135.824 142.786 135.616C145.6 135.206 147.88 135.261 149.353 135.682C150.091 135.879 150.617 136.16 150.935 136.39C151.104 136.496 151.209 136.602 151.283 136.668C151.356 136.734 151.392 136.771 151.392 136.771H151.41Z" fill="#263238"/>
<path d="M120.609 163.254C120.59 163.243 120.762 162.958 120.912 162.388C121.054 161.818 121.12 160.955 120.956 159.914C120.799 158.872 120.47 157.648 120.101 156.3C119.721 154.951 119.249 153.486 118.683 151.973C118.12 150.46 117.51 149.043 116.914 147.778C116.329 146.51 115.716 145.399 114.974 144.65C114.239 143.897 113.435 143.532 112.869 143.397C112.295 143.261 111.963 143.305 111.963 143.283C111.963 143.276 112.043 143.265 112.2 143.258C112.357 143.258 112.591 143.261 112.884 143.324C113.468 143.437 114.301 143.795 115.069 144.555C115.843 145.308 116.479 146.437 117.075 147.701C117.682 148.969 118.299 150.387 118.866 151.904C119.436 153.42 119.9 154.897 120.272 156.249C120.634 157.604 120.948 158.832 121.091 159.892C121.237 160.952 121.153 161.832 120.985 162.406C120.897 162.691 120.806 162.907 120.733 163.046C120.66 163.185 120.616 163.254 120.612 163.25L120.609 163.254Z" fill="#263238"/>
<path d="M124.519 151.886C124.464 151.901 124.139 150.783 123.642 149.438C123.148 148.09 122.673 147.03 122.724 147.004C122.746 146.993 122.896 147.245 123.105 147.669C123.313 148.093 123.572 148.693 123.824 149.372C124.073 150.048 124.263 150.677 124.38 151.134C124.497 151.59 124.548 151.879 124.522 151.886H124.519Z" fill="#263238"/>
<path d="M148.615 135.311C150.497 134.127 152.931 133.872 155.017 134.643L148.615 135.311Z" fill="#FF5100"/>
<path d="M155.017 134.639C155.006 134.669 154.652 134.548 154.067 134.435C153.483 134.322 152.657 134.241 151.75 134.336C150.844 134.431 150.055 134.68 149.503 134.914C148.951 135.144 148.633 135.337 148.615 135.308C148.604 135.294 148.9 135.056 149.448 134.789C149.993 134.523 150.8 134.245 151.728 134.146C152.657 134.051 153.504 134.153 154.093 134.303C154.685 134.453 155.021 134.621 155.014 134.639H155.017Z" fill="#263238"/>
<g opacity="0.3">
<path d="M120.517 144.101C124.128 140.753 128.268 137.932 132.825 136.069C137.385 134.205 142.373 133.313 147.278 133.777C148.388 133.883 149.693 134.212 150.069 135.265C139.79 135.119 127.928 138.908 122.005 145.712C121.647 145.296 120.959 144.674 120.601 144.258" fill="black"/>
</g>
<path d="M110.322 103.693C109.905 103.376 109.277 103.39 108.853 103.697C108.429 104.008 108.228 104.581 108.33 105.093C108.436 105.608 108.827 106.047 109.317 106.233C109.686 106.376 110.132 106.376 110.457 106.153C110.856 105.882 110.994 105.342 110.921 104.867C110.848 104.391 110.556 104.103 110.318 103.686" fill="#FFBF9D"/>
<path d="M111.579 102.436C111.163 102.118 110.534 102.132 110.11 102.439C109.686 102.746 109.485 103.324 109.588 103.835C109.694 104.351 110.085 104.789 110.574 104.975C110.943 105.118 111.389 105.118 111.714 104.895C112.113 104.625 112.252 104.084 112.178 103.609C112.105 103.134 111.813 102.845 111.575 102.428" fill="#FFBF9D"/>
<path d="M109.018 105.815C108.659 105.545 108.122 105.556 107.76 105.819C107.399 106.086 107.223 106.576 107.315 107.014C107.406 107.456 107.742 107.829 108.162 107.993C108.48 108.118 108.86 108.118 109.138 107.924C109.478 107.69 109.599 107.23 109.536 106.824C109.474 106.418 109.226 106.17 109.018 105.815Z" fill="#FFBF9D"/>
<path d="M111.513 47.2569C111.349 46.8659 111.046 46.5479 110.687 46.3214C110.337 46.1021 109.924 45.9669 109.511 45.9961C109.072 46.0254 108.648 46.2446 108.371 46.5845C108.206 46.7855 108.093 47.0303 108.038 47.2861C107.866 47.1217 107.658 46.9974 107.435 46.9207C107.019 46.7818 106.543 46.8257 106.16 47.034C105.794 47.2313 105.517 47.5638 105.341 47.9366C105.158 48.3166 105.074 48.7515 105.144 49.168C105.232 49.6906 105.491 50.2132 105.878 50.5713C106.288 50.9513 106.843 51.1925 107.38 51.335C108.287 51.5762 109.474 51.8649 109.474 51.8649C109.474 51.8649 110.147 50.9733 110.786 50.2826C111.166 49.8733 111.502 49.3727 111.648 48.8319C111.784 48.3203 111.722 47.7392 111.517 47.2532L111.513 47.2569Z" fill="#FF5100"/>
<g opacity="0.7">
<path d="M111.513 47.2569C111.349 46.8659 111.046 46.5479 110.687 46.3214C110.337 46.1021 109.924 45.9669 109.511 45.9961C109.072 46.0254 108.648 46.2446 108.371 46.5845C108.206 46.7855 108.093 47.0303 108.038 47.2861C107.866 47.1217 107.658 46.9974 107.435 46.9207C107.019 46.7818 106.543 46.8257 106.16 47.034C105.794 47.2313 105.517 47.5638 105.341 47.9366C105.158 48.3166 105.074 48.7515 105.144 49.168C105.232 49.6906 105.491 50.2132 105.878 50.5713C106.288 50.9513 106.843 51.1925 107.38 51.335C108.287 51.5762 109.474 51.8649 109.474 51.8649C109.474 51.8649 110.147 50.9733 110.786 50.2826C111.166 49.8733 111.502 49.3727 111.648 48.8319C111.784 48.3203 111.722 47.7392 111.517 47.2532L111.513 47.2569Z" fill="white"/>
</g>
<path d="M86.8323 116.952C86.6679 116.561 86.3646 116.243 86.0065 116.017C85.6557 115.797 85.2427 115.662 84.8298 115.691C84.3913 115.721 83.9674 115.94 83.6897 116.28C83.5252 116.481 83.4119 116.726 83.3571 116.981C83.1854 116.817 82.9771 116.693 82.7542 116.616C82.3376 116.477 81.8625 116.521 81.4788 116.729C81.1134 116.927 80.8393 117.259 80.6603 117.632C80.4776 118.012 80.3935 118.447 80.463 118.863C80.5507 119.386 80.8101 119.908 81.1975 120.267C81.6067 120.647 82.1622 120.888 82.6994 121.03C83.6056 121.272 84.7933 121.56 84.7933 121.56C84.7933 121.56 85.4656 120.669 86.1051 119.978C86.4852 119.569 86.8214 119.068 86.9675 118.527C87.1028 118.016 87.0406 117.435 86.836 116.949L86.8323 116.952Z" fill="#FF5100"/>
<g opacity="0.7">
<path d="M86.8323 116.952C86.6679 116.561 86.3646 116.243 86.0065 116.017C85.6557 115.797 85.2427 115.662 84.8298 115.691C84.3913 115.721 83.9674 115.94 83.6897 116.28C83.5252 116.481 83.4119 116.726 83.3571 116.981C83.1854 116.817 82.9771 116.693 82.7542 116.616C82.3376 116.477 81.8625 116.521 81.4788 116.729C81.1134 116.927 80.8393 117.259 80.6603 117.632C80.4776 118.012 80.3935 118.447 80.463 118.863C80.5507 119.386 80.8101 119.908 81.1975 120.267C81.6067 120.647 82.1622 120.888 82.6994 121.03C83.6056 121.272 84.7933 121.56 84.7933 121.56C84.7933 121.56 85.4656 120.669 86.1051 119.978C86.4852 119.569 86.8214 119.068 86.9675 118.527C87.1028 118.016 87.0406 117.435 86.836 116.949L86.8323 116.952Z" fill="white"/>
</g>
<path d="M185.384 116.789C185.6 116.032 185.534 115.21 185.274 114.468C185.022 113.741 184.577 113.065 183.944 112.623C183.272 112.155 182.406 111.98 181.606 112.148C181.131 112.246 180.681 112.469 180.305 112.78C180.246 112.341 180.093 111.917 179.852 111.545C179.406 110.858 178.671 110.368 177.864 110.222C177.107 110.083 176.314 110.244 175.62 110.58C174.911 110.92 174.279 111.45 173.899 112.137C173.42 112.999 173.183 114.059 173.329 115.034C173.482 116.065 174.005 117.063 174.622 117.899C175.66 119.306 177.045 121.108 177.045 121.108C177.045 121.108 179.062 120.596 180.794 120.337C181.825 120.183 182.899 119.851 183.736 119.233C184.529 118.649 185.114 117.731 185.388 116.785L185.384 116.789Z" fill="#FF5100"/>
<g opacity="0.7">
<path d="M185.384 116.789C185.6 116.032 185.534 115.21 185.274 114.468C185.022 113.741 184.577 113.065 183.944 112.623C183.272 112.155 182.406 111.98 181.606 112.148C181.131 112.246 180.681 112.469 180.305 112.78C180.246 112.341 180.093 111.917 179.852 111.545C179.406 110.858 178.671 110.368 177.864 110.222C177.107 110.083 176.314 110.244 175.62 110.58C174.911 110.92 174.279 111.45 173.899 112.137C173.42 112.999 173.183 114.059 173.329 115.034C173.482 116.065 174.005 117.063 174.622 117.899C175.66 119.306 177.045 121.108 177.045 121.108C177.045 121.108 179.062 120.596 180.794 120.337C181.825 120.183 182.899 119.851 183.736 119.233C184.529 118.649 185.114 117.731 185.388 116.785L185.384 116.789Z" fill="white"/>
</g>
</g>
<defs>
<clipPath id="clip0_1678_31937">
<rect width="165.732" height="170" fill="white" transform="translate(52)"/>
</clipPath>
</defs>
</svg>
