<svg width="270" height="170" viewBox="0 0 270 170" fill="none" xmlns="http://www.w3.org/2000/svg">
<g clip-path="url(#clip0_1678_33949)">
<path d="M264.373 158.982C266.422 151.921 271.028 133.652 268.025 121.139C264.232 105.342 253.237 115.998 241.483 119.669C229.729 123.345 233.901 98.7262 239.207 71.1709C244.513 43.6157 226.694 14.5902 203.941 9.44826C181.191 4.30633 173.582 44.8826 163.369 55.3737C153.155 65.8648 120.9 3.93486 87.9132 15.6929C54.9228 27.4509 53.7888 86.237 46.5823 96.5208C39.3797 106.809 12.0786 71.5385 5.63068 92.1101C0.187669 109.483 9.88499 147.553 13.0327 158.979H264.369L264.373 158.982Z" fill="#FF5100"/>
<path opacity="0.7" d="M264.373 158.982C266.422 151.921 271.028 133.652 268.025 121.139C264.232 105.342 253.237 115.998 241.483 119.669C229.729 123.345 233.901 98.7262 239.207 71.1709C244.513 43.6157 226.694 14.5902 203.941 9.44826C181.191 4.30633 173.582 44.8826 163.369 55.3737C153.155 65.8648 120.9 3.93486 87.9132 15.6929C54.9228 27.4509 53.7888 86.237 46.5823 96.5208C39.3797 106.809 12.0786 71.5385 5.63068 92.1101C0.187669 109.483 9.88499 147.553 13.0327 158.979H264.369L264.373 158.982Z" fill="white"/>
<path d="M0.195557 158.984H269.805" stroke="#263238" stroke-linecap="round" stroke-linejoin="round"/>
<path d="M197.653 16.7617V158.98H254.954V16.7617H197.653ZM250.465 154.886H202.138V20.8596H250.465V154.886Z" stroke="#263238" stroke-linecap="round" stroke-linejoin="round"/>
<path d="M213.775 46.6341L211.949 33.6327H211.957L212.516 29.9258H207.663L208.223 33.6327H208.23L206.404 46.6341H213.775Z" stroke="#263238" stroke-linecap="round" stroke-linejoin="round"/>
<path d="M227.64 43.3696C228.895 40.3062 227.429 36.8053 224.366 35.5501C221.302 34.295 217.801 35.7609 216.546 38.8243C215.291 41.8877 216.757 45.3886 219.82 46.6438C222.884 47.8989 226.385 46.433 227.64 43.3696Z" stroke="#263238" stroke-linecap="round" stroke-linejoin="round"/>
<path d="M248.115 65.793H228.873V85.43H248.115V65.793Z" stroke="#263238" stroke-linecap="round" stroke-linejoin="round"/>
<path d="M244.772 69.2031H232.212V82.0247H244.772V69.2031Z" stroke="#263238" stroke-linecap="round" stroke-linejoin="round"/>
<path d="M207.448 67.3789H202.686V85.2329H207.448V67.3789Z" stroke="#263238" stroke-linecap="round" stroke-linejoin="round"/>
<path d="M212.407 67.3789H207.644V85.2329H212.407V67.3789Z" stroke="#263238" stroke-linecap="round" stroke-linejoin="round"/>
<path d="M217.409 67.0803L212.734 67.9883L216.138 85.5149L220.813 84.6069L217.409 67.0803Z" stroke="#263238" stroke-linecap="round" stroke-linejoin="round"/>
<path d="M244.701 154.84H249.464V136.986H244.701V154.84Z" stroke="#263238" stroke-linecap="round" stroke-linejoin="round"/>
<path d="M239.743 154.84H244.505V136.986H239.743V154.84Z" stroke="#263238" stroke-linecap="round" stroke-linejoin="round"/>
<path d="M231.347 154.213L236.022 155.121L239.426 137.595L234.751 136.687L231.347 154.213Z" stroke="#263238" stroke-linecap="round" stroke-linejoin="round"/>
<path d="M229.737 106.839C229.67 106.73 228.849 105.346 229.025 103.793C229.205 102.174 230.644 95.8789 230.644 95.8789H222.909C222.909 95.8789 224.348 102.174 224.528 103.793C224.708 105.412 223.809 106.851 223.809 106.851C222.151 108.446 221.04 111.328 221.04 114.624C221.04 119.641 223.609 123.704 226.777 123.704C229.944 123.704 232.513 119.637 232.513 114.624C232.513 111.32 231.398 108.431 229.733 106.843L229.737 106.839Z" stroke="#263238" stroke-linecap="round" stroke-linejoin="round"/>
<path d="M250.465 46.8945H202.138V52.1147H250.465V46.8945Z" stroke="#263238" stroke-linecap="round" stroke-linejoin="round"/>
<path d="M250.465 85.4336H202.138V90.6537H250.465V85.4336Z" stroke="#263238" stroke-linecap="round" stroke-linejoin="round"/>
<path d="M250.465 123.973H202.138V129.193H250.465V123.973Z" stroke="#263238" stroke-linecap="round" stroke-linejoin="round"/>
<path d="M81.5083 122.422H17.4004V130.692H81.5083V122.422Z" stroke="#263238" stroke-linecap="round" stroke-linejoin="round"/>
<path d="M143.196 110.542C142.734 110.905 142.441 111.469 142.441 112.102V122.421H81.0314C81.0979 118.163 80.3901 108.074 79.6902 100.782C79.7136 96.1561 79.8427 92.6565 80.0851 92.4727C80.8202 91.9214 91.4756 91.37 111.504 92.1051C131.528 92.8403 137.776 90.8187 140.165 91.37C142.081 91.8119 142.934 105.228 143.196 110.542Z" stroke="#263238" stroke-linecap="round" stroke-linejoin="round"/>
<path d="M81.0312 122.421H17.4004V112.102C17.4004 111.023 16.5401 110.143 15.4688 110.116C15.7581 104.544 16.6144 91.8001 18.4796 91.37C20.8687 90.8187 27.1134 92.8403 47.1414 92.1051C67.1695 91.37 77.8249 91.9214 78.56 92.4727C78.8024 92.6565 79.2443 96.1561 79.69 100.782C80.39 108.074 81.0977 118.163 81.0312 122.421Z" stroke="#263238" stroke-linecap="round" stroke-linejoin="round"/>
<path d="M81.7468 122.422V124.475C81.6608 124.475 81.5826 124.479 81.5083 124.479V122.422H81.7468Z" stroke="#263238" stroke-linecap="round" stroke-linejoin="round"/>
<path d="M142.441 130.691H17.4004V153.292H142.441V130.691Z" stroke="#263238" stroke-linecap="round" stroke-linejoin="round"/>
<path d="M81.7468 122.422H81.5083V130.692H81.7468V122.422Z" stroke="#263238" stroke-linecap="round" stroke-linejoin="round"/>
<path d="M142.441 122.422H81.7468V130.692H142.441V122.422Z" stroke="#263238" stroke-linecap="round" stroke-linejoin="round"/>
<path d="M81.7468 122.422H81.5083V130.692H81.7468V122.422Z" stroke="#263238" stroke-linecap="round" stroke-linejoin="round"/>
<path d="M151.446 112.104V157.298C151.446 158.232 150.688 158.987 149.757 158.987H144.13C143.196 158.987 142.441 158.232 142.441 157.298V112.104C142.441 111.47 142.734 110.907 143.196 110.543C143.536 110.274 143.962 110.113 144.431 110.113H149.456C150.555 110.113 151.446 111.005 151.446 112.104Z" stroke="#263238" stroke-linecap="round" stroke-linejoin="round"/>
<path d="M17.4005 112.104V157.298C17.4005 158.232 16.6419 158.987 15.7113 158.987H10.0845C9.14993 158.987 8.39526 158.232 8.39526 157.298V112.104C8.39526 111.005 9.28679 110.113 10.3856 110.113H15.4102C15.4297 110.113 15.4493 110.113 15.4688 110.117C16.5402 110.145 17.4005 111.024 17.4005 112.104Z" stroke="#263238" stroke-linecap="round" stroke-linejoin="round"/>
<path d="M71.0604 16.8594H52.3696V40.8876H71.0604V16.8594Z" stroke="#263238" stroke-linecap="round" stroke-linejoin="round"/>
<path d="M69.8522 18.4062H53.5779V39.3337H69.8522V18.4062Z" stroke="#263238" stroke-linecap="round" stroke-linejoin="round"/>
<path d="M64.3427 25.4922H59.0874V32.249H64.3427V25.4922Z" stroke="#263238" stroke-linecap="round" stroke-linejoin="round"/>
<path d="M48.9716 34.8203H30.2808V58.8486H48.9716V34.8203Z" stroke="#263238" stroke-linecap="round" stroke-linejoin="round"/>
<path d="M47.7633 36.3711H31.489V57.2985H47.7633V36.3711Z" stroke="#263238" stroke-linecap="round" stroke-linejoin="round"/>
<path d="M42.2539 43.457H36.9985V50.2139H42.2539V43.457Z" stroke="#263238" stroke-linecap="round" stroke-linejoin="round"/>
<path d="M94.9674 34.8203H76.2766V58.8486H94.9674V34.8203Z" stroke="#263238" stroke-linecap="round" stroke-linejoin="round"/>
<path d="M93.7592 36.3711H77.4849V57.2985H93.7592V36.3711Z" stroke="#263238" stroke-linecap="round" stroke-linejoin="round"/>
<path d="M88.2497 43.457H82.9944V50.2139H88.2497V43.457Z" stroke="#263238" stroke-linecap="round" stroke-linejoin="round"/>
<path d="M71.0604 44.668H52.3696V58.7056H71.0604V44.668Z" stroke="#263238" stroke-linecap="round" stroke-linejoin="round"/>
<path d="M69.8522 45.5742H53.5779V57.7975H69.8522V45.5742Z" stroke="#263238" stroke-linecap="round" stroke-linejoin="round"/>
<path d="M64.3427 49.7148H59.0874V53.6602H64.3427V49.7148Z" stroke="#263238" stroke-linecap="round" stroke-linejoin="round"/>
<path d="M73.0156 75.356V63.2656H63.9322V75.356H73.0156Z" stroke="#263238" stroke-linecap="round" stroke-linejoin="round"/>
<path d="M72.429 74.5771V64.0469H64.5186V74.5771H72.429Z" stroke="#263238" stroke-linecap="round" stroke-linejoin="round"/>
<path d="M69.7505 71.0113V67.6133H67.1971V71.0113H69.7505Z" stroke="#263238" stroke-linecap="round" stroke-linejoin="round"/>
<path d="M59.5918 75.3599V63.2695H50.5084V75.3599H59.5918Z" stroke="#263238" stroke-linecap="round" stroke-linejoin="round"/>
<path d="M59.0051 74.581V64.0508H51.0948V74.581H59.0051Z" stroke="#263238" stroke-linecap="round" stroke-linejoin="round"/>
<path d="M56.3267 71.0152V67.6172H53.7733V71.0152H56.3267Z" stroke="#263238" stroke-linecap="round" stroke-linejoin="round"/>
<path d="M172.671 28.5073C172.671 28.5073 169.926 26.2863 169.527 27.2287C169.128 28.1711 170.978 29.176 170.978 29.176C170.978 29.176 166.571 28.0811 166.164 28.9218C165.758 29.7625 167.087 30.5993 167.087 30.5993C167.087 30.5993 164.19 30.7831 164.241 31.5456C164.287 32.3081 164.765 32.5818 164.765 32.5818C164.765 32.5818 161.089 33.3286 161.351 34.228C161.613 35.1312 162.684 35.1625 162.684 35.1625C162.684 35.1625 160.076 36.5272 160.15 37.8254C160.201 38.6895 161.554 39.3738 161.801 39.7101C161.801 39.7101 158.93 41.8842 160.925 43.5929C162.923 45.3017 164.276 44.9107 164.276 44.9107C164.276 44.9107 162.974 46.0642 164.002 47.0183C165.034 47.9724 165.593 47.1708 165.593 47.1708C165.593 47.1708 165.457 49.0164 166.235 49.2236C167.013 49.4309 168.057 48.1874 168.057 48.1874C168.057 48.1874 168.209 49.7593 169.332 49.7906C170.458 49.8219 170.974 49.1259 170.974 49.1259C170.974 49.1259 171.443 50.0643 171.998 49.9783C172.554 49.8923 172.886 49.513 172.886 49.513C172.886 49.513 174.696 50.7252 176.401 50.2559C178.106 49.7906 178.435 49.3605 178.435 49.3605C178.435 49.3605 180.3 49.8023 180.89 49.4582C181.481 49.1141 181.86 48.6801 181.86 48.6801C181.86 48.6801 182.619 49.3957 183.502 48.8287C184.386 48.2617 184.245 46.8931 184.245 46.8931C184.245 46.8931 185.258 47.5931 185.715 46.7485C186.173 45.9039 185.934 45.3564 185.934 45.3564C185.934 45.3564 187.749 45.8022 188.155 44.9576C188.562 44.1169 187.323 43.1237 187.323 43.1237C187.323 43.1237 188.331 43.722 188.871 42.6154C189.411 41.5088 188.206 39.3934 188.206 39.3934C188.206 39.3934 189.501 39.6671 189.63 38.537C189.759 37.407 188.844 36.5976 188.844 36.5976C188.844 36.5976 190.267 36.5076 189.731 35.315C189.196 34.1224 187.682 33.6102 187.682 33.6102C187.682 33.6102 188.46 32.2338 187.616 30.9629C186.767 29.6921 183.471 30.0049 183.471 30.0049C183.471 30.0049 185.371 29.3715 184.245 28.5269C183.119 27.6823 180.159 28.4839 180.159 28.4839C180.159 28.4839 180.855 27.4203 179.326 27.4164C177.793 27.4125 177.07 28.0186 177.07 28.0186C177.07 28.0186 178.317 26.0009 176.691 26.0517C175.06 26.1065 173.508 28.1437 173.508 28.1437C173.508 28.1437 173.117 26.8416 172.737 27.2756C172.358 27.7097 172.663 28.5034 172.663 28.5034L172.671 28.5073Z" fill="#263238" stroke="#263238" stroke-linecap="round" stroke-linejoin="round"/>
<path d="M172.065 48.3912C172.065 48.3912 171.948 52.8332 171.557 54.065C171.166 55.3006 168.511 56.4776 166.99 56.6379C165.468 56.7982 162.055 58.2919 162.086 61.7994C162.117 65.3068 163.951 73.8272 165.117 76.3062C166.282 78.7853 166.399 79.4579 166.247 81.3387C166.094 83.2195 163.638 86.637 162.661 90.3517C160.295 99.3647 159.947 109.645 164.557 118.091C166.043 120.816 165.707 123.577 165.695 126.545C165.683 128.691 166.051 132.437 167.568 136.621C169.085 140.805 170.458 150.643 170.657 152.25C170.857 153.857 169.852 155.066 169.519 155.601C169.183 156.137 168.045 157.345 166.704 157.948C165.363 158.55 164.628 159.019 165.429 159.422C166.231 159.824 174.982 159.254 175.15 159.422C175.318 159.59 175.752 159.019 175.35 156.943C174.947 154.866 175.283 150.776 175.283 150.776C175.283 150.776 175.22 141.986 175.439 135.139C175.658 128.292 175.256 123.143 175.107 122.474C174.955 121.809 174.724 107.936 175.35 106.309C175.979 104.683 176.167 101.66 176.167 101.66C176.167 101.66 179.346 102.782 183.021 104.831C186.697 106.88 198.005 111.076 200.813 110.798C203.62 110.524 204.156 105.414 199.589 100.037C195.022 94.6608 187.061 90.3087 186.709 89.5814C186.353 88.8541 186.185 84.9674 185.188 82.7151C184.191 80.4628 184.253 80.2595 184.206 78.582C184.163 76.9084 188.863 68.955 188.781 64.5248C188.699 60.0984 187.788 58.0573 186.826 57.0367C185.868 56.0122 180.984 55.2341 180.143 54.6828C179.303 54.1314 178.403 49.2945 178.153 48.532C177.899 47.7695 172.057 48.3912 172.057 48.3912H172.065Z" fill="#D6D6D6" stroke="#263238" stroke-linecap="round" stroke-linejoin="round"/>
<path d="M176.409 50.2597L171.623 53.3175L172.065 48.3906L176.409 50.2597Z" fill="#263238" stroke="#263238" stroke-linecap="round" stroke-linejoin="round"/>
<path d="M187.831 69.182L182.016 55.4806C181.774 55.4259 181.543 55.3751 181.324 55.3242C181.586 56.5559 181.825 58.4446 181.258 59.8327C179.979 62.9648 176.886 63.6021 173.934 63.2815C171.255 62.9921 169.488 59.8679 169.723 55.8756C169.394 56.0163 169.054 56.1415 168.714 56.2509C167.767 58.6792 164.553 65.9404 163.963 68.2396C163.646 69.4674 163.431 70.4606 163.29 71.1919C163.951 73.3777 164.647 75.3054 165.116 76.3064C165.503 77.1315 165.773 77.7532 165.957 78.2889L184.358 77.804C184.886 76.064 186.689 72.5252 187.827 69.1859L187.831 69.182Z" fill="#FF5100"/>
<path d="M186.713 89.5793C186.443 89.028 186.282 86.6623 185.782 84.5664C175.295 87.1902 168.182 85.673 165.023 84.6172C164.213 86.2908 163.204 88.2733 162.661 90.3496C160.295 99.3626 159.947 109.643 164.557 118.089C166.043 120.814 165.707 123.575 165.695 126.543C165.683 128.689 166.051 132.435 167.568 136.619C168.096 138.07 168.608 140.205 169.062 142.445L175.31 142.281C175.33 139.958 175.369 137.444 175.443 135.137C175.666 128.29 175.26 123.141 175.111 122.472C174.959 121.807 174.728 107.934 175.353 106.307C175.983 104.681 176.171 101.658 176.171 101.658C176.171 101.658 179.35 102.78 183.025 104.829C186.701 106.878 198.009 111.074 200.817 110.796C203.624 110.522 204.16 105.412 199.593 100.035C195.026 94.6587 187.065 90.3066 186.713 89.5793Z" fill="#263238" stroke="#263238" stroke-linecap="round" stroke-linejoin="round"/>
<path d="M172.769 34.6687C172.769 34.6687 172.311 35.9982 171.482 37.4606C170.653 38.923 169.089 39.8341 169.089 39.8341C169.089 39.8341 169.762 45.2654 170.09 46.1647C170.63 47.6467 171.541 49.5549 172.726 50.5754C173.609 51.334 175.49 52.3585 176.78 51.6429C179.369 50.2079 180.593 47.4433 180.882 44.6084C181.015 43.2985 180.839 38.8683 180.839 38.8683C180.839 38.8683 179.541 38.0315 179.174 37.4019C178.806 36.7724 178.681 36.4596 178.681 36.4596C178.681 36.4596 178.239 37.1908 177.789 36.9483C177.34 36.7059 175.377 33.9609 175.377 33.9609C175.377 33.9609 174.141 35.83 173.57 36.1898C172.995 36.5534 172.769 34.6687 172.769 34.6687Z" fill="#D6D6D6" stroke="#263238" stroke-linecap="round" stroke-linejoin="round"/>
<path d="M169.484 42.6249C169.484 42.6249 168.311 41.2368 167.889 42.2378C167.466 43.2388 168.186 44.3336 168.596 44.8459C169.007 45.3581 169.942 45.5184 169.942 45.5184L169.484 42.621V42.6249Z" fill="#D6D6D6" stroke="#263238" stroke-linecap="round" stroke-linejoin="round"/>
<path d="M180.992 41.7614C180.992 41.7614 181.86 40.3693 182.407 41.3117C182.955 42.2541 182.38 43.4271 182.036 43.9902C181.692 44.5533 180.921 44.8309 180.921 44.8309L180.992 41.7653V41.7614Z" fill="#D6D6D6" stroke="#263238" stroke-linecap="round" stroke-linejoin="round"/>
<path d="M174.063 44.8165C174.063 44.8165 174.556 45.4108 175.369 45.4812C176.182 45.5516 176.698 44.9807 176.839 44.7617" stroke="#263238" stroke-linecap="round" stroke-linejoin="round"/>
<path d="M173.285 46.6058C173.285 46.6058 175.342 48.7564 177.911 46.3086" stroke="#263238" stroke-linecap="round" stroke-linejoin="round"/>
<path d="M173.32 41.8724C173.347 42.3064 173.183 42.6701 172.956 42.6857C172.726 42.7013 172.518 42.3612 172.491 41.9232C172.464 41.4892 172.628 41.1255 172.855 41.1099C173.085 41.0943 173.293 41.4344 173.32 41.8724Z" fill="#263238"/>
<path d="M177.965 41.5755C177.993 42.0095 177.828 42.3732 177.602 42.3888C177.371 42.4045 177.164 42.0643 177.136 41.6263C177.109 41.1923 177.273 40.8287 177.5 40.813C177.731 40.7974 177.938 41.1376 177.965 41.5755Z" fill="#263238"/>
<path d="M171.162 40.6362C171.162 40.6362 171.705 39.3928 173.731 39.8072" stroke="#263238" stroke-linecap="round" stroke-linejoin="round"/>
<path d="M176.088 39.6164C176.088 39.6164 177.742 38.803 178.892 39.8549" stroke="#263238" stroke-linecap="round" stroke-linejoin="round"/>
<path d="M167.412 56.8583C167.412 56.8583 163.603 56.483 161.84 57.1829C160.076 57.8828 159.376 60.6317 159.231 61.8243C159.083 63.0169 152.69 73.2069 152.58 73.77C152.471 74.337 151.7 75.9793 153.601 76.8669C155.501 77.7545 157.601 76.8239 158.316 75.6156C159.036 74.4074 163.181 66.6026 163.181 66.6026" fill="#D6D6D6"/>
<path d="M167.412 56.8583C167.412 56.8583 163.603 56.483 161.84 57.1829C160.076 57.8828 159.376 60.6317 159.231 61.8243C159.083 63.0169 152.69 73.2069 152.58 73.77C152.471 74.337 151.7 75.9793 153.601 76.8669C155.501 77.7545 157.601 76.8239 158.316 75.6156C159.036 74.4074 163.181 66.6026 163.181 66.6026" stroke="#263238" stroke-linecap="round" stroke-linejoin="round"/>
<path d="M183.346 56.4418C183.346 56.4418 187.131 55.867 188.929 56.473C190.728 57.0791 191.569 59.7889 191.78 60.9698C191.991 62.1507 198.908 71.9888 199.049 72.5479C199.19 73.1071 200.042 74.7103 198.193 75.6956C196.343 76.681 194.197 75.8638 193.414 74.6946C192.632 73.5255 187.604 66.143 187.604 66.143" fill="#D6D6D6"/>
<path d="M183.346 56.4418C183.346 56.4418 187.131 55.867 188.929 56.473C190.728 57.0791 191.569 59.7889 191.78 60.9698C191.991 62.1507 198.908 71.9888 199.049 72.5479C199.19 73.1071 200.042 74.7103 198.193 75.6956C196.343 76.681 194.197 75.8638 193.414 74.6946C192.632 73.5255 187.604 66.143 187.604 66.143" stroke="#263238" stroke-linecap="round" stroke-linejoin="round"/>
<path d="M156.432 73.4221C156.432 73.4221 158.449 74.0399 163.013 74.6265C165.722 74.9745 172.499 74.0634 172.499 74.0634C172.499 74.0634 173.265 72.9685 173.386 72.163C173.848 69.1209 174.368 68.4483 174.56 66.8803C174.896 64.1393 175.31 64.4873 175.392 65.2967C175.474 66.1061 175.381 71.7994 175.459 72.4837C175.541 73.1679 175.842 75.2052 175.666 75.6509C175.49 76.0928 175.561 77.2346 174 77.3362C173.379 77.3753 172.683 77.4301 172.683 77.4301C172.683 77.4301 164.002 78.4702 161.007 78.611C158.012 78.7517 154.156 79.479 152.518 79.0215C150.879 78.564 151.72 74.8532 152.443 73.774C153.167 72.6909 154.156 72.4172 154.156 72.4172" fill="#D6D6D6"/>
<path d="M156.432 73.4221C156.432 73.4221 158.449 74.0399 163.013 74.6265C165.722 74.9745 172.499 74.0634 172.499 74.0634C172.499 74.0634 173.265 72.9685 173.386 72.163C173.848 69.1209 174.368 68.4483 174.56 66.8803C174.896 64.1393 175.31 64.4873 175.392 65.2967C175.474 66.1061 175.381 71.7994 175.459 72.4837C175.541 73.1679 175.842 75.2052 175.666 75.6509C175.49 76.0928 175.561 77.2346 174 77.3362C173.379 77.3753 172.683 77.4301 172.683 77.4301C172.683 77.4301 164.002 78.4702 161.007 78.611C158.012 78.7517 154.156 79.479 152.518 79.0215C150.879 78.564 151.72 74.8532 152.443 73.774C153.167 72.6909 154.156 72.4172 154.156 72.4172" stroke="#263238" stroke-linecap="round" stroke-linejoin="round"/>
<path d="M194.744 72.4112C194.744 72.4112 192.762 73.1345 188.237 73.9635C185.551 74.4562 178.736 73.9009 178.736 73.9009C178.736 73.9009 177.914 72.8491 177.75 72.0514C177.132 69.0366 176.573 68.3915 176.3 66.8391C175.823 64.1215 175.424 64.4852 175.385 65.3024C175.345 66.1157 175.74 71.7933 175.697 72.4854C175.654 73.1776 175.459 75.2265 175.658 75.6566C175.858 76.0907 175.85 77.2324 177.41 77.252C178.036 77.2598 178.732 77.2755 178.732 77.2755C178.732 77.2755 187.455 77.8581 190.455 77.8385C193.454 77.819 197.344 78.3429 198.955 77.8033C200.566 77.2598 199.53 73.5999 198.756 72.5597C197.982 71.5196 196.973 71.2928 196.973 71.2928" fill="#D6D6D6"/>
<path d="M194.744 72.4112C194.744 72.4112 192.762 73.1345 188.237 73.9635C185.551 74.4562 178.736 73.9009 178.736 73.9009C178.736 73.9009 177.914 72.8491 177.75 72.0514C177.132 69.0366 176.573 68.3915 176.3 66.8391C175.823 64.1215 175.424 64.4852 175.385 65.3024C175.345 66.1157 175.74 71.7933 175.697 72.4854C175.654 73.1776 175.459 75.2265 175.658 75.6566C175.858 76.0907 175.85 77.2324 177.41 77.252C178.036 77.2598 178.732 77.2755 178.732 77.2755C178.732 77.2755 187.455 77.8581 190.455 77.8385C193.454 77.819 197.344 78.3429 198.955 77.8033C200.566 77.2598 199.53 73.5999 198.756 72.5597C197.982 71.5196 196.973 71.2928 196.973 71.2928" stroke="#263238" stroke-linecap="round" stroke-linejoin="round"/>
<path d="M198.302 106.17C198.302 106.17 182.877 107.21 180.562 107.269C178.247 107.332 175.561 106.698 174.591 107.214C173.621 107.73 173.449 109.212 173.828 110.327C174.208 111.441 174.52 112.556 174.137 114.112C173.754 115.668 173.582 117.076 173.973 118.472C174.36 119.868 174.962 121.326 175.803 121.232C176.644 121.139 176.339 120.306 176.468 119.809C176.597 119.313 177.16 116.771 177.754 115.281C178.348 113.791 178.865 112.09 179.963 111.218C181.062 110.346 190.501 111.293 195.941 112.481C201.38 113.674 204.668 113.166 205.978 112.286C207.288 111.41 207.511 109.154 204.969 106.061C202.428 102.968 199.593 100.031 199.593 100.031" fill="#263238"/>
<path d="M198.302 106.17C198.302 106.17 182.877 107.21 180.562 107.269C178.247 107.332 175.561 106.698 174.591 107.214C173.621 107.73 173.449 109.212 173.828 110.327C174.208 111.441 174.52 112.556 174.137 114.112C173.754 115.668 173.582 117.076 173.973 118.472C174.36 119.868 174.962 121.326 175.803 121.232C176.644 121.139 176.339 120.306 176.468 119.809C176.597 119.313 177.16 116.771 177.754 115.281C178.348 113.791 178.865 112.09 179.963 111.218C181.062 110.346 190.501 111.293 195.941 112.481C201.38 113.674 204.668 113.166 205.978 112.286C207.288 111.41 207.511 109.154 204.969 106.061C202.428 102.968 199.593 100.031 199.593 100.031" stroke="#263238" stroke-linecap="round" stroke-linejoin="round"/>
<path d="M186.415 106.945C183.686 107.113 181.352 107.25 180.558 107.274C178.243 107.336 175.557 106.703 174.587 107.219C173.617 107.735 173.445 109.217 173.824 110.332C174.204 111.446 174.516 112.56 174.133 114.117C173.754 115.673 173.578 117.081 173.969 118.477C174.356 119.872 174.958 121.331 175.799 121.237C176.64 121.143 176.335 120.31 176.464 119.814C176.593 119.317 177.156 116.776 177.75 115.286C178.345 113.796 178.861 112.095 179.959 111.223C180.526 110.773 183.295 110.809 186.595 111.106C186.368 109.815 186.368 108.185 186.419 106.945H186.415Z" fill="#D6D6D6" stroke="#263238" stroke-linecap="round" stroke-linejoin="round"/>
<path d="M95.0026 50.657C95.0026 50.657 92.7698 51.9239 90.7209 55.709C88.6719 59.4941 85.8722 64.1316 83.663 66.857C81.4537 69.5824 80.1281 71.0527 81.3794 72.7458C82.6307 74.4389 91.3191 81.2153 91.3191 81.2153C91.3191 81.2153 91.5381 82.6894 91.9096 83.276C92.2772 83.8664 92.719 84.5272 92.719 84.5272C92.719 84.5272 91.6867 84.6015 92.2772 85.1881C92.8676 85.7746 94.1932 86.5136 94.4121 86.5136C94.6311 86.5136 96.6957 81.2114 96.5471 80.9181C96.3985 80.6248 92.6447 77.8251 91.8353 76.0577C91.0259 74.2903 89.2585 70.7555 89.2585 70.7555L92.7933 66.4855C92.7933 66.4855 92.7933 58.974 93.7513 55.5878C94.7093 52.2015 95.4444 50.5084 95.0026 50.6531V50.657Z" fill="#E3E3E3" stroke="#263238" stroke-linecap="round" stroke-linejoin="round"/>
<path d="M88.8166 70.0261C88.8166 70.0261 86.9006 67.8169 85.7236 67.375" stroke="#263238" stroke-linecap="round" stroke-linejoin="round"/>
<path d="M92.719 84.5312L93.5284 85.2664" stroke="#263238" stroke-linecap="round" stroke-linejoin="round"/>
<path d="M113.513 37.543C113.513 37.543 112.192 41.5079 112.11 44.6439C112.028 47.7838 115.993 46.7906 118.632 48.5268C121.275 50.2629 121.936 51.8309 122.018 55.3813C122.1 58.9318 115.578 71.2373 115.328 72.8874C115.081 74.5375 116.071 80.8994 116.153 82.8779C116.235 84.8604 116.481 89.4002 116.814 90.5576C117.142 91.715 118.135 99.8913 117.889 107.489C117.643 115.086 117.064 116.162 117.561 118.14C118.057 120.119 119.707 124.416 118.468 131.849C117.228 139.283 115.742 146.055 115.742 147.044C115.742 148.034 116.071 151.092 116.071 151.092H110.456C110.456 151.092 110.041 149.441 110.041 146.055C110.041 142.669 110.205 139.615 109.959 136.557C109.713 133.503 108.309 129.785 107.894 125.738C107.48 121.691 108.059 117.726 108.059 117.726L105.415 105.835C105.415 105.835 103.597 118.14 103.515 118.883C103.433 119.626 103.187 121.526 104.094 124.995C105.001 128.463 104.34 132.757 103.765 134.493C103.187 136.229 101.286 145.477 101.286 145.477L100.958 151.588C100.958 151.588 98.8932 153.324 97.9039 153.156C96.9146 152.992 95.2606 151.752 95.1785 151.256C95.0964 150.759 94.764 130.281 94.5998 128.049C94.4355 125.82 94.3534 120.78 94.3534 120.78C94.3534 120.78 93.0982 115.642 92.7776 110.281C92.5782 106.922 92.3749 101.917 93.6926 90.4716C94.4473 83.9376 93.7747 75.2765 93.2781 71.8903C92.7815 68.504 91.2135 65.8607 91.8744 59.3385C92.5352 52.8162 95.3427 49.6764 97.8218 48.6871C100.301 47.6978 102.94 47.7799 103.769 46.294C104.598 44.8081 104.43 41.9185 104.43 41.9185L113.513 37.543Z" fill="#E3E3E3" stroke="#263238" stroke-linecap="round" stroke-linejoin="round"/>
<path d="M104.528 43.4826C105.22 43.3027 112.215 43.205 112.215 43.205L113.51 37.543L104.524 43.4826H104.528Z" fill="#263238" stroke="#263238" stroke-linecap="round" stroke-linejoin="round"/>
<path d="M110.061 147.16H115.746C115.766 148.247 116.075 151.094 116.075 151.094H110.46C110.46 151.094 110.139 149.8 110.061 147.16Z" fill="#D6D6D6" stroke="#263238" stroke-linecap="round" stroke-linejoin="round"/>
<path d="M101.2 147.16L100.962 151.587C100.962 151.587 98.8972 153.323 97.9079 153.155C96.9186 152.99 95.2646 151.751 95.1825 151.254C95.159 151.117 95.1199 149.495 95.0691 147.156H101.204L101.2 147.16Z" fill="#D6D6D6" stroke="#263238" stroke-linecap="round" stroke-linejoin="round"/>
<path d="M103.57 25.2949C103.57 25.2949 101.247 34.3861 100.766 35.7547C100.289 37.1232 100.629 37.7371 101.517 40.0598C102.405 42.3825 102.815 43.2036 104.524 43.4773C106.233 43.7511 108.966 42.7266 110.542 41.6982C112.114 40.6737 113.549 38.6912 114.166 37.5964C114.78 36.5015 116.489 29.8033 116.489 29.8033C116.489 29.8033 116.966 26.9997 114.507 25.3613C112.047 23.719 109.791 22.9683 108.082 23.3124C106.373 23.6526 103.57 25.2949 103.57 25.2949Z" fill="#E3E3E3" stroke="#263238" stroke-linecap="round" stroke-linejoin="round"/>
<path d="M105.623 29.5352C105.623 29.5352 105.556 31.3808 104.528 33.0895C103.503 34.7983 103.147 35.072 103.558 35.6859C103.969 36.2998 105.658 37.2813 107.026 35.5725" stroke="#263238" stroke-linecap="round" stroke-linejoin="round"/>
<path d="M108.289 36.8477C108.289 36.8477 107.058 39.0335 103.914 38.5564" stroke="#263238" stroke-linecap="round" stroke-linejoin="round"/>
<path d="M108.153 29.5339C108.153 29.5339 109.861 29.1937 110.819 30.969" stroke="#263238" stroke-linecap="round" stroke-linejoin="round"/>
<path d="M105.415 28.7825C105.415 28.7825 104.594 27.3474 103.433 28.235" stroke="#263238" stroke-linecap="round" stroke-linejoin="round"/>
<path d="M108.422 32.6814C108.297 33.0646 108.383 33.4361 108.61 33.5065C108.837 33.5769 109.122 33.3266 109.243 32.9434C109.365 32.5602 109.283 32.1888 109.056 32.1184C108.829 32.0441 108.544 32.2982 108.422 32.6814Z" fill="#263238"/>
<path d="M104.062 31.2088C103.937 31.592 104.023 31.9635 104.25 32.0338C104.477 32.1042 104.762 31.854 104.884 31.4708C105.005 31.0876 104.923 30.7161 104.696 30.6457C104.469 30.5714 104.184 30.8256 104.062 31.2088Z" fill="#263238"/>
<path d="M115.535 36.1651C115.535 36.1651 119.16 29.5333 118.542 27.6877C117.928 25.8421 109.451 19.6874 104.938 20.5086C100.426 21.3297 104.051 22.3542 104.051 22.3542C104.051 22.3542 100.289 24.1998 100.289 25.5684C100.289 26.937 109.517 25.1578 109.517 25.1578C109.517 25.1578 107.672 26.6632 108.696 27.0034C109.72 27.3436 111.91 27.8246 112.114 27.891C112.317 27.9575 114.78 29.9439 113.893 29.9439C113.005 29.9439 111.977 29.5333 112.458 30.421C112.935 31.3086 113.552 32.0632 113.552 32.0632C113.552 32.0632 113.005 35.688 113.075 36.0282C113.142 36.3684 114.374 35.1406 114.374 35.1406L115.535 36.1651Z" fill="#263238" stroke="#263238" stroke-linecap="round" stroke-linejoin="round"/>
<path d="M113.169 36.939C113.169 36.939 114.972 34.3739 116.035 34.9956C117.099 35.6173 115.707 38.9606 114.972 39.4259C114.233 39.8912 112.184 39.0388 112.184 39.0388" fill="#E3E3E3"/>
<path d="M113.169 36.939C113.169 36.939 114.972 34.3739 116.035 34.9956C117.099 35.6173 115.707 38.9606 114.972 39.4259C114.233 39.8912 112.184 39.0388 112.184 39.0388" stroke="#263238" stroke-linecap="round" stroke-linejoin="round"/>
<path d="M115.609 77.6797C115.84 79.7482 116.114 81.8753 116.157 82.8803C116.239 84.8627 116.485 89.4025 116.818 90.5599C117.146 91.7173 118.139 99.8936 117.893 107.491C117.842 109.012 117.779 110.267 117.717 111.323H106.643L105.423 105.841C105.423 105.841 105.04 108.441 104.618 111.323H92.8558C92.8284 110.979 92.805 110.635 92.7815 110.291C92.5821 106.932 92.3788 101.927 93.6965 90.4817C94.1618 86.4464 94.0836 81.5977 93.8373 77.6836H115.613L115.609 77.6797Z" fill="#263238" stroke="#263238" stroke-linecap="round" stroke-linejoin="round"/>
<path d="M92.0386 62.317C93.4424 57.6912 95.3428 56.2875 96.9929 54.0587C97.9743 52.737 99.1865 50.0155 100.008 48.0252C100.704 47.8532 101.364 47.7085 101.943 47.5208C101.4 48.3889 100.317 50.4926 99.7144 54.2229C98.8893 59.3414 101.282 59.3414 104.669 58.1057C108.055 56.8701 110.862 49.5189 111.77 47.8649C112.153 47.165 112.45 46.6449 112.661 46.2773C113.119 46.7387 113.815 46.9812 114.612 47.1845C113.158 48.5726 110.448 51.8533 109.373 56.2054C107.887 62.2349 111.852 67.0249 114.741 67.4355C115.735 67.5763 116.806 67.3847 117.787 67.0718C116.513 69.8794 115.418 72.2255 115.32 72.8863C115.168 73.9147 115.492 76.7613 115.778 79.2443H93.9351C93.7787 76.1553 93.4972 73.4611 93.2704 71.8931C92.8911 69.2889 91.8744 67.1227 91.7258 63.2985C91.8275 62.9778 91.9292 62.6533 92.0308 62.3131L92.0386 62.317Z" fill="#FF5100"/>
<path d="M87.4167 57.7778C91.7963 57.7778 95.3466 54.2274 95.3466 49.8479C95.3466 45.4683 91.7963 41.918 87.4167 41.918C83.0372 41.918 79.4868 45.4683 79.4868 49.8479C79.4868 54.2274 83.0372 57.7778 87.4167 57.7778Z" fill="#878787" stroke="#263238" stroke-linecap="round" stroke-linejoin="round"/>
<path d="M88.2417 57.7778C92.6212 57.7778 96.1716 54.2274 96.1716 49.8479C96.1716 45.4683 92.6212 41.918 88.2417 41.918C83.8621 41.918 80.3118 45.4683 80.3118 49.8479C80.3118 54.2274 83.8621 57.7778 88.2417 57.7778Z" fill="#263238" stroke="#263238" stroke-linecap="round" stroke-linejoin="round"/>
<path d="M88.2417 51.793C89.315 51.793 90.1851 50.9229 90.1851 49.8496C90.1851 48.7763 89.315 47.9062 88.2417 47.9062C87.1684 47.9062 86.2983 48.7763 86.2983 49.8496C86.2983 50.9229 87.1684 51.793 88.2417 51.793Z" fill="#878787" stroke="#263238" stroke-linecap="round" stroke-linejoin="round"/>
<path d="M118.632 48.5258C118.632 48.5258 122.1 50.0116 122.433 53.5621C122.765 57.1126 121.854 62.4813 118.632 65.3709C115.41 68.2606 109.959 77.0156 108.473 76.8513C106.987 76.6871 94.154 65.8558 91.7336 63.3024C89.3132 60.7491 86.009 57.8594 84.9376 56.2054C83.8623 54.5553 83.2015 51.9941 83.1194 51.3333C83.0373 50.6725 85.9269 47.947 86.8341 48.0292C87.7413 48.1113 89.0629 50.3401 89.0629 50.3401C89.0629 50.3401 90.799 50.9188 90.9633 51.4975C91.1275 52.0762 90.6348 52.8192 90.6348 53.3979C90.6348 53.9766 90.9633 55.134 90.7169 55.7088C90.4706 56.2836 90.2203 57.0305 90.2203 57.0305C90.2203 57.0305 92.367 58.7666 94.0211 59.5095C95.6712 60.2525 105.994 63.8851 105.994 63.8851C105.994 63.8851 107.316 60.5809 108.059 59.5095C108.802 58.4342 110.538 57.3628 110.538 57.3628C110.538 57.3628 110.784 55.2161 111.527 54.1408" fill="#E3E3E3"/>
<path d="M118.632 48.5258C118.632 48.5258 122.1 50.0116 122.433 53.5621C122.765 57.1126 121.854 62.4813 118.632 65.3709C115.41 68.2606 109.959 77.0156 108.473 76.8513C106.987 76.6871 94.154 65.8558 91.7336 63.3024C89.3132 60.7491 86.009 57.8594 84.9376 56.2054C83.8623 54.5553 83.2015 51.9941 83.1194 51.3333C83.0373 50.6725 85.9269 47.947 86.8341 48.0292C87.7413 48.1113 89.0629 50.3401 89.0629 50.3401C89.0629 50.3401 90.799 50.9188 90.9633 51.4975C91.1275 52.0762 90.6348 52.8192 90.6348 53.3979C90.6348 53.9766 90.9633 55.134 90.7169 55.7088C90.4706 56.2836 90.2203 57.0305 90.2203 57.0305C90.2203 57.0305 92.367 58.7666 94.0211 59.5095C95.6712 60.2525 105.994 63.8851 105.994 63.8851C105.994 63.8851 107.316 60.5809 108.059 59.5095C108.802 58.4342 110.538 57.3628 110.538 57.3628C110.538 57.3628 110.784 55.2161 111.527 54.1408" stroke="#263238" stroke-linecap="round" stroke-linejoin="round"/>
<path d="M105.998 63.8828C105.998 63.8828 106.327 65.5329 107.073 66.3619" stroke="#263238" stroke-linecap="round" stroke-linejoin="round"/>
<path d="M91.233 57.7969C92.0072 58.356 93.0942 59.0912 94.021 59.5095C94.3807 59.6699 95.1471 59.967 96.1286 60.3346L93.4188 64.9135C92.6798 64.237 92.0893 63.6778 91.7335 63.3024C91.0297 62.5595 90.2476 61.7853 89.4695 61.0228L91.2291 57.7969H91.233Z" fill="#FF5100"/>
<path d="M90.6347 57.7778C95.0143 57.7778 98.5647 54.2274 98.5647 49.8479C98.5647 45.4683 95.0143 41.918 90.6347 41.918C86.2552 41.918 82.7048 45.4683 82.7048 49.8479C82.7048 54.2274 86.2552 57.7778 90.6347 57.7778Z" fill="#878787" stroke="#263238" stroke-linecap="round" stroke-linejoin="round"/>
<path d="M91.4636 57.7778C95.8432 57.7778 99.3935 54.2274 99.3935 49.8479C99.3935 45.4683 95.8432 41.918 91.4636 41.918C87.084 41.918 83.5337 45.4683 83.5337 49.8479C83.5337 54.2274 87.084 57.7778 91.4636 57.7778Z" fill="#878787" stroke="#263238" stroke-linecap="round" stroke-linejoin="round"/>
<path d="M91.4636 51.793C92.5369 51.793 93.407 50.9229 93.407 49.8496C93.407 48.7763 92.5369 47.9062 91.4636 47.9062C90.3903 47.9062 89.5203 48.7763 89.5203 49.8496C89.5203 50.9229 90.3903 51.793 91.4636 51.793Z" fill="#878787" stroke="#263238" stroke-linecap="round" stroke-linejoin="round"/>
<path d="M110.577 149.089C110.577 149.089 111.859 146.907 113.654 147.102C115.449 147.294 115.578 149.089 115.578 149.667C115.578 150.246 116.923 152.232 117.052 152.936C117.181 153.64 117.885 154.989 118.077 155.118C118.268 155.247 119.039 155.759 119.422 156.463C119.805 157.167 120.192 158.196 120.063 158.899C119.934 159.603 119.101 159.541 118.397 159.603C117.693 159.666 110.19 159.603 110.19 159.603C110.19 159.603 109.548 158.899 109.357 157.808C109.165 156.717 109.486 154.923 109.357 153.449C109.228 151.974 108.778 150.5 109.228 149.859C109.678 149.218 110.573 149.089 110.573 149.089H110.577Z" fill="white" stroke="#263238" stroke-linecap="round" stroke-linejoin="round"/>
<path d="M109.47 158.258H120.067C120.098 158.485 120.106 158.704 120.067 158.899C119.938 159.603 119.105 159.54 118.401 159.603C117.697 159.665 110.194 159.603 110.194 159.603C110.194 159.603 109.728 159.087 109.47 158.258Z" fill="white" stroke="#263238" stroke-linecap="round" stroke-linejoin="round"/>
<path d="M101.728 149.983C101.728 149.983 101.92 157.229 101.857 157.933C101.795 158.636 101.536 159.023 100.958 159.215C100.379 159.407 96.3398 159.278 95.2489 159.536C94.1579 159.794 89.798 160.048 88.8361 159.919C87.8742 159.79 86.6542 160.11 86.4626 158.957C86.271 157.803 86.8458 156.842 87.0413 156.775C87.2329 156.713 90.6974 155.043 91.7219 154.339C92.7463 153.635 94.0289 152.224 94.3495 151.582C94.6702 150.941 94.6076 149.08 95.4405 149.146C96.2733 149.209 97.0437 150.3 97.3017 150.878L97.5598 151.457C97.5598 151.457 99.9959 151.199 100.508 151.008C101.02 150.816 100.958 149.404 101.728 149.983Z" fill="white" stroke="#263238" stroke-linecap="round" stroke-linejoin="round"/>
<path d="M88.8401 159.924C87.8782 159.795 86.6582 160.116 86.4666 158.962C86.4548 158.896 86.4548 158.829 86.447 158.763C87.9798 159.009 90.7834 159.072 93.196 158.704C95.4835 158.356 99.9646 157.856 101.865 157.645C101.865 157.777 101.861 157.875 101.853 157.934C101.791 158.638 101.533 159.025 100.954 159.216C100.375 159.408 96.3359 159.279 95.245 159.537C94.154 159.795 89.7942 160.049 88.8322 159.92L88.8401 159.924Z" fill="white" stroke="#263238" stroke-linecap="round" stroke-linejoin="round"/>
<path d="M153.585 73.625C153.585 73.625 153.214 77.4922 153.214 80.7689C153.214 84.0457 153.734 89.5474 153.734 89.5474C153.734 89.5474 154.254 95.4244 154.254 99.1469C154.254 102.869 153.734 106.96 153.734 106.96C153.734 106.96 153.734 110.53 153.511 111.202C153.288 111.871 151.798 113.212 151.204 113.881C150.61 114.549 149.941 114.549 149.941 114.326C149.941 114.103 150.164 113.435 150.461 113.212C150.758 112.989 151.427 111.949 151.501 111.648C151.575 111.351 151.501 109.118 151.501 109.118C151.501 109.118 150.833 109.935 150.61 110.682C150.387 111.425 149.941 112.84 149.57 112.618C149.198 112.395 149.495 110.905 149.718 110.385C149.941 109.865 149.57 107.706 150.164 106.963C150.758 106.221 151.055 106.518 151.278 105.251C151.501 103.988 149.788 95.9484 149.417 93.9424C149.046 91.9326 148.823 88.214 148.823 88.214L147.708 77.5743L153.585 73.6289V73.625Z" fill="#E3E3E3" stroke="#263238" stroke-linecap="round" stroke-linejoin="round"/>
<path d="M127.762 127.102C127.762 127.102 127.606 130.159 127.371 131.649C127.137 133.139 125.96 136.04 126.663 140.592C127.371 145.139 127.528 152.514 127.528 152.983C127.528 153.452 127.371 155.181 127.371 155.181H131.606C131.606 155.181 132.705 151.259 132.627 150.16C132.548 149.061 132.939 141.452 133.413 139.884C133.882 138.316 134.511 133.295 134.668 131.649C134.824 130.003 135.215 127.102 135.215 127.102H127.606H127.762Z" fill="#E3E3E3" stroke="#263238" stroke-linecap="round" stroke-linejoin="round"/>
<path d="M131.532 152.022C131.532 152.022 130.621 150.473 129.35 150.61C128.075 150.747 127.985 152.022 127.985 152.428C127.985 152.835 127.031 154.247 126.937 154.747C126.847 155.248 126.347 156.202 126.21 156.296C126.073 156.386 125.526 156.749 125.256 157.25C124.982 157.75 124.708 158.477 124.802 158.978C124.892 159.478 125.487 159.432 125.983 159.478C126.484 159.525 131.805 159.478 131.805 159.478C131.805 159.478 132.259 158.978 132.396 158.204C132.533 157.43 132.306 156.155 132.396 155.111C132.486 154.063 132.806 153.019 132.486 152.561C132.169 152.108 131.532 152.014 131.532 152.014V152.022Z" fill="white" stroke="#263238" stroke-linecap="round" stroke-linejoin="round"/>
<path d="M132.318 158.523H124.802C124.779 158.684 124.775 158.84 124.802 158.977C124.892 159.478 125.487 159.431 125.983 159.478C126.484 159.524 131.805 159.478 131.805 159.478C131.805 159.478 132.138 159.11 132.318 158.523Z" fill="white" stroke="#263238" stroke-linecap="round" stroke-linejoin="round"/>
<path d="M142.664 128.045L142.899 131.103C142.899 131.103 142.586 135.729 143.368 138.477C144.154 141.222 147.212 154.947 147.212 154.947L151.134 154.869C151.134 154.869 150.348 141.535 150.586 138.004C150.821 134.473 149.8 129.218 149.8 128.983C149.8 128.749 149.409 126.082 149.409 126.082L142.664 128.041V128.045Z" fill="#E3E3E3" stroke="#263238" stroke-linecap="round" stroke-linejoin="round"/>
<path d="M150.903 151.731C150.903 151.731 149.804 150.71 148.784 151.418C147.763 152.126 147.763 153.537 147.763 153.537C147.763 153.537 146.195 153.381 146.117 154.006C146.039 154.632 146.43 159.027 146.664 159.262C146.899 159.496 149.722 159.731 150.195 159.809C150.664 159.887 154.274 160.2 155.451 159.575C156.628 158.949 155.607 158.163 154.981 157.221C154.356 156.278 152.471 154.867 152.002 154.163C151.533 153.455 150.903 151.731 150.903 151.731Z" fill="white" stroke="#263238" stroke-linecap="round" stroke-linejoin="round"/>
<path d="M149.413 158.555C148.064 158.231 147.051 158.207 146.445 158.243C146.524 158.794 146.602 159.193 146.668 159.259C146.903 159.494 149.726 159.729 150.199 159.807C150.668 159.885 154.277 160.198 155.454 159.572C156.092 159.232 156.084 158.845 155.842 158.411C153.992 159.087 151.36 159.021 149.417 158.552L149.413 158.555Z" fill="white" stroke="#263238" stroke-linecap="round" stroke-linejoin="round"/>
<path d="M126.116 108.59L123.762 126.55C123.762 126.55 126.585 128.196 130.194 128.747C133.804 129.294 136.627 128.825 136.627 128.825L137.96 119.101L138.351 128.825C138.351 128.825 142.195 129.846 145.882 129.373C149.57 128.903 152.94 126.941 152.94 126.941L149.648 108.508H126.355L126.12 108.586L126.116 108.59Z" fill="#263238" stroke="#263238" stroke-linecap="round" stroke-linejoin="round"/>
<path d="M148.823 78.2391L155.22 73.4022C155.22 73.4022 154.403 70.8722 152.764 69.9807C151.126 69.0892 146.441 67.9709 145.62 67.748C144.803 67.5251 143.313 66.7079 143.016 65.961C142.719 65.2181 142.496 62.7625 142.496 62.7625L136.173 62.0195C136.173 62.0195 135.688 65.0343 135.094 65.8515C134.5 66.6688 134.202 67.1145 130.629 68.0843C130.629 68.0843 128.212 68.4205 126.425 69.1635C124.638 69.9064 123.078 71.4705 123.078 71.4705L124.978 73.4178C124.212 75.5606 122.253 78.2469 122.034 78.5402C121.811 78.8373 119.207 83.3771 119.207 83.3771L128.134 91.1154C128.134 91.1154 125.381 107.929 125.307 108.825L125.232 109.716C125.232 109.716 132.658 111.456 139.133 111.308C145.605 111.159 150.383 109.791 150.383 109.791C150.383 109.791 148.522 88.957 148.522 85.6841C148.522 82.4113 148.819 78.243 148.819 78.243L148.823 78.2391Z" fill="#FF5100"/>
<path d="M139.114 74.0708C142.156 74.0708 144.717 71.3728 145.483 67.705C144.647 67.4352 143.302 66.6649 143.02 65.961C142.723 65.2181 142.5 62.7625 142.5 62.7625L136.177 62.0195C136.177 62.0195 135.692 65.0343 135.098 65.8515C134.648 66.4733 134.363 66.8799 132.697 67.4625C133.401 71.2554 136.005 74.0747 139.118 74.0747L139.114 74.0708Z" fill="white" stroke="#263238" stroke-linecap="round" stroke-linejoin="round"/>
<path d="M143.947 66.9308C143.513 66.6336 143.153 66.2895 143.02 65.961C142.723 65.2181 142.5 62.7625 142.5 62.7625L136.177 62.0195C136.177 62.0195 135.692 65.0343 135.098 65.8515C134.812 66.2465 134.589 66.5554 134.042 66.876C135.031 68.9523 136.967 72.3581 139.078 72.5106C141.409 72.6827 143.133 69.0266 143.947 66.9308Z" fill="#E3E3E3" stroke="#263238" stroke-linecap="round" stroke-linejoin="round"/>
<path d="M141.362 63.4232L134.546 66.7899C134.546 66.7899 136.322 63.7399 136.173 62.0194C136.024 60.3028 141.362 63.4232 141.362 63.4232Z" fill="#263238" stroke="#263238" stroke-linecap="round" stroke-linejoin="round"/>
<path d="M128.138 91.1117L127.618 77.1248L124.982 73.418C124.216 75.5608 122.257 78.2471 122.038 78.5403C121.815 78.8375 119.211 83.3773 119.211 83.3773L128.138 91.1156V91.1117Z" fill="#E3E3E3" stroke="#263238" stroke-linecap="round" stroke-linejoin="round"/>
<path d="M122.978 95.3715C127.183 94.4031 129.806 90.2095 128.838 86.0048C127.869 81.8001 123.676 79.1766 119.471 80.145C115.266 81.1134 112.643 85.307 113.611 89.5117C114.58 93.7164 118.773 96.3399 122.978 95.3715Z" fill="#B2B2B2" stroke="#263238" stroke-linecap="round" stroke-linejoin="round"/>
<path d="M122.233 80.0234C120.352 81.7948 119.132 84.6023 119.132 87.7617C119.132 90.9212 120.348 93.7287 122.233 95.5C126.065 94.9995 129.029 91.7306 129.029 87.7617C129.029 83.7929 126.065 80.52 122.233 80.0234Z" stroke="#263238" stroke-linecap="round" stroke-linejoin="round"/>
<path d="M113.408 87.7636C113.408 89.8321 114.217 91.7051 115.527 93.101C117.056 91.6738 118.022 89.6483 118.022 87.3921C118.022 85.3236 117.213 83.4506 115.903 82.0547C114.374 83.4819 113.408 85.5074 113.408 87.7636Z" stroke="#263238" stroke-linecap="round" stroke-linejoin="round"/>
<path d="M122.409 88.0613C122.409 90.6068 123.633 92.8591 125.514 94.2863C127.633 92.8904 129.029 90.4895 129.029 87.7641C129.029 85.2186 127.805 82.9663 125.924 81.5391C123.805 82.935 122.409 85.3359 122.409 88.0613Z" stroke="#263238" stroke-linecap="round" stroke-linejoin="round"/>
<path d="M113.963 84.6992C113.963 84.6992 113.216 85.0081 112.821 85.4891C112.426 85.97 112.766 87.5107 113.083 87.6397C113.404 87.7687 114.839 89.2624 115.187 88.6055C115.539 87.9486 114.573 87.1157 114.44 86.8498C114.307 86.5879 113.74 85.665 113.74 85.665L113.959 84.6992H113.963Z" fill="#E3E3E3" stroke="#263238" stroke-linecap="round" stroke-linejoin="round"/>
<path d="M112.649 86.8477C112.649 86.8477 111.816 88.6033 112.078 88.9083C112.34 89.2133 114.182 89.9602 114.62 89.6083C115.058 89.2563 114.753 88.6855 114.753 88.6855L113.087 87.6336L112.649 86.8438V86.8477Z" fill="#E3E3E3" stroke="#263238" stroke-linecap="round" stroke-linejoin="round"/>
<path d="M112.473 89.2578C112.473 89.2578 112.297 90.0047 112.692 90.3996C113.087 90.7945 114.491 90.6616 114.753 90.4856C115.015 90.3097 114.62 89.6097 114.62 89.6097C114.62 89.6097 113.173 89.4768 112.469 89.2578H112.473Z" fill="#E3E3E3" stroke="#263238" stroke-linecap="round" stroke-linejoin="round"/>
<path d="M113.087 90.7933C113.087 90.7933 113.22 91.4072 113.658 91.5401C114.096 91.6731 115.019 91.3212 115.105 91.0592C115.191 90.7972 114.753 90.4883 114.753 90.4883C114.753 90.4883 113.349 90.8832 113.087 90.7972V90.7933Z" fill="#E3E3E3" stroke="#263238" stroke-linecap="round" stroke-linejoin="round"/>
<path d="M138.715 47.8686C135.227 48.0211 133.178 50.6096 133.178 50.6096C133.178 50.6096 132.15 52.4631 132.388 53.7261C132.627 54.9891 132.94 60.9717 133.651 62.2347C134.363 63.4977 136.732 65.8555 139.258 66.1097C141.784 66.3639 144.471 63.4977 145.1 61.8984C145.734 60.2991 145.89 54.3165 145.89 54.3165C145.89 54.3165 145.331 52.424 145.049 51.6654C144.764 50.9068 142.203 47.7161 138.715 47.8686Z" fill="#E3E3E3" stroke="#263238" stroke-linecap="round" stroke-linejoin="round"/>
<path d="M137.788 45.5933C137.788 45.5933 136.224 44.3029 134.871 44.8347C133.518 45.3665 135.297 46.1251 135.297 46.1251C135.297 46.1251 132.38 45.8201 131.884 46.7312C131.387 47.6423 132.81 48.3266 132.81 48.3266C132.81 48.3266 130.746 48.8583 130.746 49.7694C130.746 50.6805 131.673 50.833 131.673 50.833C131.673 50.833 131.458 51.2123 131.673 52.3502C131.888 53.488 132.783 56.6788 132.783 56.6788C132.783 56.6788 133.096 56.452 133.237 55.4627C133.377 54.4734 133.166 54.2466 133.307 53.9455C133.448 53.6405 134.445 52.8819 134.801 52.3502C135.157 51.8184 136.224 50.9855 136.224 50.9855C136.224 50.9855 135.016 52.2016 135.798 52.2759C136.58 52.3502 139.427 50.9855 139.782 50.4537C140.138 49.9219 139.567 51.6698 140.138 51.5173C140.709 51.3648 141.421 49.6208 141.421 49.6208C141.421 49.6208 141.777 51.2162 142.273 51.2162C142.77 51.2162 143.126 50.9894 143.126 50.9894C143.126 50.9894 143.552 52.2055 144.123 52.5848C144.694 52.9641 145.19 53.8008 145.19 53.8008L145.796 56.5106C145.796 56.5106 146.684 55.3962 146.829 54.8644C146.969 54.3326 146.758 52.8155 146.758 52.8155L146.899 51.3726C146.899 51.3726 147.681 51.2983 147.54 50.4615C147.399 49.6247 145.831 48.4869 145.831 48.4869C145.831 48.4869 146.684 47.7283 145.902 47.1222C145.12 46.5161 142.344 46.8172 142.344 46.8172C142.344 46.8172 143.27 44.9208 141.561 44.6901C139.853 44.4633 138.289 45.6011 138.289 45.6011" fill="#263238"/>
<path d="M137.788 45.5933C137.788 45.5933 136.224 44.3029 134.871 44.8347C133.518 45.3665 135.297 46.1251 135.297 46.1251C135.297 46.1251 132.38 45.8201 131.884 46.7312C131.387 47.6423 132.81 48.3266 132.81 48.3266C132.81 48.3266 130.746 48.8583 130.746 49.7694C130.746 50.6805 131.673 50.833 131.673 50.833C131.673 50.833 131.458 51.2123 131.673 52.3502C131.888 53.488 132.783 56.6788 132.783 56.6788C132.783 56.6788 133.096 56.452 133.237 55.4627C133.377 54.4734 133.166 54.2466 133.307 53.9455C133.448 53.6405 134.445 52.8819 134.801 52.3502C135.157 51.8184 136.224 50.9855 136.224 50.9855C136.224 50.9855 135.016 52.2016 135.798 52.2759C136.58 52.3502 139.427 50.9855 139.782 50.4537C140.138 49.9219 139.567 51.6698 140.138 51.5173C140.709 51.3648 141.421 49.6208 141.421 49.6208C141.421 49.6208 141.777 51.2162 142.273 51.2162C142.77 51.2162 143.126 50.9894 143.126 50.9894C143.126 50.9894 143.552 52.2055 144.123 52.5848C144.694 52.9641 145.19 53.8008 145.19 53.8008L145.796 56.5106C145.796 56.5106 146.684 55.3962 146.829 54.8644C146.969 54.3326 146.758 52.8155 146.758 52.8155L146.899 51.3726C146.899 51.3726 147.681 51.2983 147.54 50.4615C147.399 49.6247 145.831 48.4869 145.831 48.4869C145.831 48.4869 146.684 47.7283 145.902 47.1222C145.12 46.5161 142.344 46.8172 142.344 46.8172C142.344 46.8172 143.27 44.9208 141.561 44.6901C139.853 44.4633 138.289 45.6011 138.289 45.6011" stroke="#263238" stroke-linecap="round" stroke-linejoin="round"/>
<path d="M132.783 56.6745C132.783 56.6745 132.071 55.0752 131.125 56.5885C130.179 58.1056 133.256 60.8858 133.256 60.8858L132.783 56.6745Z" fill="#E3E3E3" stroke="#263238" stroke-linecap="round" stroke-linejoin="round"/>
<path d="M145.796 56.5013C145.796 56.5013 146.919 54.5697 147.63 56.1689C148.342 57.7682 145.577 60.13 145.577 60.13L145.8 56.5013H145.796Z" fill="#E3E3E3" stroke="#263238" stroke-linecap="round" stroke-linejoin="round"/>
<path d="M137.124 57.5173C137.385 57.5173 137.597 57.1409 137.597 56.6766C137.597 56.2123 137.385 55.8359 137.124 55.8359C136.862 55.8359 136.65 56.2123 136.65 56.6766C136.65 57.1409 136.862 57.5173 137.124 57.5173Z" fill="#263238"/>
<path d="M141.863 56.6766C141.863 57.1419 141.652 57.5173 141.39 57.5173C141.128 57.5173 140.917 57.1419 140.917 56.6766C140.917 56.2113 141.128 55.8359 141.39 55.8359C141.652 55.8359 141.863 56.2113 141.863 56.6766Z" fill="#263238"/>
<path d="M138.469 58.0236C138.469 58.0236 137.995 58.6962 138.23 58.8643C138.469 59.0324 139.415 59.6229 139.81 59.4547C140.205 59.2866 140.838 59.1185 140.838 58.7822C140.838 58.4459 140.365 57.8555 140.365 57.8555" stroke="#263238" stroke-linecap="round" stroke-linejoin="round"/>
<path d="M137.045 60.2154C137.045 60.2154 138.469 61.2282 139.81 61.1422C141.151 61.0561 142.019 59.625 142.019 59.625" stroke="#263238" stroke-linecap="round" stroke-linejoin="round"/>
<path d="M135.466 55.0756C135.466 55.0756 136.177 54.1489 137.992 54.5712" stroke="#263238" stroke-linecap="round" stroke-linejoin="round"/>
<path d="M140.6 54.4866C140.6 54.4866 141.863 54.0643 143.204 54.9911" stroke="#263238" stroke-linecap="round" stroke-linejoin="round"/>
<path d="M138.668 80.992C137.37 80.992 136.556 81.6959 136.556 83.5454V86.3217H132.705V83.8035C132.705 79.6547 134.777 77.2852 138.777 77.2852C142.778 77.2852 144.85 79.6547 144.85 83.8035C144.85 91.9524 136.74 94.9867 136.74 99.2488C136.74 99.4326 136.74 99.6203 136.775 99.8041H144.478V103.507H132.701V100.32C132.701 92.6914 140.776 91.4323 140.776 83.9521C140.776 81.6177 139.962 80.9881 138.664 80.9881L138.668 80.992Z" fill="white" stroke="#263238" stroke-linecap="round" stroke-linejoin="round"/>
</g>
<defs>
<clipPath id="clip0_1678_33949">
<rect width="270" height="151.153" fill="white" transform="translate(0 9)"/>
</clipPath>
</defs>
</svg>
