<svg width="270" height="170" viewBox="0 0 270 170" fill="none" xmlns="http://www.w3.org/2000/svg">
<g clip-path="url(#clip0_1678_33446)">
<path d="M207.928 53.3575C207.928 53.3575 182.218 8.99109 146.304 1.62402C114.602 -4.87954 83.6653 8.12759 76.8915 41.0499C74.4777 52.7818 70.8135 65.6796 65.2973 76.1181C59.1106 87.8209 49.3902 97.2028 54.3737 121.057C59.3607 144.91 86.5358 168.268 107.513 169.893C128.491 171.522 149.711 153.942 167.347 137.816C184.983 121.69 238.046 109.456 207.928 53.3575Z" fill="#FF5100"/>
<path opacity="0.7" d="M207.928 53.3575C207.928 53.3575 182.218 8.99109 146.304 1.62402C114.602 -4.87954 83.6653 8.12759 76.8915 41.0499C74.4777 52.7818 70.8135 65.6796 65.2973 76.1181C59.1106 87.8209 49.3902 97.2028 54.3737 121.057C59.3607 144.91 86.5358 168.268 107.513 169.893C128.491 171.522 149.711 153.942 167.347 137.816C184.983 121.69 238.046 109.456 207.928 53.3575Z" fill="white"/>
<path d="M124.229 19.942C124.229 19.942 112.692 28.8211 111.518 33.2624C110.344 37.7038 111.968 45.4972 111.518 47.0347C111.069 48.5759 103.856 52.9262 103.766 59.1783C103.675 65.4305 106.469 71.5916 128.915 74.3096C151.36 77.0276 159.921 64.25 159.921 57.3639C159.921 50.4778 154.151 46.1275 153.161 42.8666C152.168 39.6057 156.315 33.7142 150.367 26.4638C144.42 19.2133 128.915 12.2361 124.229 19.9383V19.942Z" fill="#421503"/>
<path d="M174.295 100.414C174.295 100.414 176.379 118.409 176.814 123.215C177.249 128.021 176.118 130.815 172.729 132.56C169.34 134.309 167.514 135.442 164.038 131.861C160.562 128.279 162.994 121.379 162.82 118.671C162.646 115.964 160.214 105.57 160.214 105.57L174.291 100.414H174.295Z" fill="white" stroke="#263238" stroke-linejoin="round"/>
<path d="M174.704 105.46L161.519 109.887L160.218 105.57L174.295 100.414L174.704 105.46Z" fill="#421503"/>
<path d="M166.3 117.622C166.3 117.622 172.381 116.048 175.248 121.728L166.3 117.622Z" fill="white"/>
<path d="M166.3 117.622C166.3 117.622 172.381 116.048 175.248 121.728" stroke="#263238" stroke-linejoin="round"/>
<path d="M153.89 123.651L157.384 103.149L174.324 98.4672C174.324 98.4672 173.711 84.418 170.044 78.9382C166.376 73.4585 156.858 70.3688 150.831 68.4232C144.804 66.4776 139.128 65.3299 139.128 65.3299C139.128 65.3299 128.299 63.8288 123.497 66.4776C123.497 66.4776 107.078 73.7245 104.197 75.1381C101.316 76.5518 98.0829 78.144 96.8615 84.9463C95.6401 91.7486 95.0276 97.8478 95.0276 97.8478L106.292 103.502L109.699 123.651L108.97 129.353L96.3722 154.653H167.503L154.713 128.963L153.886 123.654L153.89 123.651Z" fill="#BA9080"/>
<path d="M135.627 97.5085C136.011 97.5085 136.323 97.1953 136.323 96.8089C136.323 96.4226 136.011 96.1094 135.627 96.1094C135.243 96.1094 134.931 96.4226 134.931 96.8089C134.931 97.1953 135.243 97.5085 135.627 97.5085Z" stroke="#263238" stroke-linejoin="round"/>
<path d="M135.627 108.212C136.011 108.212 136.323 107.898 136.323 107.512C136.323 107.126 136.011 106.812 135.627 106.812C135.243 106.812 134.931 107.126 134.931 107.512C134.931 107.898 135.243 108.212 135.627 108.212Z" stroke="#263238" stroke-linejoin="round"/>
<path d="M135.627 118.915C136.011 118.915 136.323 118.602 136.323 118.215C136.323 117.829 136.011 117.516 135.627 117.516C135.243 117.516 134.931 117.829 134.931 118.215C134.931 118.602 135.243 118.915 135.627 118.915Z" stroke="#263238" stroke-linejoin="round"/>
<path d="M136.323 128.914C136.323 129.301 136.011 129.614 135.627 129.614C135.243 129.614 134.931 129.301 134.931 128.914C134.931 128.528 135.243 128.215 135.627 128.215C136.011 128.215 136.323 128.528 136.323 128.914Z" stroke="#263238" stroke-linejoin="round"/>
<path d="M135.627 140.317C136.011 140.317 136.323 140.004 136.323 139.618C136.323 139.231 136.011 138.918 135.627 138.918C135.243 138.918 134.931 139.231 134.931 139.618C134.931 140.004 135.243 140.317 135.627 140.317Z" stroke="#263238" stroke-linejoin="round"/>
<path d="M136.323 150.317C136.323 150.703 136.011 151.016 135.627 151.016C135.243 151.016 134.931 150.703 134.931 150.317C134.931 149.931 135.243 149.617 135.627 149.617C136.011 149.617 136.323 149.931 136.323 150.317Z" stroke="#263238" stroke-linejoin="round"/>
<path d="M133.097 92.8086V146.663" stroke="#263238" stroke-linejoin="round"/>
<path d="M157.583 96.33L156.666 101.737L160.033 95.9766" stroke="#263238" stroke-linejoin="round"/>
<path d="M107.419 96.33L108.336 101.737L104.969 95.9766" stroke="#263238" stroke-linejoin="round"/>
<path d="M118.22 82.2054C118.22 82.2054 115.991 85.8853 117.107 85.5646C118.22 85.244 124.428 81.0832 124.428 81.0832C124.428 81.0832 122.04 84.7631 123.95 86.0456C125.86 87.3244 133.655 91.0335 133.655 91.0335C133.655 91.0335 142.89 87.3244 143.05 85.8853C143.209 84.4461 142.731 83.8049 142.731 83.0033C142.731 82.2017 141.774 81.2435 143.688 81.8848C145.598 82.526 152.603 86.3662 152.125 85.4043C151.647 84.4425 143.898 69.0088 142.839 68.4841C141.781 67.9595 127.454 67.4785 124.906 68.9213C122.359 70.3605 118.22 82.2017 118.22 82.2017V82.2054Z" fill="#421503"/>
<path d="M92.8674 93.2305L91.53 99.7559L107.372 107.582L108.916 102.037L92.8674 93.2305Z" fill="#BA9080"/>
<path d="M156.666 101.734L158.148 107.477L176.926 101.822L174.393 95.0195L156.666 101.734Z" fill="#BA9080"/>
<path d="M124.707 61.9867C124.707 61.9867 120.648 66.9345 120.209 67.7251C119.774 68.5158 116.552 81.3917 115.24 83.9385C113.932 86.4853 115.94 85.6947 117.335 84.1134C118.734 82.5321 124.584 79.0235 124.41 80.0764C124.236 81.1294 122.663 83.6762 123.623 84.2008C124.584 84.7255 132.445 91.3129 133.141 91.3129C133.837 91.3129 143.796 84.904 144.144 84.0259C144.492 83.1479 142.223 79.6356 143.358 79.8105C144.492 79.9854 152.788 87.622 153.749 87.0099C154.709 86.3978 149.381 73.9299 146.851 68.3117C144.318 62.6935 139.244 61.728 137.849 61.6406C136.45 61.5531 124.703 61.9867 124.703 61.9867H124.707Z" fill="#BA9080"/>
<path d="M124.939 60.0595C124.939 60.0595 123.366 67.1716 123.366 69.1026C123.366 71.0336 131.999 93.583 133.659 91.0362C135.319 88.4894 142.843 69.8932 142.843 68.4869C142.843 67.0805 142.144 59.5312 142.144 59.5312C142.144 59.5312 136.029 63.6556 133.413 63.9216C130.792 64.1839 124.943 60.0595 124.943 60.0595H124.939Z" fill="white" stroke="#263238" stroke-linejoin="round"/>
<path d="M124.482 61.1094C124.482 61.1094 122.061 70.6552 124.638 71.3948C127.215 72.1345 141.962 62.0348 141.962 62.0348L124.482 61.1094Z" fill="#421503"/>
<path d="M126.751 30.543C126.751 30.543 126.03 35.0754 124.047 39.1525C122.065 43.2295 118.1 46.494 118.1 46.494C118.1 46.494 117.469 48.487 118.281 49.7549C119.093 51.0228 120.264 51.5657 120.264 51.5657C120.264 51.5657 122.337 57.8179 123.149 59.3591C123.96 60.9002 129.817 66.8792 131.35 67.5131C132.883 68.1471 135.859 68.056 137.12 67.3309C138.382 66.6059 143.158 61.0788 143.789 59.4465C144.42 57.8142 145.953 51.2014 145.953 51.2014C145.953 51.2014 147.123 50.8407 147.845 49.0262C148.566 47.2154 148.656 45.1314 148.656 45.1314C148.656 45.1314 146.225 44.6796 142.528 43.6813C138.831 42.683 138.11 42.049 138.11 42.049C138.11 42.049 135.134 42.1401 131.441 39.4221C127.744 36.7041 126.755 30.543 126.755 30.543H126.751Z" fill="white" stroke="#263238" stroke-linejoin="round"/>
<path d="M130.267 31.9922C130.267 31.9922 130.625 36.8853 132.97 38.7872C135.315 40.6891 136.758 40.3284 136.758 40.3284C136.758 40.3284 132.162 36.2514 130.267 31.9922Z" fill="white" stroke="#263238" stroke-linejoin="round"/>
<path d="M124.95 49.0273C124.95 49.0273 127.295 50.4774 130.089 49.1184" stroke="#263238" stroke-width="2" stroke-linejoin="round"/>
<path d="M136.845 49.0273C136.845 49.0273 139.19 50.4774 141.984 49.1184" stroke="#263238" stroke-width="2" stroke-linejoin="round"/>
<path d="M130.086 44.9509C130.086 44.9509 127.382 43.5919 124.406 46.0366" stroke="#263238" stroke-linejoin="round"/>
<path d="M136.935 44.9509C136.935 44.9509 139.639 43.5919 142.615 46.0366" stroke="#263238" stroke-linejoin="round"/>
<path d="M131.347 56.3672C131.347 56.3672 132.159 57.4529 133.239 57.544C134.319 57.6351 135.402 57.3618 135.942 56.6368" stroke="#263238" stroke-linejoin="round"/>
<path d="M129.545 59.63C129.545 59.63 131.709 61.0801 133.782 60.8979C135.855 60.7157 137.838 59.2656 137.838 59.2656" stroke="#263238" stroke-linejoin="round"/>
<path d="M168.731 120.071C168.731 120.071 166.821 117.014 165.952 115.878C165.082 114.741 163.172 114.216 160.736 111.597C158.304 108.977 157.347 111.509 158.13 113.258C158.913 115.007 160.997 116.402 161.954 117.014C162.911 117.626 163.694 119.284 163.694 120.071C163.694 120.858 163.172 122.691 163.172 122.691C163.172 122.691 162.722 122.039 160.602 119.743C158.482 117.448 156.916 115.615 156.481 117.535C156.046 119.455 156.829 120.417 158.304 121.729C159.783 123.041 161.345 124.698 161.519 125.048C161.693 125.398 162.215 128.105 162.998 128.63C163.781 129.154 164.737 129.504 164.737 129.941C164.737 130.379 164.042 131.949 165.694 133.873C167.347 135.793 169.344 135.534 170.388 132.736C171.432 129.941 171.345 124.873 170.301 122.429C169.257 119.984 168.735 120.071 168.735 120.071H168.731Z" fill="white" stroke="#263238" stroke-linejoin="round"/>
<path d="M167.949 119.285C167.949 119.285 165.691 121.555 163.168 122.692C160.649 123.828 158.997 124.353 158.823 125.311C158.649 126.269 158.91 127.144 160.907 126.973C162.904 126.801 168.989 124.44 170.029 123.129C171.073 121.817 170.464 117.886 167.945 119.285H167.949Z" fill="white" stroke="#263238" stroke-linejoin="round"/>
<path d="M171.015 127.727C171.015 127.727 171.424 128.718 169.601 130.375C167.778 132.037 164.216 133.869 162.737 134.219C161.258 134.569 160.044 133.869 160.997 132.908C161.954 131.946 164.734 129.938 164.734 129.938C164.734 129.938 167.365 129.384 171.015 127.727Z" fill="white" stroke="#263238" stroke-linejoin="round"/>
<path d="M170.036 123.128C170.036 123.128 171.515 122.516 171.946 125.573C172.381 128.63 166.213 130.204 163.777 130.379C161.345 130.554 159.692 129.592 160.04 128.805C160.388 128.018 160.736 127.93 163.69 126.71C166.644 125.485 170.033 123.128 170.033 123.128H170.036Z" fill="white" stroke="#263238" stroke-linejoin="round"/>
<path d="M93.9983 95.0844C93.9983 95.0844 89.9825 96.5782 91.2909 100.44C92.5993 104.302 93.1248 105.355 93.5597 107.727C93.9946 110.099 92.4253 111.852 90.9393 120.545C89.4534 129.235 94.6071 131.078 97.2275 132.659C99.8479 134.241 103.777 125.372 104.215 122.738C104.65 120.104 101.508 112.292 100.895 108.077C100.283 103.862 99.4094 101.493 101.421 98.5967C103.429 95.7002 100.112 94.7347 99.0614 94.1189C98.014 93.5032 93.9983 95.0844 93.9983 95.0844Z" fill="white" stroke="#263238" stroke-linejoin="round"/>
<path d="M96.5317 107.373C99.4131 107.373 101.334 104.564 101.334 104.564C101.334 104.564 102.82 104.127 103.733 102.983C104.647 101.843 104.654 99.7366 104.654 99.7366C104.654 99.7366 106.85 96.5705 108.496 95.6122C110.141 94.6504 111.29 94.031 111.815 92.3623C112.345 90.679 111.555 89.8155 109.456 91.5717C107.361 93.3278 106.401 93.6776 106.401 93.6776L99.1521 95.1714" fill="white"/>
<path d="M96.5317 107.373C99.4131 107.373 101.334 104.564 101.334 104.564C101.334 104.564 102.82 104.127 103.733 102.983C104.647 101.843 104.654 99.7366 104.654 99.7366C104.654 99.7366 106.85 96.5705 108.496 95.6122C110.141 94.6504 111.29 94.031 111.815 92.3623C112.345 90.679 111.555 89.8155 109.456 91.5717C107.361 93.3278 106.401 93.6776 106.401 93.6776L99.1521 95.1714" stroke="#263238" stroke-linejoin="round"/>
<path d="M107.925 93.946L97.8279 98.5742L106.009 116.612L116.106 111.984L107.925 93.946Z" fill="white" stroke="#263238" stroke-linejoin="round"/>
<path d="M103.686 97.5117L110.536 112.607" stroke="#263238" stroke-linejoin="round"/>
<path d="M101.475 102.729C101.892 102.922 102.385 102.744 102.577 102.325L103.606 100.095C103.799 99.6759 103.617 99.1804 103.204 98.9873C102.787 98.7942 102.294 98.9764 102.102 99.3917L101.073 101.622C100.881 102.041 101.062 102.536 101.475 102.729Z" fill="#421503"/>
<path d="M103.106 106.327C103.523 106.52 104.016 106.338 104.208 105.922L105.237 103.693C105.429 103.274 105.248 102.778 104.835 102.585C104.418 102.392 103.925 102.574 103.733 102.989L102.704 105.219C102.512 105.638 102.693 106.134 103.106 106.327Z" fill="#421503"/>
<path d="M104.737 109.917C105.154 110.11 105.647 109.928 105.839 109.512L106.868 107.282C107.061 106.863 106.879 106.368 106.466 106.175C106.049 105.982 105.556 106.164 105.364 106.579L104.335 108.809C104.143 109.228 104.324 109.724 104.737 109.917Z" fill="#421503"/>
<path d="M106.368 113.514C106.785 113.707 107.278 113.525 107.47 113.11L108.499 110.88C108.691 110.461 108.51 109.966 108.097 109.772C107.68 109.579 107.187 109.762 106.995 110.177L105.966 112.407C105.774 112.826 105.955 113.321 106.368 113.514Z" fill="#421503"/>
<path d="M106.165 100.581C106.582 100.774 107.075 100.595 107.267 100.176L108.296 97.9465C108.488 97.5275 108.307 97.032 107.894 96.8389C107.477 96.6458 106.984 96.8279 106.792 97.2433L105.763 99.4731C105.571 99.8921 105.752 100.388 106.165 100.581Z" fill="#421503"/>
<path d="M107.796 104.174C108.213 104.368 108.706 104.185 108.898 103.77L109.927 101.54C110.119 101.121 109.938 100.626 109.525 100.433C109.108 100.24 108.615 100.422 108.423 100.837L107.394 103.067C107.202 103.486 107.383 103.981 107.796 104.174Z" fill="#421503"/>
<path d="M109.427 107.768C109.844 107.961 110.337 107.779 110.529 107.364L111.558 105.134C111.75 104.715 111.569 104.219 111.156 104.026C110.739 103.833 110.246 104.015 110.054 104.431L109.025 106.661C108.833 107.08 109.014 107.575 109.427 107.768Z" fill="#421503"/>
<path d="M111.058 111.362C111.475 111.555 111.968 111.373 112.16 110.958L113.189 108.728C113.381 108.309 113.2 107.813 112.787 107.62C112.37 107.427 111.877 107.609 111.685 108.025L110.656 110.254C110.464 110.673 110.645 111.169 111.058 111.362Z" fill="#421503"/>
<path d="M99.8516 92.0128C99.8516 92.0128 102.211 89.5535 103.432 89.9943C104.654 90.4315 107.8 93.6815 107.887 94.4721C107.974 95.2628 109.108 97.8095 108.673 97.9844C108.238 98.1593 105.353 96.3157 104.132 95.0879C102.91 93.86 99.8516 92.0164 99.8516 92.0164V92.0128Z" fill="white" stroke="#263238" stroke-linejoin="round"/>
<path d="M95.1326 95.4381C95.1326 95.4381 97.0535 91.2227 98.3618 91.2227C99.6702 91.2227 104.389 93.3286 104.998 94.2066C105.61 95.0847 108.405 97.8064 107.705 98.1562C107.006 98.5059 105.523 97.8064 104.476 97.0157C103.429 96.2251 102.816 95.8754 102.816 95.8754L99.8478 94.9973" fill="white"/>
<path d="M95.1326 95.4381C95.1326 95.4381 97.0535 91.2227 98.3618 91.2227C99.6702 91.2227 104.389 93.3286 104.998 94.2066C105.61 95.0847 108.405 97.8064 107.705 98.1562C107.006 98.5059 105.523 97.8064 104.476 97.0157C103.429 96.2251 102.816 95.8754 102.816 95.8754L99.8478 94.9973" stroke="#263238" stroke-linejoin="round"/>
<path d="M92.0774 97.0163C92.0774 97.0163 93.9983 92.8008 95.3067 92.8008C96.615 92.8008 101.334 94.9067 101.943 95.7848C102.555 96.6629 105.35 99.3845 104.65 99.7343C103.951 100.084 102.468 99.3845 101.421 98.5939C100.373 97.8032 99.7609 97.4535 99.7609 97.4535L96.7926 96.5754" fill="white"/>
<path d="M92.0774 97.0163C92.0774 97.0163 93.9983 92.8008 95.3067 92.8008C96.615 92.8008 101.334 94.9067 101.943 95.7848C102.555 96.6629 105.35 99.3845 104.65 99.7343C103.951 100.084 102.468 99.3845 101.421 98.5939C100.373 97.8032 99.7609 97.4535 99.7609 97.4535L96.7926 96.5754" stroke="#263238" stroke-linejoin="round"/>
<path d="M91.2909 98.9467C91.2909 98.9467 90.3304 96.8408 91.2909 96.3999C92.2513 95.9627 98.4525 94.4689 99.0614 94.1191C99.6739 93.7694 100.808 94.294 99.4093 95.8753C98.0103 97.4566 93.9076 98.4221 93.4727 98.5095" fill="white"/>
<path d="M91.2909 98.9467C91.2909 98.9467 90.3304 96.8408 91.2909 96.3999C92.2513 95.9627 98.4525 94.4689 99.0614 94.1191C99.6739 93.7694 100.808 94.294 99.4093 95.8753C98.0103 97.4566 93.9076 98.4221 93.4727 98.5095" stroke="#263238" stroke-linejoin="round"/>
<path d="M79.3198 68.5193L74.4125 71.9077C74.4125 71.9077 71.8283 73.4051 70.4873 75.8171L65.0835 90.4019C65.0835 90.4019 64.4565 91.1779 63.7788 90.9812C63.101 90.7844 62.4994 90.5185 62.4994 90.5185C62.4994 90.5185 61.2816 89.8408 60.0892 90.3436C58.8932 90.8464 57.8675 91.8775 57.6102 93.783C57.3492 95.6885 57.9799 97.1714 59.2266 97.707C60.4734 98.2426 61.644 98.1588 62.7096 97.3099C63.7751 96.4646 64.645 94.5663 64.8733 93.9287C65.04 93.466 65.2756 92.7701 65.3952 92.424L69.777 81.3661L70.5707 81.1001C70.5707 81.1001 73.202 76.1341 74.3654 75.2487C75.5288 74.367 78.9066 71.7765 79.4321 70.862C79.9577 69.9475 79.327 68.5156 79.327 68.5156L79.3198 68.5193ZM62.5537 96.7233C62.0318 97.237 60.8141 97.6232 59.4187 97.033C58.0233 96.4427 57.824 94.7558 58.0197 93.6773C58.2154 92.5989 59.3788 90.8318 60.5277 90.8682C61.6803 90.901 62.9633 91.3273 63.5178 92.3766C64.0723 93.4259 63.612 94.9416 63.612 94.9416C63.2569 95.8124 63.072 96.2132 62.5501 96.7233H62.5537Z" fill="white" stroke="black" stroke-linejoin="round"/>
<path d="M74.2094 93.4841C73.2635 92.6388 71.3934 92.7846 71.3934 92.7846C71.3934 92.7846 70.4945 92.7081 70.567 91.8045C70.6431 90.9009 72.9844 76.9028 72.9844 76.9028L73.3577 75.0664L77.9642 66.3003L78.5876 64.6607C78.5876 64.6607 78.3158 64.4203 78.1672 64.4385L77.0545 65.6481C77.0545 65.6481 70.9113 73.5325 70.7664 74.1264C70.625 74.7203 70.48 75.817 70.48 75.817L69.7805 80.5498C69.7805 80.5498 71.0092 81.4971 71.0382 82.1165C71.0635 82.674 69.2296 94.2857 68.8636 96.6066C68.831 96.7523 68.8056 96.8907 68.7984 97.011C68.7259 98.206 69.3456 100.257 71.1107 100.214C72.8757 100.17 74.108 99.2189 74.8365 97.583C75.5649 95.9471 75.1481 94.3258 74.2022 93.4805L74.2094 93.4841ZM74.329 97.4992C73.7383 98.8181 72.7416 99.5833 71.31 99.6161C69.8784 99.6488 69.3746 97.9874 69.429 97.0255C69.4906 95.9835 70.0016 94.9051 70.8098 94.2347C71.1759 93.9323 71.7558 93.5861 72.2559 93.6335C72.7525 93.6809 73.3867 93.8157 73.8035 94.1873C74.5719 94.8723 74.9126 96.1803 74.3254 97.4992H74.329Z" fill="white" stroke="black" stroke-linejoin="round"/>
<path d="M71.5022 74.1797L73.3615 75.065" stroke="black" stroke-linejoin="round"/>
<path d="M72.4517 77.4984C72.3212 77.8664 71.9443 78.0668 71.6145 77.9465C71.2846 77.8263 71.1216 77.4292 71.252 77.0612C71.3825 76.6932 71.7594 76.4928 72.0892 76.613C72.4191 76.7333 72.5821 77.1304 72.4517 77.4984Z" fill="white" stroke="black" stroke-linejoin="round"/>
<path d="M72.4518 77.4997L71.2522 77.0625" stroke="black" stroke-linejoin="round"/>
<path d="M73.9813 73.6881C73.9813 73.6881 73.9595 73.4039 73.7312 73.1052C73.5028 72.8064 73.1622 72.5623 73.3905 72.0923C73.6188 71.6223 77.2504 65.8438 77.2504 65.8438L77.678 66.1826" fill="white"/>
<path d="M73.9813 73.6881C73.9813 73.6881 73.9595 73.4039 73.7312 73.1052C73.5028 72.8064 73.1622 72.5623 73.3905 72.0923C73.6188 71.6223 77.2504 65.8438 77.2504 65.8438L77.678 66.1826" stroke="black" stroke-linejoin="round"/>
<path d="M105.147 15.5445C103.958 12.6151 101.914 10.6841 100.58 11.2342C100.384 11.3144 100.218 11.4492 100.076 11.6205L78.1348 27.4586L82.4404 38.0647L104.886 21.8403C106.22 21.2938 106.336 18.4738 105.147 15.5481V15.5445Z" fill="white" stroke="black" stroke-linejoin="round"/>
<path d="M103.454 16.7554C102.265 13.8261 100.221 11.895 98.8875 12.4452C98.6918 12.5253 98.5251 12.6601 98.3837 12.8314L76.4421 28.6695L80.7478 39.2756L103.193 23.0513C104.527 22.5048 104.643 19.6847 103.454 16.759V16.7554Z" fill="white" stroke="black" stroke-linejoin="round"/>
<path d="M82.8825 32.1254C81.2915 28.2123 78.5587 25.6327 76.7756 26.3614C76.5146 26.4671 76.2936 26.6456 76.1015 26.8752L69.4907 31.5898L75.2461 45.7628L82.5274 40.5345C84.3105 39.8021 84.4664 36.0385 82.8753 32.1217L82.8825 32.1254Z" fill="white" stroke="black" stroke-linejoin="round"/>
<path d="M75.6012 37.3531C77.1923 41.2661 77.0328 45.0335 75.2497 45.7658C73.4665 46.4981 70.7338 43.9186 69.1427 40.0018C67.5516 36.0888 67.7111 32.3214 69.4943 31.5891C71.2774 30.8568 74.0102 33.4363 75.6012 37.3531Z" fill="white" stroke="black" stroke-linejoin="round"/>
<path d="M74.8802 44.8517C76.4331 44.2143 76.5696 40.9339 75.185 37.5247C73.8003 34.1156 71.419 31.8686 69.866 32.506C68.3131 33.1434 68.1767 36.4238 69.5613 39.833C70.9459 43.2421 73.3273 45.4891 74.8802 44.8517Z" fill="white" stroke="black" stroke-linejoin="round"/>
<path d="M85.621 29.1035L84.4055 27.4062L82.0848 29.0858L83.3002 30.7831L85.621 29.1035Z" fill="white" stroke="black" stroke-linejoin="round"/>
<path d="M200.463 32.3688L196.644 19.9414L174.676 26.7649L178.496 39.1923L200.463 32.3688Z" fill="white" stroke="black" stroke-linejoin="round"/>
<path d="M196.986 26.9062L178.597 32.6192" stroke="black" stroke-linejoin="round"/>
<path d="M195.289 26.2484L195.436 26.0142C195.68 25.6245 195.564 25.1093 195.177 24.8634L192.535 23.1875C192.147 22.9416 191.634 23.0582 191.39 23.4479L191.243 23.6821C190.998 24.0718 191.114 24.587 191.502 24.8329L194.144 26.5088C194.532 26.7547 195.044 26.6381 195.289 26.2484Z" fill="white" stroke="black" stroke-linejoin="round"/>
<path d="M190.904 27.6038L191.051 27.3696C191.296 26.98 191.18 26.4647 190.793 26.2187L188.151 24.5424C187.763 24.2964 187.25 24.4129 187.006 24.8026L186.859 25.0367C186.614 25.4264 186.73 25.9417 187.118 26.1876L189.76 27.864C190.147 28.1099 190.66 27.9935 190.904 27.6038Z" fill="white" stroke="black" stroke-linejoin="round"/>
<path d="M186.524 28.9631L186.671 28.729C186.916 28.3393 186.8 27.8241 186.413 27.5781L183.771 25.9017C183.383 25.6558 182.871 25.7723 182.626 26.1619L182.479 26.3961C182.234 26.7858 182.35 27.301 182.738 27.547L185.38 29.2234C185.767 29.4693 186.28 29.3528 186.524 28.9631Z" fill="white" stroke="black" stroke-linejoin="round"/>
<path d="M182.153 30.3265L182.3 30.0924C182.545 29.7026 182.429 29.1874 182.041 28.9415L179.399 27.2656C179.011 27.0197 178.499 27.1363 178.254 27.526L178.107 27.7602C177.862 28.1499 177.978 28.6652 178.366 28.9111L181.008 30.587C181.396 30.8328 181.908 30.7163 182.153 30.3265Z" fill="white" stroke="black" stroke-linejoin="round"/>
<path d="M197.065 32.0256L197.212 31.7915C197.456 31.4018 197.341 30.8865 196.953 30.6406L194.311 28.9642C193.923 28.7183 193.411 28.8348 193.166 29.2244L193.019 29.4586C192.775 29.8483 192.89 30.3635 193.278 30.6095L195.92 32.2859C196.308 32.5318 196.82 32.4153 197.065 32.0256Z" fill="white" stroke="black" stroke-linejoin="round"/>
<path d="M192.681 33.3772L192.828 33.1431C193.072 32.7534 192.957 32.2381 192.569 31.9922L189.927 30.3158C189.539 30.0698 189.027 30.1863 188.782 30.576L188.635 30.8102C188.39 31.1998 188.506 31.7151 188.894 31.9611L191.536 33.6374C191.923 33.8834 192.436 33.7669 192.681 33.3772Z" fill="white" stroke="black" stroke-linejoin="round"/>
<path d="M188.304 34.7366L188.451 34.5024C188.695 34.1128 188.58 33.5975 188.192 33.3515L185.55 31.6752C185.162 31.4292 184.65 31.5457 184.405 31.9354L184.258 32.1695C184.014 32.5592 184.129 33.0745 184.517 33.3204L187.159 34.9968C187.547 35.2428 188.059 35.1263 188.304 34.7366Z" fill="white" stroke="black" stroke-linejoin="round"/>
<path d="M183.924 36.096L184.071 35.8618C184.316 35.4721 184.2 34.9569 183.812 34.7109L181.17 33.0345C180.783 32.7886 180.27 32.9051 180.025 33.2947L179.878 33.5289C179.634 33.9186 179.75 34.4339 180.137 34.6798L182.779 36.3562C183.167 36.6021 183.679 36.4856 183.924 36.096Z" fill="white" stroke="black" stroke-linejoin="round"/>
<path d="M188.067 67.3856L185.744 69.5243L182.794 65.3489L184.185 64.0664L188.067 67.3856Z" fill="white" stroke="black" stroke-linejoin="round"/>
<path d="M186.915 67.2596L185.882 68.2178C184.878 69.1505 184.816 70.7245 185.747 71.7301L201.97 89.317L203.724 92.4941L210.57 85.6116L207.41 83.8482L190.303 67.2923C189.361 66.3815 187.875 66.3633 186.915 67.2559V67.2596Z" fill="white" stroke="black" stroke-linejoin="round"/>
<path d="M199.404 86.5392L202.611 82.7536L190.358 70.7812L187.4 73.5284L199.404 86.5392Z" fill="white" stroke="black" stroke-linejoin="round"/>
<path d="M198.585 137.074H189.723V154.65H198.585V137.074Z" fill="white" stroke="#263238" stroke-linejoin="round"/>
<path d="M196.943 142.477H191.362V149.246H196.943V142.477Z" fill="white" stroke="#263238" stroke-linejoin="round"/>
<path d="M196.613 132.488H191.691V137.003H196.613V132.488Z" fill="white" stroke="#263238" stroke-linejoin="round"/>
<path d="M194.931 125.348H193.373L192.855 132.518H195.453L194.931 125.348Z" fill="white" stroke="#263238" stroke-linejoin="round"/>
<path d="M196.613 134.668H191.691V137.007H196.613V134.668Z" fill="white" stroke="#263238" stroke-linejoin="round"/>
<path d="M183.711 142.625H170.5V154.648H183.711V142.625Z" fill="white" stroke="#263238" stroke-linejoin="round"/>
<path d="M183.711 147.594H170.5V154.647H183.711V147.594Z" fill="white" stroke="#263238" stroke-linejoin="round"/>
<path d="M181.181 148.855H170.5V153.384H181.181V148.855Z" fill="white" stroke="#263238" stroke-linejoin="round"/>
<path d="M89.6274 133.887H76.4167V154.647H89.6274V133.887Z" fill="white" stroke="#263238" stroke-linejoin="round"/>
<path d="M82.9404 134.082V154.536" stroke="#263238" stroke-linejoin="round"/>
<path d="M80.9146 135.836H77.4316V141.374H80.9146V135.836Z" stroke="#263238" stroke-linejoin="round"/>
<path d="M80.3165 136.789H78.0332V140.418H80.3165V136.789Z" stroke="#263238" stroke-linejoin="round"/>
<path d="M88.3335 135.836H84.8506V141.374H88.3335V135.836Z" stroke="#263238" stroke-linejoin="round"/>
<path d="M87.7355 136.789H85.4521V140.418H87.7355V136.789Z" stroke="#263238" stroke-linejoin="round"/>
<path d="M84.858 137.219H80.9075V139.769H84.858V137.219Z" stroke="#263238" stroke-linejoin="round"/>
<path d="M80.9146 145.277H77.4316V150.815H80.9146V145.277Z" stroke="#263238" stroke-linejoin="round"/>
<path d="M80.3165 146.23H78.0332V149.859H80.3165V146.23Z" stroke="#263238" stroke-linejoin="round"/>
<path d="M88.3335 145.277H84.8506V150.815H88.3335V145.277Z" stroke="#263238" stroke-linejoin="round"/>
<path d="M87.7355 146.23H85.4521V149.859H87.7355V146.23Z" stroke="#263238" stroke-linejoin="round"/>
<path d="M84.858 146.66H80.9075V149.211H84.858V146.66Z" stroke="#263238" stroke-linejoin="round"/>
<path d="M158.529 108.871H106.68V154.647H158.529V108.871Z" fill="#421503"/>
<path d="M158.529 122.789H106.68V154.647H158.529V122.789Z" fill="#FF5100"/>
<path d="M141.053 135.321H136.033V130.348H129.176V135.321H124.156V142.112H129.176V147.082H136.033V142.112H141.053V135.321Z" fill="white" stroke="#263238" stroke-linejoin="round"/>
<path d="M158.453 106.434H106.781V111.043H158.453V106.434Z" fill="#FF5100"/>
<path d="M58.7664 154.648H210.299" stroke="#263238" stroke-linejoin="round"/>
</g>
<defs>
<clipPath id="clip0_1678_33446">
<rect width="164" height="170" fill="white" transform="translate(53)"/>
</clipPath>
</defs>
</svg>
