<svg width="270" height="170" viewBox="0 0 270 170" fill="none" xmlns="http://www.w3.org/2000/svg">
<g clip-path="url(#clip0_1678_31434)">
<path d="M215.423 88.8901C215.144 89.5048 214.748 90.0265 214.243 90.4753C213.463 91.1709 212.501 91.3043 211.474 91.1507C210.525 91.0091 209.704 90.5805 208.993 89.9456C208.334 89.3592 207.647 88.8092 206.899 88.328C206.087 87.8063 205.198 87.503 204.256 87.3494C203.601 87.2442 202.938 87.1674 202.279 87.1027C201.382 87.0137 200.55 86.7428 199.814 86.209C198.63 85.3476 198.116 84.2315 198.339 82.8242C198.585 81.2591 199.458 80.1511 200.877 79.4515C201.588 79.0997 202.348 78.8328 203.088 78.5295C203.423 78.392 203.759 78.2585 204.09 78.121C204.696 77.8703 205.149 77.4336 205.573 76.9685C205.82 76.6976 206.067 76.4266 206.317 76.1597C207.259 75.1528 208.443 74.809 209.842 75.0355C210.917 75.2094 211.867 75.6421 212.699 76.3377C213.669 77.1464 214.142 78.1574 214.102 79.3747C214.09 79.7346 214.077 80.0985 214.037 80.4544C213.94 81.3602 214.09 82.2297 214.465 83.0789C214.809 83.8594 215.14 84.652 215.431 85.4527C215.755 86.3464 215.856 87.2604 215.633 88.1784C215.577 88.421 215.488 88.6556 215.415 88.8901H215.423Z" fill="#BA9080"/>
<path d="M212.012 72.2723C211.705 72.9517 211.248 73.5785 210.464 73.991C210.177 74.1407 209.862 74.2418 209.494 74.266C208.694 74.3186 208.011 74.0355 207.429 73.4653C207.069 73.1135 206.814 72.7253 206.673 72.3209C205.982 70.3596 206.353 68.7339 207.817 67.4722C208.035 67.2821 208.334 67.1446 208.641 67.0395C209.639 66.6957 210.747 67.0516 211.478 67.9372C212.016 68.5843 212.242 69.2677 212.331 69.9592C212.436 70.7437 212.327 71.5283 212.012 72.2723Z" fill="#BA9080"/>
<path d="M219.206 74.5591C218.56 75.6145 217.747 76.3667 216.507 76.7185C216.179 76.8115 215.811 76.856 215.444 76.852C214.304 76.8318 213.39 76.1605 213.087 75.1414C212.877 74.4458 212.942 73.8109 213.152 73.2205C213.58 72.0235 214.397 71.1217 215.666 70.5717C216.131 70.3695 216.64 70.2603 217.218 70.2846C218.329 70.3331 219.227 70.9842 219.534 71.9709C219.748 72.6543 219.687 73.2771 219.493 73.8675C219.405 74.1425 219.275 74.4013 219.206 74.5631V74.5591Z" fill="#BA9080"/>
<path d="M199.608 72.1962C199.846 71.6502 200.145 71.2175 200.582 70.8778C201.665 70.0448 203.112 70.2632 204.078 71.4116C204.701 72.1517 204.975 72.9726 205.036 73.8299C205.113 74.9582 204.854 75.9773 204.07 76.8022C203.908 76.9721 203.714 77.1217 203.508 77.243C202.587 77.7971 201.443 77.6313 200.574 76.8306C199.992 76.2927 199.66 75.6497 199.475 74.9622C199.208 73.9755 199.272 73.0333 199.608 72.2002V72.1962Z" fill="#BA9080"/>
<path d="M221.595 81.6096C221.049 82.7298 220.108 83.6195 218.624 83.9915C218.091 84.125 217.537 84.1371 216.967 83.9754C216.151 83.7408 215.617 83.2434 215.35 82.5236C215.096 81.8442 215.152 81.1891 215.387 80.5703C215.868 79.3086 216.789 78.4109 218.2 77.9579C218.948 77.7193 219.736 77.683 220.544 78.059C221.183 78.3543 221.575 78.8274 221.773 79.4219C222.015 80.1579 221.902 80.8413 221.599 81.6096H221.595Z" fill="#BA9080"/>
<path d="M191.185 39.7633C190.502 40.7177 189.637 41.482 188.626 42.0765C187.05 43.0025 185.365 42.9014 183.655 42.2868C182.079 41.7166 180.818 40.7056 179.815 39.3751C178.886 38.1457 177.895 36.973 176.78 35.8933C175.567 34.7205 174.149 33.8996 172.588 33.3132C171.501 32.9048 170.398 32.5529 169.29 32.2133C167.783 31.7522 166.449 31.0082 165.374 29.8435C163.644 27.9631 163.143 25.8804 164.004 23.543C164.958 20.9468 166.833 19.3454 169.501 18.6336C170.842 18.2778 172.233 18.0756 173.603 17.8087C174.221 17.6873 174.844 17.5782 175.462 17.4528C176.586 17.2263 177.507 16.6359 178.397 15.9848C178.914 15.6047 179.427 15.2286 179.949 14.8525C181.901 13.4493 184.047 13.2633 186.367 14.1287C188.145 14.7919 189.629 15.8595 190.817 17.3355C192.199 19.0502 192.668 20.9427 192.183 23.0173C192.038 23.632 191.896 24.2467 191.706 24.8452C191.229 26.3616 191.193 27.9024 191.548 29.4876C191.872 30.9434 192.167 32.4074 192.389 33.8794C192.636 35.5172 192.502 37.1226 191.807 38.6189C191.625 39.0112 191.395 39.3832 191.189 39.7674L191.185 39.7633Z" fill="#FFB89C"/>
<path d="M191.003 10.1485C190.247 11.208 189.253 12.126 187.765 12.5587C187.228 12.7164 186.646 12.7852 186.007 12.7003C184.621 12.5183 183.546 11.7944 182.746 10.6257C182.252 9.90183 181.949 9.1537 181.84 8.40961C181.323 4.81453 182.515 2.15765 185.45 0.495579C185.886 0.244853 186.452 0.111403 187.01 0.0345675C188.837 -0.216158 190.611 0.774612 191.561 2.53778C192.256 3.83185 192.413 5.07739 192.333 6.29462C192.24 7.67361 191.787 8.97576 190.999 10.1485H191.003Z" fill="#FFB89C"/>
<path d="M202.546 16.5088C201.079 18.094 199.43 19.109 197.191 19.2829C196.601 19.3274 195.954 19.2829 195.323 19.1454C193.379 18.7249 192.046 17.2569 191.868 15.4129C191.746 14.1552 192.074 13.0876 192.636 12.1453C193.775 10.2406 195.485 8.97488 197.841 8.46534C198.702 8.27932 199.616 8.26314 200.598 8.50174C202.485 8.96275 203.795 10.3862 203.989 12.1777C204.122 13.4192 203.807 14.4706 203.274 15.4129C203.027 15.8537 202.716 16.25 202.546 16.5088Z" fill="#FFB89C"/>
<path d="M169.796 5.78654C170.394 4.92922 171.049 4.29027 171.914 3.86161C174.052 2.80209 176.457 3.67154 177.718 5.96447C178.53 7.44052 178.724 8.94082 178.534 10.433C178.279 12.3903 177.487 14.0483 175.862 15.1928C175.531 15.4273 175.147 15.6174 174.751 15.7589C172.981 16.3898 171.081 15.7185 169.873 14.0483C169.06 12.9282 168.708 11.715 168.624 10.4694C168.502 8.68605 168.935 7.09678 169.796 5.78249V5.78654Z" fill="#FFB89C"/>
<path d="M204.236 29.4057C202.922 31.1365 201.002 32.3416 198.335 32.471C197.377 32.5195 196.423 32.3497 195.501 31.8725C194.184 31.189 193.44 30.1578 193.226 28.8355C193.024 27.5859 193.339 26.4819 193.953 25.5073C195.206 23.5136 197.09 22.2842 199.66 21.9931C201.026 21.8354 202.384 22.0457 203.637 22.9636C204.628 23.6915 205.141 24.6338 205.274 25.7176C205.44 27.0602 205.012 28.1884 204.231 29.4016L204.236 29.4057Z" fill="#FFB89C"/>
<path d="M139.765 29.4674C140.052 30.2075 140.165 30.9758 140.129 31.7685C140.072 33.0019 139.393 33.9198 138.415 34.6558C137.51 35.3393 136.475 35.679 135.356 35.7558C134.317 35.8286 133.29 35.9539 132.268 36.1885C131.16 36.4433 130.17 36.9407 129.265 37.6079C128.634 38.073 128.024 38.5663 127.426 39.0678C126.609 39.7512 125.696 40.2325 124.641 40.4104C122.939 40.6975 121.581 40.2122 120.575 38.8616C119.459 37.3653 119.249 35.7154 119.831 33.9441C120.122 33.0544 120.526 32.1931 120.878 31.3196C121.04 30.9233 121.205 30.531 121.363 30.1347C121.65 29.4149 121.658 28.6748 121.618 27.9307C121.593 27.498 121.569 27.0694 121.549 26.6367C121.476 25.015 122.163 23.7331 123.505 22.7383C124.536 21.978 125.688 21.5332 126.961 21.4038C128.44 21.2542 129.681 21.6869 130.675 22.7262C130.97 23.0335 131.261 23.3408 131.532 23.6684C132.215 24.4974 133.068 25.0878 134.095 25.472C135.036 25.8238 135.974 26.1999 136.887 26.6164C137.906 27.0815 138.763 27.7488 139.349 28.695C139.503 28.9417 139.632 29.2086 139.769 29.4674H139.765Z" fill="#BA9080"/>
<path d="M122.968 18.6466C123.287 19.4635 123.44 20.3653 123.133 21.3682C123.024 21.7322 122.85 22.084 122.567 22.4156C121.953 23.1314 121.149 23.4751 120.195 23.4953C119.605 23.5075 119.067 23.4023 118.61 23.188C116.388 22.1568 115.329 20.4988 115.47 18.2261C115.49 17.8864 115.62 17.5184 115.785 17.1746C116.319 16.0504 117.531 15.4074 118.877 15.5206C119.863 15.6056 120.627 15.9776 121.282 16.471C122.03 17.0331 122.596 17.7691 122.968 18.6466Z" fill="#BA9080"/>
<path d="M130.821 14.4651C131.176 15.8805 131.14 17.1867 130.413 18.5171C130.219 18.8689 129.956 19.2167 129.649 19.5241C128.695 20.4704 127.373 20.6806 126.266 20.0983C125.51 19.702 125.029 19.1237 124.701 18.4565C124.043 17.1098 123.962 15.6742 124.544 14.1537C124.758 13.5997 125.085 13.074 125.579 12.6089C126.532 11.7111 127.822 11.4968 128.905 12.0468C129.657 12.431 130.134 12.9971 130.469 13.6442C130.627 13.9474 130.736 14.2669 130.817 14.461L130.821 14.4651Z" fill="#BA9080"/>
<path d="M112.681 29.033C112.419 28.3779 112.297 27.7753 112.374 27.1242C112.564 25.5228 113.942 24.4835 115.705 24.617C116.836 24.7019 117.758 25.1467 118.53 25.8059C119.544 26.6713 120.187 27.7308 120.235 29.0734C120.243 29.3484 120.211 29.6355 120.146 29.9105C119.851 31.1439 118.768 31.9729 117.382 32.0417C116.448 32.0862 115.636 31.8395 114.9 31.427C113.849 30.8366 113.11 30.0076 112.685 29.037L112.681 29.033Z" fill="#BA9080"/>
<path d="M138.726 18.2665C139.22 19.6495 139.191 21.1781 138.282 22.735C137.954 23.2931 137.51 23.7703 136.9 24.1181C136.026 24.6114 135.17 24.6519 134.345 24.2839C133.565 23.9361 133.06 23.3538 132.732 22.6461C132.07 21.2024 132.07 19.6859 132.854 18.1209C133.27 17.2919 133.888 16.6003 134.871 16.2283C135.647 15.9371 136.37 15.9938 137.029 16.3173C137.849 16.7176 138.33 17.3808 138.726 18.2665Z" fill="#BA9080"/>
<path d="M90.6819 75.8174C91.0093 76.6464 91.1346 77.5078 91.0982 78.3934C91.0376 79.7764 90.2818 80.8076 89.1864 81.6407C88.176 82.409 87.016 82.7932 85.759 82.8862C84.595 82.9712 83.4431 83.1208 82.2992 83.3836C81.0584 83.6708 79.951 84.2369 78.9365 84.9891C78.2332 85.5108 77.5502 86.0688 76.8792 86.635C75.9658 87.4074 74.9432 87.9452 73.763 88.1515C71.8553 88.479 70.3275 87.9412 69.1958 86.4328C67.9388 84.7586 67.6922 82.9065 68.3389 80.9168C68.6623 79.918 69.1109 78.9515 69.503 77.9688C69.6808 77.5239 69.8667 77.0832 70.0405 76.6383C70.3598 75.8295 70.3639 75.0005 70.3154 74.1675C70.2871 73.6822 70.2588 73.201 70.2345 72.7157C70.1456 70.8959 70.9095 69.4562 72.413 68.3361C73.565 67.4787 74.8543 66.9732 76.281 66.8236C77.9382 66.6497 79.3366 67.131 80.4521 68.2916C80.7836 68.6353 81.115 68.9791 81.4181 69.3471C82.1861 70.2772 83.148 70.9323 84.304 71.3569C85.3629 71.7492 86.4138 72.1657 87.4404 72.6267C88.5842 73.1443 89.5462 73.8884 90.213 74.9439C90.3868 75.2229 90.5324 75.5181 90.69 75.8093L90.6819 75.8174Z" fill="#BA9080"/>
<path d="M71.7946 63.7492C72.1584 64.6672 72.3322 65.6741 71.9927 66.7984C71.8714 67.2068 71.6774 67.6031 71.3622 67.9751C70.6751 68.7839 69.7738 69.1681 68.7027 69.1964C68.0398 69.2126 67.4376 69.0953 66.9243 68.8608C64.4265 67.7123 63.2301 65.8602 63.3797 63.3084C63.4039 62.9283 63.5454 62.5118 63.7273 62.1276C64.3174 60.8618 65.6794 60.1379 67.1911 60.2593C68.2985 60.3482 69.1554 60.7607 69.895 61.3147C70.7357 61.9416 71.3743 62.7625 71.7946 63.7492Z" fill="#BA9080"/>
<path d="M80.5854 59.0271C80.9895 60.6123 80.9572 62.0762 80.1448 63.5725C79.9306 63.9688 79.6355 64.3611 79.292 64.7048C78.225 65.7684 76.7457 66.015 75.5008 65.364C74.652 64.9232 74.1064 64.2761 73.7386 63.5321C72.9949 62.0237 72.8979 60.4142 73.5446 58.7076C73.7831 58.0848 74.1468 57.4944 74.7005 56.9687C75.7676 55.9577 77.2145 55.711 78.4311 56.3257C79.2758 56.7544 79.8134 57.3852 80.1933 58.1132C80.3712 58.4528 80.4964 58.8128 80.5894 59.0271H80.5854Z" fill="#BA9080"/>
<path d="M60.2997 75.4463C60.0006 74.7143 59.8632 74.0349 59.9481 73.307C60.1542 71.5115 61.6982 70.3388 63.6706 70.4803C64.9437 70.5733 65.9744 71.0626 66.8434 71.7986C67.9831 72.7651 68.7107 73.95 68.7673 75.4544C68.7794 75.7617 68.743 76.0852 68.6702 76.3926C68.3429 77.7796 67.1344 78.7098 65.5783 78.7947C64.5315 78.8513 63.618 78.5763 62.7935 78.1153C61.6133 77.4602 60.7767 76.5301 60.2997 75.4422V75.4463Z" fill="#BA9080"/>
<path d="M89.4692 63.2583C90.027 64.8071 90.0068 66.5217 88.9923 68.2728C88.6285 68.8996 88.1314 69.4374 87.4483 69.8297C86.4743 70.3878 85.5123 70.4363 84.5827 70.0279C83.7056 69.6437 83.1358 68.9886 82.768 68.1959C82.0162 66.5784 82.0121 64.8758 82.8811 63.1208C83.3419 62.1866 84.0371 61.4102 85.1324 60.9896C86.0014 60.658 86.8097 60.7227 87.5575 61.0826C88.479 61.5275 89.0206 62.2675 89.4692 63.2623V63.2583Z" fill="#BA9080"/>
<path d="M88.8873 40.1663C88.6286 41.1692 88.1598 42.071 87.5171 42.8798C86.5148 44.1415 85.0961 44.5985 83.4956 44.6348C82.0163 44.6672 80.6623 44.2385 79.4134 43.4621C78.2574 42.7463 77.0691 42.0952 75.8121 41.5655C74.442 40.9872 73.0152 40.7648 71.5481 40.7769C70.5255 40.789 69.5029 40.8497 68.4844 40.9225C67.0981 41.0236 65.7643 40.8376 64.5113 40.2188C62.4904 39.224 61.4153 37.6712 61.383 35.4753C61.3426 33.0368 62.3773 31.124 64.3416 29.6924C65.3318 28.9726 66.411 28.366 67.4537 27.7109C67.9226 27.4157 68.3995 27.1245 68.8684 26.8253C69.7212 26.2834 70.2911 25.5029 70.8165 24.682C71.1196 24.2048 71.4228 23.7316 71.7299 23.2585C72.8899 21.4832 74.5956 20.6461 76.7781 20.6218C78.4514 20.6016 80.0115 21.006 81.4585 21.8431C83.1399 22.8136 84.1301 24.2209 84.3847 26.0771C84.4615 26.6271 84.5383 27.1771 84.5747 27.7311C84.6636 29.1303 85.1244 30.4082 85.9206 31.6012C86.6522 32.6971 87.3595 33.8051 88.0102 34.9415C88.7337 36.2113 89.1338 37.5701 89.0409 39.0218C89.0166 39.402 88.9479 39.7821 88.8994 40.1622L88.8873 40.1663Z" fill="#FFB89C"/>
<path d="M79.3285 15.8764C79.0456 16.9885 78.5161 18.0601 77.4329 18.8891C77.0409 19.1884 76.5842 19.431 76.0345 19.5645C74.8381 19.8556 73.7226 19.6049 72.6919 18.8972C72.0574 18.4605 71.5683 17.9388 71.245 17.3645C69.6768 14.5742 69.8142 12.0103 71.6977 9.70933C71.9806 9.3656 72.3969 9.07443 72.8334 8.83179C74.2561 8.04322 76.0305 8.29395 77.3723 9.44243C78.3585 10.2836 78.8799 11.2582 79.1992 12.2853C79.563 13.45 79.6034 14.6632 79.3285 15.8804V15.8764Z" fill="#FFB89C"/>
<path d="M90.8395 17.4331C90.1402 19.2043 89.1055 20.5631 87.3191 21.4164C86.8462 21.6428 86.3005 21.8086 85.7387 21.8976C84.0048 22.1685 82.4447 21.3881 81.7131 19.9241C81.216 18.9253 81.1432 17.9467 81.3049 16.9923C81.6363 15.0633 82.6387 13.4781 84.4171 12.3134C85.0678 11.8888 85.8115 11.5815 86.6926 11.4642C88.3901 11.2418 89.922 11.998 90.6495 13.4093C91.1547 14.388 91.2275 15.3504 91.0901 16.2967C91.0254 16.7375 90.9001 17.1621 90.8395 17.429V17.4331Z" fill="#FFB89C"/>
<path d="M60.5019 19.033C60.7201 18.1393 61.0556 17.4033 61.6295 16.7765C63.0523 15.2236 65.3076 15.1751 67.0698 16.6592C68.2055 17.6136 68.8441 18.7863 69.1594 20.0723C69.5716 21.7627 69.4463 23.3762 68.4763 24.8361C68.2783 25.1354 68.0236 25.4144 67.7407 25.657C66.4878 26.7408 64.7094 26.7893 63.1856 25.8026C62.159 25.1394 61.4881 24.2538 61.0233 23.259C60.3604 21.8314 60.2068 20.3877 60.4978 19.033H60.5019Z" fill="#FFB89C"/>
<path d="M96.3241 27.5047C95.7946 29.3447 94.5982 30.9461 92.448 31.9045C91.676 32.2482 90.8394 32.414 89.93 32.317C88.6285 32.1754 87.6908 31.5608 87.0927 30.5457C86.5268 29.5833 86.4379 28.5763 86.6319 27.5775C87.028 25.5393 88.188 23.9298 90.2089 22.8703C91.284 22.3082 92.4682 22.0494 93.7899 22.4052C94.8367 22.6883 95.5561 23.299 96.0088 24.1482C96.5706 25.1996 96.5787 26.2672 96.32 27.5087L96.3241 27.5047Z" fill="#FFB89C"/>
<path d="M224 169.894C224 169.951 184.148 169.999 135.004 169.999C85.86 169.999 46 169.951 46 169.894C46 169.838 85.8398 169.789 135.004 169.789C184.168 169.789 224 169.838 224 169.894Z" fill="#421503"/>
<path d="M122.248 129.668C121.513 128.208 120.555 127.391 120.555 127.391C120.555 127.391 120.239 123.711 118.784 121.543C117.325 119.372 115.151 117.613 112.532 119.275L112.883 119.073C111.562 118.053 109.432 117.948 107.863 118.51C107.128 118.773 106.364 119.157 105.717 119.724C103.725 121.467 102.686 123.286 102.686 123.286C102.686 123.286 100.127 123.448 99.1089 127.496C98.3369 130.578 97.8156 135.123 97.8156 135.123C97.8156 135.123 98.1187 142.544 98.5592 144.784C98.9998 147.024 97.5569 151.744 97.4761 152.69C97.3952 153.636 96.9466 154.364 96.308 158.101C95.6734 161.837 94.5498 169.792 94.5498 169.792H117.354C117.354 169.792 117.927 159.452 117.867 158.319C117.81 157.187 118.13 152.836 118.756 150.219C119.382 147.603 121.824 139.353 121.824 139.353C122.717 135.503 122.98 131.132 122.244 129.672L122.248 129.668Z" fill="#BA9080"/>
<g opacity="0.3">
<path d="M104.517 128.028L101.631 127.883C100.661 128.635 99.9253 129.682 99.5413 130.847C99.3958 131.292 99.3069 131.801 99.5373 132.206C99.8364 132.732 100.528 132.861 101.13 132.877C102.047 132.905 102.985 132.8 103.809 132.4C104.634 132 105.329 131.268 105.527 130.374C105.725 129.48 105.333 128.441 104.517 128.028Z" fill="black"/>
</g>
<g opacity="0.3">
<path d="M118.081 125.515L117.071 124.706C115.915 124.544 114.755 124.379 113.599 124.217C113.32 124.176 113.029 124.14 112.766 124.241C112.435 124.37 112.221 124.694 112.107 125.03C111.788 125.956 112.107 127.039 112.803 127.731C113.498 128.423 114.52 128.73 115.498 128.657C116.283 128.596 117.071 128.293 117.6 127.711C118.13 127.128 118.364 126.255 118.081 125.519V125.515Z" fill="black"/>
</g>
<path d="M115.28 120.052C115.749 119.987 116.226 120.113 116.63 120.355C117.37 120.8 118.623 121.742 118.599 123.028C118.562 124.852 118.51 126.987 116.343 127.477C114.177 127.966 111.513 126.462 112.665 123.344C113.562 120.922 114.359 120.177 115.28 120.052Z" fill="#421503"/>
<g opacity="0.3">
<path d="M110.596 124.168L109.104 122.373C108.615 122.28 108.122 122.187 107.625 122.211C107.128 122.235 106.623 122.389 106.263 122.733C105.867 123.109 105.693 123.667 105.665 124.213C105.608 125.268 106.081 126.36 106.946 126.963C107.815 127.565 109.064 127.606 109.917 126.987C110.769 126.364 111.109 125.09 110.596 124.168Z" fill="black"/>
</g>
<path d="M109.533 119.096C110.285 118.78 111.178 118.914 111.752 119.496C111.849 119.593 111.917 119.694 111.946 119.791C112.063 120.24 111.784 123.738 109.961 125.53C108.138 127.325 105.713 125.081 105.911 123.245C106.069 121.749 107.799 119.824 109.537 119.096H109.533Z" fill="#421503"/>
<path d="M103.337 124.824C103.337 124.824 102.116 123.574 100.924 125.79C99.7314 128.002 99.2909 131.278 100.58 131.496C101.865 131.715 104.784 131.003 104.893 129.228C105.002 127.456 104.052 125.216 103.341 124.824H103.337Z" fill="#421503"/>
<g opacity="0.3">
<path d="M119.467 132.02C118.708 131.434 117.915 130.896 117.091 130.407C116.897 130.29 116.691 130.176 116.464 130.168C115.959 130.152 115.603 130.662 115.446 131.143C115.143 132.073 115.224 133.141 115.725 133.982C116.226 134.823 117.151 135.413 118.134 135.45C119.112 135.486 120.106 134.932 120.539 134.055L119.467 132.025V132.02Z" fill="black"/>
</g>
<path d="M122.042 131.234C122.119 128.747 119.225 127.178 117.172 128.585C117.087 128.646 117.002 128.71 116.921 128.779C115.717 129.835 115.486 131.962 116.541 133.078C117.596 134.194 119.871 136.175 121.456 133.252C121.852 132.52 122.022 131.844 122.038 131.234H122.042Z" fill="#421503"/>
<g opacity="0.3">
<path d="M109.82 138.326C107.94 137.78 105.867 137.925 104.084 138.726C103.559 138.964 103.034 139.276 102.743 139.777C102.144 140.809 102.856 142.2 103.915 142.742C104.974 143.283 106.235 143.199 107.415 143.057C108.595 142.915 109.824 142.733 110.951 143.105C111.614 143.324 112.196 143.724 112.807 144.06C113.417 144.396 114.096 144.675 114.791 144.618C115.486 144.561 116.19 144.084 116.291 143.393L109.82 138.321V138.326Z" fill="black"/>
</g>
<path d="M117.721 138.212C117.285 137.335 116.578 136.619 115.729 136.125C114.92 135.656 113.684 134.803 113.045 133.719C112.047 132.021 112.277 130.735 110.268 130.626C108.264 130.52 108.397 132.267 105.952 133.068C102.035 134.35 101.174 135.296 100.802 137.023C100.431 138.75 100.831 139.599 101.809 140.74C102.783 141.88 106.041 140.133 108.644 140.226C111.246 140.319 113.219 143.028 114.803 143.805C116.384 144.581 117.915 142.984 118.166 140.517C118.259 139.607 118.037 138.831 117.725 138.208L117.721 138.212Z" fill="#421503"/>
<path d="M108.154 163.625C109.04 163.475 110.05 163.241 110.462 162.44C110.765 161.845 110.62 161.101 110.288 160.519C109.525 159.172 107.872 158.497 106.324 158.586C105.539 158.634 104.747 158.861 104.121 159.338C103.494 159.815 103.05 160.559 103.038 161.348C103.029 161.918 103.284 162.529 103.793 162.788C104.23 163.01 104.747 162.937 105.24 162.933C106.101 162.925 106.966 163.156 107.71 163.584" fill="#421503"/>
<path d="M102.985 150.656C102.985 150.656 103.163 150.62 103.498 150.567C103.83 150.514 104.319 150.429 104.929 150.284C106.142 149.993 107.859 149.431 109.666 148.31L110.123 148.027L109.787 148.448C109.234 149.148 108.635 149.904 108.005 150.696C107.936 150.789 107.88 150.899 107.863 150.996C107.847 151.093 107.892 151.165 107.969 151.194C108.146 151.254 108.421 151.137 108.664 151.068C109.161 150.911 109.654 150.696 110.123 150.429C110.664 150.126 111.162 149.762 111.59 149.37L112.095 148.909L111.752 149.499C111.351 150.187 111.032 150.899 110.806 151.606C110.689 151.958 110.596 152.314 110.519 152.662C110.45 153.01 110.361 153.357 110.39 153.673C110.402 153.83 110.45 153.98 110.547 154.077C110.644 154.174 110.786 154.207 110.923 154.174C111.206 154.114 111.444 153.887 111.683 153.713C112.156 153.341 112.58 152.981 112.952 152.637C113.7 151.946 114.245 151.343 114.613 150.919C114.783 150.717 114.924 150.555 115.034 150.425C115.131 150.312 115.179 150.256 115.187 150.26C115.191 150.264 115.151 150.328 115.066 150.45C114.981 150.571 114.852 150.745 114.674 150.967C114.322 151.408 113.785 152.031 113.049 152.739C112.681 153.09 112.257 153.462 111.784 153.843C111.545 154.02 111.315 154.259 110.959 154.348C110.782 154.393 110.567 154.348 110.422 154.207C110.276 154.065 110.224 153.871 110.204 153.693C110.167 153.325 110.264 152.977 110.329 152.621C110.406 152.265 110.499 151.906 110.616 151.546C110.846 150.822 111.166 150.098 111.574 149.394L111.735 149.524C111.295 149.928 110.786 150.3 110.228 150.615C109.743 150.886 109.238 151.105 108.728 151.267C108.599 151.307 108.474 151.343 108.344 151.38C108.211 151.412 108.061 151.444 107.896 151.388C107.722 151.335 107.621 151.121 107.657 150.963C107.682 150.806 107.758 150.684 107.835 150.575C108.47 149.782 109.076 149.03 109.634 148.331L109.755 148.468C107.92 149.588 106.174 150.13 104.945 150.393C104.327 150.522 103.834 150.591 103.498 150.624C103.329 150.64 103.199 150.648 103.114 150.652C103.025 150.656 102.981 150.656 102.981 150.652L102.985 150.656Z" fill="#421503"/>
<path d="M78.7991 111.37C78.7991 111.37 80.0884 112.17 81.2444 113.804C82.4003 115.438 82.9662 120.853 82.6833 125.754C82.6833 125.754 81.4586 136.373 81.2444 139.71C81.0302 143.046 81.5192 148.445 81.8143 149.82C82.1093 151.195 83.3057 169.744 83.3057 169.744H56.6987C56.6987 169.744 56.4036 158.749 56.4077 154.038C56.4077 149.326 56.7957 148.344 56.6987 147.167C56.6057 145.99 57.3615 139.904 56.3955 137.255C55.4295 134.606 53.5905 125.576 53.5905 125.576C53.5905 125.576 52.4063 119.712 53.5905 115.96C54.7748 112.211 55.4295 113.501 55.4295 113.501C55.4295 113.501 57.8142 107.613 59.8108 105.061C60.4575 104.232 61.278 103.601 62.0944 103.128C63.8284 102.113 65.9826 102.121 67.7408 103.092C70.4933 100.512 73.4033 102.214 75.5536 104.572C77.6998 106.929 78.8072 111.37 78.8072 111.37H78.7991Z" fill="#FF5100"/>
<g opacity="0.3">
<path d="M59.0913 115.484C60.1785 115.82 60.8737 117.013 60.8171 118.149C60.7606 119.286 60.0613 120.329 59.1317 120.992C58.2021 121.655 57.0745 121.979 55.9468 122.137C55.2031 122.242 54.326 122.226 53.8532 121.643C53.4854 121.194 53.4894 120.551 53.5783 119.977C53.8087 118.469 54.4958 117.033 55.5224 115.909" fill="black"/>
</g>
<g opacity="0.3">
<path d="M75.1898 109.585C75.6869 110.426 75.5859 111.547 75.0564 112.372C74.5269 113.197 73.6256 113.734 72.6758 113.969C71.4956 114.26 70.174 114.098 69.1797 113.395C68.1814 112.695 67.567 111.429 67.7691 110.228C67.8418 109.796 68.0358 109.351 68.4158 109.124C68.7149 108.946 69.0827 108.93 69.4303 108.922C70.8813 108.882 72.3363 108.841 73.7873 108.801" fill="black"/>
</g>
<path d="M71.633 103.32C71.633 103.32 74.9716 104.178 75.307 106.422C75.6425 108.666 76.0224 111.291 73.4721 112.342C70.9176 113.394 67.3407 112.104 68.1046 108.048C68.8685 103.992 70.0123 103.369 71.633 103.32Z" fill="#421503"/>
<g opacity="0.3">
<path d="M65.7361 109.493C66.5566 110.516 66.4111 112.15 65.4936 113.088C64.5762 114.026 63.0362 114.237 61.848 113.679C60.6597 113.12 59.8554 111.883 59.7058 110.577C59.629 109.901 59.726 109.182 60.1302 108.64C60.498 108.146 61.0881 107.851 61.6903 107.718C62.2925 107.584 62.919 107.596 63.5334 107.609" fill="black"/>
</g>
<path d="M64.762 102.895C64.762 102.895 66.2413 103.323 66.4798 103.849C66.7182 104.375 67.0981 108.718 65.2389 111.294C63.3797 113.87 59.9442 111.63 59.7987 109.337C59.6572 107.044 62.2803 103.465 64.762 102.891V102.895Z" fill="#421503"/>
<path d="M56.1732 111.531C56.1732 111.531 55.2193 110.528 54.2169 113.488C53.2146 116.448 53.3601 120.553 54.9808 120.553C56.6016 120.553 60.025 119.073 59.7946 116.877C59.5602 114.681 57.127 111.866 56.1732 111.531Z" fill="#421503"/>
<g opacity="0.3">
<path d="M79.9793 119.532C79.6276 120.7 78.5283 121.582 77.3198 121.744C76.1113 121.906 74.8543 121.376 74.0661 120.446C73.278 119.516 72.9547 118.23 73.1325 117.024C73.2255 116.402 73.5569 115.702 74.1753 115.617C74.4542 115.581 74.733 115.678 74.9958 115.779C76.1072 116.208 77.1904 116.705 78.2413 117.263" fill="black"/>
</g>
<path d="M78.4555 112.204C78.884 112.155 82.271 114.448 80.9372 118.363C79.5994 122.277 76.4063 120.32 74.8786 119.176C73.3508 118.031 73.0638 115.261 74.4501 113.83C75.8324 112.398 78.4596 112.208 78.4596 112.208L78.4555 112.204Z" fill="#421503"/>
<g opacity="0.3">
<path d="M59.3583 130.254C59.6089 129.582 60.1868 129.089 60.785 128.689C62.8059 127.334 65.3159 126.727 67.7328 127.002L76.7177 131.867C76.7339 132.733 75.974 133.469 75.1333 133.679C74.2927 133.889 73.4035 133.691 72.587 133.408C71.7665 133.125 70.9703 132.757 70.1135 132.623C68.6544 132.397 67.1872 132.878 65.7685 133.299C64.3499 133.719 62.8261 134.083 61.4155 133.643C60.005 133.202 58.845 131.641 59.3623 130.254H59.3583Z" fill="black"/>
</g>
<path d="M75.5456 123.419C75.784 123.706 78.2172 125.126 78.4071 127.952C78.6133 131.026 77.0693 133.298 74.9716 132.68C72.874 132.061 69.8911 129.149 66.6819 129.578C63.4728 130.007 59.8473 132.825 58.4165 131.632C56.9857 130.439 56.3148 129.485 56.4118 127.289C56.5088 125.093 57.3656 123.759 61.8965 121.369C64.7298 119.877 64.2003 117.762 66.6779 117.474C69.1596 117.187 69.1474 118.813 70.7197 120.685C72.296 122.558 75.5415 123.419 75.5415 123.419H75.5456Z" fill="#421503"/>
<path d="M78.9407 112.014C79.2398 111.08 78.876 109.648 78.2981 108.694C78.1525 108.451 77.7928 108.471 77.6756 108.73C77.2512 109.673 77.0411 111.072 77.1906 112.095" fill="#E0E0E0"/>
<path d="M77.1905 112.094C77.1663 112.098 77.0531 111.674 77.0814 110.97C77.0935 110.618 77.138 110.202 77.239 109.749C77.2916 109.522 77.3522 109.284 77.4371 109.045C77.4815 108.924 77.526 108.807 77.5826 108.681C77.6473 108.528 77.813 108.418 77.9868 108.418C78.1565 108.41 78.3303 108.524 78.399 108.661C78.4677 108.774 78.5284 108.887 78.585 109.005C78.6941 109.235 78.787 109.462 78.8598 109.684C79.0053 110.129 79.0821 110.546 79.1023 110.897C79.1548 111.609 78.9608 112.03 78.9406 112.017C78.9043 112.009 79.0417 111.593 78.9528 110.909C78.9123 110.57 78.8234 110.173 78.6739 109.745C78.5971 109.535 78.5082 109.312 78.399 109.094C78.3424 108.985 78.2859 108.875 78.2212 108.766C78.1727 108.673 78.0919 108.629 77.9949 108.629C77.9019 108.629 77.813 108.685 77.7766 108.77C77.7281 108.883 77.6796 109.001 77.6351 109.114C77.5503 109.344 77.4856 109.571 77.429 109.793C77.3199 110.234 77.2633 110.639 77.231 110.982C77.1663 111.666 77.2269 112.094 77.1905 112.098V112.094Z" fill="#421503"/>
<path d="M77.926 108.79C77.9706 108.762 78.3388 109.401 78.3994 110.29C78.4682 111.18 78.2012 111.867 78.1526 111.847C78.0919 111.831 78.2578 111.152 78.189 110.306C78.1284 109.461 77.8654 108.814 77.922 108.79H77.926Z" fill="#421503"/>
<path d="M71.1157 103.522C71.4148 102.588 71.0511 101.156 70.4731 100.202C70.3276 99.9591 69.9679 99.9793 69.8507 100.238C69.4263 101.18 69.2161 102.58 69.3657 103.603" fill="#E0E0E0"/>
<path d="M69.3697 103.602C69.3455 103.606 69.2323 103.182 69.2606 102.478C69.2727 102.126 69.3172 101.71 69.4182 101.257C69.4708 101.03 69.5314 100.792 69.6163 100.553C69.6607 100.432 69.7052 100.314 69.7618 100.189C69.8265 100.035 69.9922 99.9262 70.166 99.9262C70.3357 99.9181 70.5095 100.031 70.5782 100.169C70.6469 100.282 70.7076 100.395 70.7642 100.513C70.8733 100.743 70.9662 100.97 71.039 101.192C71.1845 101.637 71.2613 102.053 71.2815 102.405C71.334 103.117 71.14 103.537 71.1198 103.525C71.0835 103.517 71.2209 103.101 71.132 102.417C71.0915 102.078 71.0026 101.681 70.8531 101.253C70.7763 101.042 70.6874 100.82 70.5782 100.602C70.5216 100.492 70.4651 100.383 70.4004 100.274C70.3519 100.181 70.2711 100.136 70.1741 100.136C70.0811 100.136 69.9922 100.193 69.9558 100.278C69.9073 100.391 69.8588 100.509 69.8143 100.622C69.7295 100.852 69.6648 101.079 69.6082 101.301C69.4991 101.742 69.4425 102.146 69.4102 102.49C69.3455 103.173 69.4061 103.602 69.3697 103.606V103.602Z" fill="#421503"/>
<path d="M70.1052 100.298C70.1498 100.269 70.518 100.908 70.5786 101.798C70.6474 102.688 70.3804 103.375 70.3318 103.355C70.2711 103.339 70.437 102.659 70.3682 101.814C70.3076 100.969 70.0446 100.322 70.1012 100.298H70.1052Z" fill="#421503"/>
<path d="M66.2857 103.205C66.5848 102.271 66.221 100.84 65.643 99.8853C65.4975 99.6427 65.1378 99.6629 65.0206 99.9217C64.5962 100.864 64.386 102.263 64.5356 103.286" fill="#E0E0E0"/>
<path d="M64.5397 103.29C64.5154 103.294 64.4022 102.869 64.4305 102.165C64.4427 101.814 64.4871 101.397 64.5882 100.944C64.6407 100.718 64.7013 100.479 64.7862 100.241C64.8307 100.119 64.8751 100.002 64.9317 99.8765C64.9964 99.7229 65.1621 99.6137 65.3359 99.6137C65.5056 99.6056 65.6794 99.7188 65.7482 99.8563C65.8169 99.9696 65.8775 100.083 65.9341 100.2C66.0432 100.431 66.1362 100.657 66.2089 100.879C66.3544 101.324 66.4312 101.741 66.4514 102.093C66.504 102.804 66.31 103.225 66.2898 103.213C66.2534 103.205 66.3908 102.788 66.3019 102.105C66.2615 101.765 66.1725 101.369 66.023 100.94C65.9462 100.73 65.8573 100.507 65.7482 100.289C65.6916 100.18 65.635 100.071 65.5703 99.9615C65.5218 99.8685 65.441 99.824 65.344 99.824C65.251 99.824 65.1621 99.8806 65.1257 99.9655C65.0772 100.079 65.0287 100.196 64.9843 100.309C64.8994 100.54 64.8347 100.766 64.7781 100.989C64.669 101.429 64.6124 101.834 64.5801 102.178C64.5154 102.861 64.576 103.29 64.5397 103.294V103.29Z" fill="#421503"/>
<path d="M65.2713 99.9853C65.3158 99.957 65.684 100.596 65.7447 101.486C65.8134 102.375 65.5464 103.063 65.4978 103.043C65.4372 103.026 65.603 102.347 65.5343 101.502C65.4736 100.657 65.2106 100.01 65.2672 99.9853H65.2713Z" fill="#421503"/>
<path d="M58.1861 111.76C58.4851 110.826 58.1214 109.394 57.5434 108.44C57.3979 108.197 57.0382 108.218 56.921 108.476C56.4966 109.419 56.2864 110.818 56.436 111.841" fill="#E0E0E0"/>
<path d="M56.4401 111.84C56.4158 111.844 56.3026 111.42 56.3309 110.716C56.343 110.364 56.3875 109.948 56.4886 109.495C56.5411 109.268 56.6017 109.03 56.6866 108.791C56.7311 108.67 56.7755 108.553 56.8321 108.427C56.8968 108.274 57.0625 108.164 57.2363 108.164C57.406 108.156 57.5798 108.27 57.6485 108.407C57.7173 108.52 57.7779 108.634 57.8345 108.751C57.9436 108.981 58.0366 109.208 58.1093 109.43C58.2548 109.875 58.3316 110.292 58.3518 110.643C58.4044 111.355 58.2104 111.776 58.1901 111.764C58.1538 111.756 58.2912 111.339 58.2023 110.656C58.1619 110.316 58.0729 109.92 57.9234 109.491C57.8466 109.281 57.7577 109.058 57.6485 108.84C57.592 108.731 57.5354 108.621 57.4707 108.512C57.4222 108.419 57.3414 108.375 57.2444 108.375C57.1514 108.375 57.0625 108.431 57.0261 108.516C56.9776 108.63 56.9291 108.747 56.8846 108.86C56.7998 109.091 56.7351 109.317 56.6785 109.539C56.5694 109.98 56.5128 110.385 56.4805 110.728C56.4158 111.412 56.4764 111.84 56.4401 111.844V111.84Z" fill="#421503"/>
<path d="M57.1756 108.536C57.2201 108.508 57.5883 109.147 57.649 110.036C57.7177 110.926 57.4507 111.614 57.4021 111.593C57.3415 111.577 57.5073 110.898 57.4386 110.053C57.3779 109.207 57.1149 108.56 57.1715 108.536H57.1756Z" fill="#421503"/>
<path d="M70.946 158.346C72.0009 157.978 73.1892 157.48 73.5247 156.413C73.7753 155.62 73.4398 154.738 72.9144 154.095C71.6978 152.603 69.5314 152.122 67.656 152.555C66.7021 152.777 65.7806 153.218 65.1137 153.934C64.4468 154.65 64.0548 155.652 64.2043 156.623C64.3134 157.327 64.754 158.018 65.429 158.228C66.011 158.41 66.6294 158.212 67.2276 158.107C68.2825 157.921 69.3859 158.018 70.3882 158.394" fill="#421503"/>
<path d="M61.9165 143.528C61.9165 143.528 61.9691 143.504 62.0701 143.467C62.1873 143.427 62.3409 143.378 62.5268 143.318C62.9229 143.184 63.505 142.986 64.2244 142.683C65.6552 142.08 67.6478 141.033 69.6282 139.282L70.0324 138.926L69.7738 139.399C69.2402 140.374 68.6623 141.421 68.056 142.521C67.9913 142.654 67.9428 142.796 67.9428 142.929C67.9428 143.059 68.0196 143.152 68.1368 143.176C68.3834 143.212 68.6946 143.006 68.9816 142.873C69.5595 142.573 70.1173 142.209 70.6427 141.785C71.245 141.3 71.7785 140.746 72.2231 140.175L72.6434 139.633L72.4009 140.276C72.0533 141.207 71.8108 142.145 71.6774 143.059C71.6087 143.516 71.5683 143.969 71.5441 144.413C71.536 144.854 71.4956 145.299 71.5966 145.687C71.6491 145.881 71.7381 146.059 71.8836 146.16C72.0291 146.262 72.219 146.274 72.3847 146.205C72.7243 146.063 72.9708 145.74 73.2254 145.473C73.7266 144.919 74.1712 144.385 74.5552 143.884C75.3231 142.881 75.8688 142.023 76.2285 141.425C76.3982 141.138 76.5357 140.907 76.6367 140.733C76.7297 140.576 76.7782 140.495 76.7862 140.495C76.7903 140.495 76.7539 140.584 76.6731 140.75C76.5922 140.915 76.4669 141.154 76.2972 141.461C75.9577 142.072 75.4282 142.945 74.6683 143.965C74.2884 144.474 73.8479 145.016 73.3467 145.578C73.088 145.845 72.8576 146.185 72.4494 146.363C72.2473 146.452 71.9806 146.444 71.7825 146.306C71.5845 146.169 71.4753 145.946 71.4188 145.736C71.3015 145.295 71.342 144.85 71.35 144.405C71.3703 143.956 71.4107 143.495 71.4753 143.03C71.6087 142.1 71.8472 141.146 72.2029 140.204L72.3807 140.305C71.928 140.891 71.3824 141.453 70.768 141.951C70.2345 142.383 69.6606 142.755 69.0705 143.059C68.925 143.136 68.7754 143.204 68.6218 143.277C68.4683 143.342 68.2945 143.415 68.0883 143.378C67.8782 143.35 67.7205 143.127 67.7286 142.933C67.7286 142.743 67.7933 142.582 67.862 142.432C68.4763 141.328 69.0584 140.281 69.6 139.306L69.7414 139.423C67.7286 141.178 65.7077 142.209 64.2567 142.788C63.5292 143.079 62.9391 143.265 62.5349 143.378C62.3328 143.435 62.1752 143.471 62.0701 143.499C61.965 143.524 61.9084 143.536 61.9084 143.532L61.9165 143.528Z" fill="#421503"/>
<path d="M217.214 153.286L205.82 123.692L203.363 130.713L182.725 85.7881L172.091 63.6636L152.654 55.1875L130.542 63.0004C130.542 63.0004 124.96 77.9671 124.289 81.542C123.618 85.1168 126.076 96.9616 126.076 96.9616L132.328 111.936L136.301 133.475C136.301 133.475 134.786 145.238 135 151.284C135.214 157.33 138.043 169.789 138.043 169.789H220.787L217.214 153.282V153.286Z" fill="#FF5100"/>
<g opacity="0.5">
<path d="M190 161.665C190.126 149.873 187.604 141.081 184.305 132.29C183.946 131.335 183.028 130.591 182.046 130.316C180.187 129.799 178.562 131.562 177.293 133.018C176.024 134.474 173.862 135.881 172.338 134.696C170.644 133.378 171.885 130.697 173.207 129.002C175.761 125.735 178.332 122.39 179.839 118.528C181.347 114.662 182.879 110.137 180.959 106.457C176.873 111.811 170.984 116.474 161.041 119.62C152.598 122.346 142.938 121.666 135.756 119.632C140.994 122.629 145.88 127.053 150.29 131.182C152.004 132.787 153.786 135.088 152.873 137.256C152.189 138.873 150.27 139.569 148.524 139.759C146.778 139.949 144.943 139.824 143.342 140.552C140.529 141.83 139.413 145.295 139.43 148.385C139.466 155.502 141.96 164.702 147.174 169.798H189.717C190.223 167.177 189.98 163.323 190 161.673V161.665Z" fill="white"/>
</g>
<path d="M180.527 110.25C180.527 110.25 180.474 110.29 180.361 110.351C180.227 110.42 180.066 110.501 179.872 110.602C179.658 110.707 179.395 110.836 179.1 111.002C178.801 111.168 178.457 111.342 178.093 111.564C177.354 111.989 176.501 112.547 175.587 113.21C174.682 113.886 173.72 114.67 172.774 115.564C171.833 116.466 171.004 117.392 170.285 118.261C169.577 119.143 168.983 119.968 168.518 120.687C168.276 121.039 168.086 121.375 167.908 121.666C167.726 121.953 167.585 122.208 167.468 122.418C167.358 122.608 167.269 122.766 167.193 122.895C167.128 123.005 167.092 123.057 167.084 123.057C167.075 123.057 167.1 122.993 167.156 122.879C167.221 122.742 167.302 122.58 167.399 122.382C167.504 122.164 167.637 121.905 167.807 121.609C167.977 121.314 168.159 120.971 168.397 120.611C168.846 119.879 169.432 119.038 170.135 118.144C170.85 117.258 171.683 116.324 172.629 115.414C173.583 114.512 174.557 113.724 175.474 113.057C176.4 112.397 177.269 111.851 178.021 111.439C178.392 111.221 178.744 111.055 179.047 110.901C179.35 110.743 179.617 110.622 179.839 110.529C180.042 110.444 180.207 110.371 180.349 110.315C180.466 110.266 180.531 110.246 180.531 110.254L180.527 110.25Z" fill="#421503"/>
<path d="M188.081 80.5518C184.783 70.729 176.194 66.9682 176.194 66.9682C176.194 66.9682 174.698 64.7157 169.929 60.2714C165.16 55.8271 156.401 52.7496 150.019 52.139C149.765 52.1147 149.506 52.0985 149.239 52.0904C142.817 51.9206 133.112 56.6197 133.112 56.6197C126.945 58.3303 118.893 69.993 117.35 74.5991C115.806 79.2052 116.78 87.8188 116.78 87.8188C116.78 87.8188 113.433 95.4538 115.531 102.895C119.221 116.009 141.863 126.528 164.012 118.072C186.161 109.616 191.379 90.3706 188.085 80.5478L188.081 80.5518Z" fill="#FF5100"/>
<g opacity="0.5">
<path d="M163.838 118.712C172.479 115.493 181.355 108 185.106 101.105C186.44 96.054 187.935 90.3642 187.935 90.3642L181.69 70.7793C180.692 69.8573 179.726 69.1172 178.89 68.543C176.731 68.8786 174.718 70.3911 173.453 72.2472C171.784 74.7019 171.101 77.6702 170.24 80.5131C169.379 83.356 168.215 86.2717 165.911 88.144C163.438 90.1539 159.323 89.6888 156.146 89.426C156.454 92.3255 157.468 96.1592 157.775 99.0587C155.811 99.6572 153.843 100.256 151.878 100.85C149.91 98.169 148.41 95.1441 147.473 91.9575C146.236 93.4416 144.983 94.9379 143.423 96.0783C141.863 97.2187 139.947 97.979 138.023 97.7848C135.331 97.5139 133.201 95.496 130.841 94.1776C127.405 92.2608 123.182 91.8038 119.415 92.9483C117.745 93.4538 116.181 94.2706 114.795 95.3302C114.702 97.4128 114.912 99.9201 115.522 102.9C116.982 110.002 124.673 116.282 133.593 118.999C141.81 121.503 153.151 122.7 163.834 118.72L163.838 118.712Z" fill="white"/>
</g>
<path d="M157.529 97.4494C156.009 97.506 154.473 97.7406 153.079 98.3553C151.684 98.9699 150.439 99.9971 149.752 101.356C149.417 102.019 149.223 102.779 149.389 103.503C149.712 104.906 151.207 105.647 152.537 106.201C153.911 106.771 155.407 107.353 156.85 106.993C157.937 106.722 158.826 105.946 159.594 105.129C160.629 104.029 161.571 102.707 161.639 101.198C161.704 99.6898 161.009 97.4251 157.529 97.4494Z" fill="#421503"/>
<path d="M157.044 105.938C157.044 105.938 157.145 106.164 157.29 106.585C157.428 107.009 157.634 107.624 157.763 108.416C157.889 109.201 157.917 110.208 157.497 111.211C157.29 111.708 156.955 112.194 156.486 112.557C156.017 112.925 155.439 113.16 154.837 113.289C153.62 113.54 152.428 113.431 151.398 113.188C150.363 112.934 149.486 112.517 148.811 112.084C148.132 111.656 147.647 111.215 147.34 110.891C147.182 110.734 147.073 110.596 146.996 110.507C146.923 110.414 146.887 110.366 146.891 110.362C146.927 110.321 147.53 111.138 148.888 111.959C149.563 112.367 150.427 112.76 151.442 112.998C152.452 113.225 153.621 113.322 154.793 113.083C155.375 112.958 155.92 112.735 156.361 112.396C156.801 112.06 157.117 111.607 157.319 111.138C157.727 110.188 157.719 109.213 157.614 108.441C157.505 107.66 157.327 107.037 157.21 106.609C157.092 106.18 157.028 105.942 157.044 105.938Z" fill="#421503"/>
<path d="M157.456 107.487C157.472 107.446 157.686 107.576 158.038 107.822C158.394 108.065 158.899 108.437 159.566 108.809C160.225 109.197 161.106 109.46 162.112 109.525C163.106 109.586 164.25 109.383 165.18 108.692C166.114 108.004 166.712 107.022 167.075 106.092C167.439 105.149 167.581 104.239 167.666 103.479C167.746 102.715 167.771 102.092 167.795 101.659C167.815 101.227 167.835 100.992 167.847 100.992C167.864 100.992 167.872 101.231 167.876 101.663C167.876 102.096 167.876 102.723 167.811 103.495C167.746 104.264 167.617 105.194 167.253 106.164C166.886 107.123 166.279 108.142 165.301 108.862C164.327 109.59 163.119 109.796 162.096 109.719C161.065 109.646 160.152 109.351 159.489 108.939C158.818 108.542 158.329 108.15 157.986 107.887C157.646 107.616 157.46 107.475 157.456 107.487Z" fill="#421503"/>
<path d="M140.848 87.2601C140.206 86.4594 139.187 85.9943 138.165 85.962C137.522 85.9418 136.908 86.2127 136.435 86.6454C135.376 87.2803 134.721 88.542 134.814 89.7754C134.923 91.1949 136.03 92.4809 137.417 92.8044C138.803 93.1279 140.359 92.4728 141.107 91.2596C141.855 90.0464 141.742 88.3681 140.848 87.2601Z" fill="#421503"/>
<path d="M165.156 81.2699C164.529 80.4894 163.563 80.1133 162.573 80.1133C161.926 80.1133 161.3 80.3317 160.738 80.6552C159.679 81.2901 159.024 82.5518 159.117 83.7852C159.226 85.2046 160.334 86.4906 161.72 86.8141C163.106 87.1376 164.662 86.4825 165.41 85.2693C166.158 84.0561 166.045 82.3779 165.152 81.2699H165.156Z" fill="#421503"/>
<g opacity="0.5">
<path d="M138.056 71.3523L137.263 70.9398C134.547 70.1674 131.75 72.8647 130.109 75.004C129.616 75.647 129.172 76.383 129.164 77.1918C129.156 78.2837 129.968 79.234 130.91 79.788C132.793 80.892 135.182 80.7707 137.255 80.0832C138.116 79.7961 138.997 79.3755 139.478 78.6072C139.842 78.0208 139.931 77.305 139.927 76.6175C139.911 74.7209 139.244 72.8364 138.06 71.3563L138.056 71.3523Z" fill="white"/>
</g>
<g opacity="0.5">
<path d="M156.535 66.4461L157.327 66.0336C160.043 65.2612 162.84 67.9585 164.481 70.0978C164.974 70.7407 165.418 71.4767 165.426 72.2855C165.435 73.3774 164.622 74.3277 163.68 74.8818C161.797 75.9898 159.408 75.8644 157.335 75.177C156.474 74.8898 155.593 74.4693 155.112 73.7009C154.748 73.1145 154.659 72.3988 154.663 71.7113C154.679 69.8147 155.346 67.9302 156.531 66.4501L156.535 66.4461Z" fill="white"/>
</g>
<path d="M144.813 105.518C144.813 105.518 144.644 105.36 144.377 105.045C144.11 104.729 143.722 104.264 143.318 103.637C142.922 103.014 142.481 102.206 142.344 101.207C142.275 100.709 142.303 100.176 142.429 99.6459C142.554 99.1161 142.756 98.5944 142.982 98.0768C143.88 95.9861 145.052 94.2836 145.897 93.0704C146.309 92.4881 146.648 92.0068 146.911 91.6388C147.154 91.3032 147.291 91.1172 147.303 91.1253C147.315 91.1333 147.202 91.3315 146.98 91.6833C146.762 92.0351 146.43 92.5366 146.022 93.1513C145.209 94.3847 144.066 96.0872 143.176 98.1577C142.95 98.6713 142.752 99.1808 142.631 99.6904C142.51 100.2 142.477 100.705 142.538 101.179C142.655 102.133 143.067 102.93 143.447 103.552C143.831 104.179 144.199 104.652 144.442 104.984C144.692 105.316 144.83 105.497 144.817 105.51L144.813 105.518Z" fill="#421503"/>
<path d="M168.143 96.7559C168.143 96.7559 168.126 96.5132 168.118 96.0805C168.106 95.6519 168.102 95.017 167.924 94.2729C167.831 93.9049 167.69 93.5045 167.435 93.1406C167.189 92.7726 166.829 92.4531 166.388 92.2145C165.952 91.9719 165.443 91.798 164.913 91.6322C164.38 91.4664 163.83 91.2965 163.264 91.1227C161.005 90.423 158.96 89.776 157.484 89.2988C156.773 89.0643 156.187 88.8702 155.742 88.7246C155.33 88.583 155.108 88.4981 155.112 88.486C155.116 88.4739 155.35 88.5305 155.767 88.6477C156.219 88.7772 156.813 88.951 157.529 89.1613C159.016 89.6021 161.065 90.2249 163.325 90.9245C163.891 91.1024 164.44 91.2723 164.974 91.4381C165.507 91.6079 166.025 91.7859 166.481 92.0487C166.938 92.3035 167.322 92.6553 167.577 93.0476C167.839 93.4398 167.977 93.8604 168.066 94.2405C168.231 95.0129 168.207 95.6519 168.195 96.0846C168.187 96.303 168.175 96.4688 168.163 96.586C168.151 96.6993 168.143 96.7599 168.134 96.7599L168.143 96.7559Z" fill="#421503"/>
<path d="M115.43 50.826C112.879 50.1627 109.787 50.0616 108.009 52.0068C106.267 53.9115 106.586 56.8798 107.213 59.387C108.93 66.2618 112.176 72.7523 116.646 78.2521L129.907 58.2668C125.36 55.2581 120.708 52.2009 115.43 50.826Z" fill="#FF5100"/>
<g opacity="0.5">
<path d="M114.67 53.8662C113.122 53.3163 111.113 53.1181 110.098 54.4122C109.181 55.5849 109.634 57.2915 110.216 58.6664C112.277 63.507 115.102 68.8531 119.144 72.2258C121.104 68.198 123.388 64.5625 126.241 61.6064C122.943 58.626 118.857 55.3544 114.67 53.8662Z" fill="white"/>
</g>
<path d="M121.888 67.333C121.888 67.333 121.743 67.2077 121.508 66.9529C121.246 66.6698 120.914 66.3099 120.518 65.8772C119.649 64.9431 118.497 63.7097 117.228 62.3468C115.943 60.9678 114.791 59.7061 113.983 58.772C113.578 58.3069 113.255 57.9227 113.041 57.6518C112.827 57.3809 112.709 57.2272 112.722 57.2191C112.734 57.211 112.867 57.3445 113.101 57.5992C113.364 57.8823 113.696 58.2422 114.092 58.6749C114.961 59.6091 116.113 60.8425 117.382 62.2053C118.667 63.5843 119.819 64.842 120.627 65.7802C121.031 66.2452 121.355 66.6294 121.569 66.9003C121.783 67.1713 121.9 67.325 121.888 67.333Z" fill="#421503"/>
<path d="M167.763 41.0048C166.704 38.6512 165.115 36.1237 162.569 35.7031C159.966 35.2745 157.602 37.2681 156.009 39.371C152.715 43.7183 150.953 48.9997 149.243 54.18L170.842 61.4874C170.26 54.0263 170.665 47.467 167.759 41.0007L167.763 41.0048Z" fill="#FF5100"/>
<g opacity="0.5">
<path d="M158.487 41.2921C159.364 39.901 160.819 38.5017 162.415 38.89C163.862 39.2418 164.566 40.8634 164.954 42.3031C166.332 47.3823 167.407 53.1126 166.32 58.2646C162.892 56.2628 158.899 54.7949 154.578 53.6221C155.322 49.2385 156.114 45.053 158.483 41.2921H158.487Z" fill="white"/>
</g>
<path d="M161.191 55.7888C161.191 55.7888 161.17 55.6028 161.17 55.2712C161.17 54.9396 161.187 54.4584 161.211 53.868C161.263 52.6831 161.381 51.0453 161.534 49.2457C161.684 47.4664 161.817 45.8569 161.918 44.6315C161.963 44.0735 161.999 43.6044 162.027 43.2323C162.056 42.9007 162.076 42.7188 162.092 42.7188C162.108 42.7188 162.112 42.9048 162.112 43.2364C162.112 43.568 162.096 44.0492 162.072 44.6396C162.019 45.8245 161.902 47.4623 161.748 49.2659C161.599 51.0453 161.465 52.6548 161.364 53.8801C161.32 54.4381 161.284 54.9072 161.255 55.2793C161.227 55.6109 161.207 55.7929 161.191 55.7929V55.7888Z" fill="#421503"/>
<path d="M180.527 107.102C180.527 107.102 180.458 107.272 180.26 107.551C180.066 107.834 179.743 108.226 179.29 108.699C178.841 109.172 178.259 109.718 177.564 110.325C177.216 110.628 176.837 110.948 176.428 111.275C176.028 111.615 175.604 111.971 175.159 112.347C173.361 113.827 171.061 115.404 168.32 116.824C165.588 118.247 162.395 119.456 158.935 120.281C155.472 121.098 152.081 121.438 149.001 121.47C145.917 121.494 143.148 121.215 140.853 120.827C138.557 120.431 136.734 119.937 135.493 119.537C134.875 119.331 134.398 119.165 134.079 119.036C133.929 118.975 133.808 118.93 133.715 118.894C133.634 118.862 133.594 118.841 133.594 118.837C133.594 118.833 133.638 118.846 133.723 118.874C133.816 118.906 133.937 118.947 134.091 118.999C134.414 119.116 134.895 119.266 135.513 119.46C136.754 119.836 138.581 120.305 140.873 120.681C143.164 121.054 145.925 121.312 148.993 121.28C152.06 121.235 155.435 120.892 158.883 120.079C162.327 119.258 165.503 118.061 168.228 116.654C170.956 115.25 173.255 113.694 175.058 112.234C175.951 111.494 176.764 110.826 177.479 110.24C178.182 109.641 178.768 109.104 179.225 108.643C179.682 108.182 180.017 107.801 180.219 107.526C180.426 107.256 180.51 107.094 180.523 107.102H180.527Z" fill="#421503"/>
<g opacity="0.5">
<path d="M157.525 98.4816C155.322 98.3603 153.091 99.4765 151.87 101.316C151.729 101.531 151.595 101.798 151.688 102.036C151.777 102.255 152.036 102.364 152.274 102.352C152.509 102.336 152.727 102.226 152.937 102.117C154.356 101.377 155.779 100.637 157.197 99.897C157.472 99.7555 157.763 99.5937 157.901 99.3187C158.042 99.0438 157.933 98.6232 157.63 98.5666" fill="white"/>
</g>
<path d="M167.88 59.1918C167.88 59.1918 167.678 59.0987 167.33 58.9046C166.982 58.7065 166.477 58.4234 165.851 58.0837C164.594 57.4043 162.827 56.5268 160.807 55.714C158.786 54.9052 156.902 54.3147 155.524 53.9346C154.837 53.7445 154.275 53.599 153.887 53.5019C153.499 53.4049 153.285 53.3442 153.289 53.328C153.293 53.3118 153.511 53.3482 153.903 53.421C154.295 53.4938 154.865 53.6151 155.56 53.789C156.951 54.1328 158.85 54.703 160.883 55.5158C162.912 56.3327 164.679 57.2345 165.919 57.9503C166.542 58.3061 167.035 58.6094 167.37 58.8318C167.706 59.0502 167.888 59.1796 167.88 59.1918Z" fill="#421503"/>
<path d="M162.718 110.999C162.735 111.019 162.508 111.233 162.108 111.541C161.708 111.844 161.13 112.236 160.455 112.6C159.78 112.964 159.137 113.239 158.664 113.405C158.192 113.575 157.888 113.643 157.88 113.619C157.86 113.559 159.024 113.142 160.358 112.414C161.696 111.694 162.682 110.946 162.718 110.999Z" fill="#421503"/>
<path d="M127.822 60.3287C127.822 60.3287 127.672 60.5147 127.373 60.8261C127.07 61.1335 126.646 61.5904 126.128 62.1606C125.094 63.301 123.731 64.9429 122.41 66.888C121.092 68.8372 120.066 70.7055 119.387 72.0885C119.047 72.7801 118.78 73.3462 118.606 73.7385C118.429 74.1307 118.324 74.3451 118.307 74.341C118.295 74.337 118.372 74.1105 118.53 73.7061C118.683 73.3017 118.926 72.7234 119.253 72.0238C119.9 70.6206 120.91 68.724 122.236 66.7667C123.566 64.8135 124.952 63.1756 126.019 62.0555C126.553 61.4934 126.997 61.0526 127.317 60.7614C127.636 60.4662 127.814 60.3125 127.826 60.3206L127.822 60.3287Z" fill="#421503"/>
<path d="M212.048 161.531C212.048 161.531 211.968 161.518 211.814 161.478C211.648 161.434 211.426 161.373 211.139 161.296C210.549 161.13 209.684 160.871 208.597 160.499C206.422 159.755 203.35 158.534 199.883 156.585L199.988 156.443C201.944 158.36 203.937 160.73 205.695 163.52L205.893 163.832L205.561 163.666C203.642 162.695 201.714 161.462 199.895 159.986C198.177 158.595 196.645 157.058 195.336 155.469L195.509 155.364C196.641 158.049 197.7 160.568 198.658 162.849L198.783 163.144L198.521 162.958C194.964 160.419 192.656 157.527 191.282 155.408C189.908 153.273 189.374 151.914 189.374 151.914C189.374 151.914 189.39 151.934 189.41 151.971C189.435 152.019 189.467 152.076 189.503 152.145C189.588 152.31 189.709 152.537 189.859 152.832C190.178 153.431 190.667 154.296 191.367 155.351C192.761 157.446 195.077 160.305 198.622 162.813L198.484 162.922C197.518 160.645 196.451 158.13 195.311 155.444L195.037 154.797L195.485 155.339C196.791 156.916 198.31 158.441 200.016 159.824C201.823 161.292 203.739 162.513 205.642 163.484L205.509 163.629C203.763 160.851 201.786 158.486 199.85 156.569L199.377 156.1L199.955 156.431C203.399 158.388 206.459 159.634 208.617 160.406C209.696 160.795 210.557 161.066 211.143 161.248C211.426 161.336 211.648 161.405 211.81 161.454C211.959 161.502 212.036 161.535 212.036 161.535L212.048 161.531Z" fill="#421503"/>
<path d="M181.093 103.102C180.765 105.924 179.864 109.835 179.743 112.653C180.268 111.853 180.798 111.052 181.323 110.247C181.796 117.599 182.94 126.686 183.987 133.977" fill="#FF5100"/>
<path d="M183.986 133.977C183.986 133.977 183.974 133.945 183.962 133.884C183.95 133.811 183.934 133.722 183.914 133.613C183.873 133.354 183.817 133.007 183.744 132.566C183.602 131.656 183.408 130.337 183.182 128.704C182.733 125.44 182.151 120.923 181.674 115.917C181.489 113.935 181.335 112.03 181.222 110.255L181.404 110.304C180.85 111.145 180.32 111.946 179.815 112.706L179.625 112.989L179.641 112.649C179.718 111.201 179.928 109.891 180.118 108.731C180.32 107.578 180.498 106.567 180.644 105.73C180.789 104.897 180.902 104.242 180.971 103.793C181.003 103.583 181.032 103.413 181.052 103.279C181.072 103.162 181.084 103.105 181.088 103.105C181.092 103.105 181.088 103.166 181.08 103.283C181.068 103.401 181.056 103.575 181.028 103.801C180.975 104.254 180.882 104.913 180.753 105.75C180.62 106.591 180.454 107.602 180.272 108.759C180.098 109.92 179.896 111.23 179.831 112.661L179.662 112.605C180.159 111.844 180.684 111.04 181.238 110.195L181.4 109.944L181.42 110.243C181.537 112.014 181.695 113.923 181.881 115.901C182.357 120.903 182.915 125.42 183.328 128.688C183.534 130.309 183.703 131.623 183.821 132.558C183.873 133.002 183.918 133.35 183.95 133.609C183.962 133.718 183.97 133.811 183.978 133.884C183.982 133.945 183.986 133.977 183.978 133.977H183.986Z" fill="#421503"/>
<g opacity="0.3">
<path d="M189.56 152.149C188.404 149.189 187.931 146.374 186.775 143.414C187.163 149.055 189.73 154.292 192.401 159.27C193.286 160.916 194.196 162.57 195.433 163.974C196.669 165.373 198.278 166.517 200.113 166.873C200.448 166.938 200.82 166.97 201.103 166.78C201.689 166.396 201.455 165.49 201.115 164.879C200.776 164.269 200.121 161.749 200.121 161.749C203.112 163.844 207.38 166.347 211.01 166.727C210.052 165.187 209.094 163.642 208.136 162.101C210.23 163.213 212.8 163.387 215.023 162.57C210.436 160.795 204.983 158.769 200.396 156.99C202.288 158.817 204.236 161.325 205.602 163.577C202.093 161.952 197.696 159.008 195.408 155.408C196.754 158.417 198.181 161.668 198.468 162.898C194.277 159.679 191.233 156.63 189.374 151.68" fill="black"/>
</g>
<path d="M177.459 83.3154C177.459 85.5881 177.705 87.8487 178.202 90.0728C180.571 100.717 184.69 132.943 185.021 133.351C185.421 133.837 211.224 134.698 211.224 134.698L207.004 129.283L210.711 130.5C210.711 130.5 210.027 129.453 207.004 126.76C202.958 123.161 197.247 79.1744 197.247 79.1744C197.983 73.1691 198.719 67.1476 198.662 61.1019C198.605 55.0562 197.728 48.9538 195.348 43.3611C194.584 41.5655 193.65 39.8105 192.288 38.3789C190.926 36.9514 189.269 37.012 187.353 36.4014C183.918 35.3095 181.727 36.8786 179.961 38.8682C178.76 40.2229 178.659 41.8082 177.956 43.4662C177.956 43.4662 176.921 44.1375 176.287 45.8238C175.244 48.5939 174.419 51.4813 174.302 54.4253C174.185 57.3693 174.876 60.4306 176.743 62.768C176.157 62.4445 175.571 62.121 174.985 61.7975C176.052 62.9702 177.119 64.143 178.19 65.3157L177.374 66.8565C176.881 67.7583 176.679 68.8016 176.804 69.8126C177.245 69.3435 177.689 68.8784 178.13 68.4093C177.305 70.0957 177.224 71.7092 176.95 74.2569C176.828 75.3973 176.76 76.5458 176.743 77.6943L176.691 81.6816L177.463 81.0346V83.3073L177.459 83.3154Z" fill="#FF5100"/>
<g opacity="0.5">
<path d="M187.422 86.7949C190.114 86.7383 192.999 87.9191 194.584 90.0341C195.449 91.1907 195.74 92.6465 196.011 94.0538C197.304 100.832 198.597 107.609 199.895 114.387C201.188 121.165 202.486 127.95 203.342 134.793C203.771 138.202 204.054 141.817 202.55 144.923C201.972 146.116 201.051 147.252 199.749 147.62C198.306 148.029 196.722 147.365 195.675 146.318C194.628 145.271 194.014 143.896 193.448 142.545C190.595 135.719 188.42 128.642 186.593 121.492C183.695 110.137 183.922 104.273 182.786 92.6263C182.786 92.6263 182.636 86.9001 187.426 86.7949H187.422Z" fill="white"/>
</g>
<path d="M185.126 39.1377C184.362 38.4422 183.081 38.5109 182.228 39.0973C181.371 39.6837 180.886 40.6623 180.644 41.6531C180.446 42.4538 180.385 43.303 180.599 44.0997C180.813 44.8963 181.331 45.6364 182.083 46.0205C182.834 46.4047 183.82 46.3724 184.475 45.8507C185.073 45.3735 185.316 44.6011 185.482 43.8651C185.801 42.4214 186.242 40.1083 185.126 39.1377Z" fill="#421503"/>
<path d="M178.401 46.2777C178.271 46.2777 176.659 46.5608 176.077 48.6596C175.494 50.7584 175.248 53.383 176.905 53.5811C178.566 53.7833 180.062 53.7024 180.268 51.5228C180.474 49.3431 179.726 46.2373 178.401 46.2777Z" fill="#421503"/>
<path d="M190.239 39.8972C190.142 39.8972 188.598 39.5858 187.887 40.9689C187.175 42.3519 186.169 44.754 186.957 46.2826C187.745 47.8112 189.58 49.5744 191.027 47.4513C192.474 45.3323 192.692 43.1162 192.401 42.0203C192.106 40.9244 190.243 39.9012 190.243 39.9012L190.239 39.8972Z" fill="#421503"/>
<path d="M194.345 49.4687C194.135 49.5051 190.271 51.4866 189.588 53.3832C188.905 55.2798 189.402 55.6033 190.938 56.5699C192.474 57.5404 194.301 57.0551 195.34 55.6033C196.378 54.1516 196.96 49.0238 194.341 49.4687H194.345Z" fill="#421503"/>
<g opacity="0.5">
<path d="M187.951 61.2513C187.664 60.7215 187.082 60.5072 186.549 60.3333C185.417 59.9653 184.285 59.5933 183.154 59.2253C182.475 59.0028 181.662 58.8128 181.133 59.3344L180.308 59.5569C180.393 60.8186 180.482 62.0884 180.814 63.2975C181.145 64.5067 181.751 65.6592 182.685 66.379C183.619 67.0948 184.912 67.301 185.902 66.6864C186.949 66.0312 187.442 64.6765 187.854 63.4188C188.085 62.7152 188.307 61.8943 187.955 61.2513H187.951Z" fill="white"/>
</g>
<path d="M183.792 53.0479C183.125 53.8769 182.026 54.2247 181.004 54.5644C179.981 54.9041 178.89 55.3287 178.332 56.2305C177.843 57.0231 177.879 58.0341 178.174 58.9117C178.384 59.5385 178.744 60.1491 179.326 60.4848C180.397 61.0994 181.78 60.5899 183 60.8285C184.77 61.1763 185.902 63.0244 187.66 63.4288C189.176 63.7765 190.793 62.8869 191.589 61.5888C192.001 60.9175 192.236 60.1006 192.013 59.3524C191.726 58.39 190.785 57.7672 189.887 57.2739C188.99 56.7805 188.012 56.2709 187.547 55.3772C187.293 54.8839 187.22 54.3218 187.062 53.792C186.905 53.2622 186.63 52.7163 186.12 52.4656C185.373 52.0976 184.451 52.5222 183.861 53.1045" fill="#421503"/>
<g opacity="0.3">
<path d="M188.731 81.489C188.02 80.656 187.276 79.8431 186.512 79.0586L182.984 80.9916C183.493 81.9177 184.152 82.7912 185.045 83.3816C185.938 83.972 187.098 84.247 188.129 83.9235C188.743 83.7334 189.338 83.2401 189.321 82.6173C189.309 82.1886 189.018 81.8166 188.735 81.485L188.731 81.489Z" fill="black"/>
</g>
<path d="M186.23 78.9634C185.494 78.6763 184.617 78.7046 183.946 79.1171C183.275 79.5296 182.863 80.3343 183.012 81.0905C183.138 81.7254 183.615 82.2471 184.16 82.6192C185.191 83.3147 186.525 83.5695 187.745 83.3066C188.38 83.1691 189.063 82.8052 189.172 82.1824C189.245 81.7578 188.934 81.0744 188.675 80.7266C188.117 79.9663 187.119 79.3193 186.23 78.9675" fill="#421503"/>
<path d="M188.226 75.9484C188.226 75.9484 188.174 75.9201 188.093 75.8513C188.012 75.7826 187.883 75.6815 187.733 75.5399C187.43 75.2609 187.005 74.8363 186.533 74.2661C185.583 73.1378 184.459 71.3747 183.8 69.199L184.006 69.1707V69.1828C183.99 69.7449 183.974 70.2949 183.962 70.8247C183.954 71.0916 183.946 71.3504 183.938 71.6052C183.938 71.7346 183.93 71.8599 183.926 71.9853C183.926 72.1107 183.909 72.2562 183.857 72.3816C183.829 72.4463 183.788 72.5151 183.724 72.5676C183.655 72.6202 183.562 72.6404 183.481 72.6242C183.307 72.5838 183.226 72.4544 183.162 72.3573C183.036 72.1592 182.915 71.9651 182.814 71.771C182.608 71.3827 182.446 71.0067 182.329 70.6548C182.091 69.9471 182.006 69.3486 181.973 68.9321C181.957 68.7259 181.953 68.5641 181.957 68.4549C181.957 68.3457 181.965 68.2891 181.973 68.2891C182.022 68.281 181.973 69.2192 182.475 70.6023C182.6 70.946 182.766 71.31 182.972 71.686C183.073 71.8761 183.194 72.0621 183.319 72.2522C183.437 72.4544 183.606 72.511 183.687 72.3007C183.764 72.1147 183.732 71.8478 183.748 71.593C183.752 71.3383 183.76 71.0754 183.764 70.8125C183.776 70.2828 183.792 69.7328 183.804 69.1707V69.1586L183.821 68.5075L184.01 69.1303C184.661 71.2736 185.744 73.0246 186.658 74.165C187.111 74.7392 187.515 75.18 187.802 75.4752C188.089 75.7704 188.25 75.9322 188.238 75.9443L188.226 75.9484Z" fill="#421503"/>
<path d="M188.566 51.0238C188.566 51.0238 188.38 50.8175 188.077 50.4212C187.757 49.9885 187.337 49.4223 186.836 48.743L186.985 48.6985C186.973 49.2889 186.957 49.9481 186.941 50.6558V50.8984L186.771 50.7164C186.367 50.2675 186.011 49.6893 185.801 49.0301L185.995 49.0422C185.866 49.3374 185.724 49.6448 185.587 49.9602C185.462 50.2392 185.336 50.5183 185.215 50.7892L185.146 50.9429L185.041 50.8135C184.56 50.2271 184.471 49.4223 184.73 48.7996L184.88 48.9128C184.12 49.5032 183.372 49.94 182.721 50.2554L182.531 50.3484L182.616 50.1584C182.915 49.5073 183.291 49.0584 183.57 48.7794C183.711 48.6378 183.829 48.5408 183.909 48.4761C183.99 48.4114 184.039 48.3831 184.043 48.3871C184.055 48.3992 183.889 48.5448 183.631 48.836C183.376 49.1271 183.028 49.5841 182.754 50.219L182.653 50.122C183.283 49.7944 184.015 49.3496 184.758 48.7591L185.049 48.5286L184.908 48.8724C184.681 49.4264 184.766 50.1583 185.199 50.676L185.025 50.7002C185.146 50.4293 185.272 50.1503 185.393 49.8712C185.534 49.5558 185.672 49.2485 185.805 48.9532L185.918 48.7025L185.999 48.9654C186.197 49.5962 186.529 50.1503 186.913 50.583L186.743 50.6436C186.771 49.9359 186.795 49.2808 186.82 48.6904L186.828 48.4437L186.965 48.6459C187.442 49.3415 187.842 49.9238 188.149 50.3646C188.428 50.7771 188.574 51.0116 188.562 51.0238H188.566Z" fill="#421503"/>
<path d="M185.021 36.8263C184.803 36.6241 184.439 36.6443 184.188 36.8061C183.938 36.9678 183.824 37.1013 183.727 37.445C183.687 37.5663 183.732 37.72 183.833 37.813C183.966 37.9384 184.164 37.9707 184.346 37.9586C184.629 37.9424 184.916 37.8171 185.073 37.5865C185.231 37.356 185.223 37.0163 185.017 36.8263H185.021Z" fill="#E0E0E0"/>
<path d="M191.467 38.9128C191.346 38.5974 191.112 38.3264 190.821 38.1485C190.752 38.104 190.667 38.0676 190.586 38.0959C190.522 38.1161 190.376 38.1687 190.344 38.2253C190.227 38.4114 190.211 38.5165 190.251 38.7874C190.388 39.1635 190.813 39.4143 191.221 39.3698C191.318 39.3576 191.419 39.3293 191.472 39.2485C191.54 39.1514 191.512 39.022 191.472 38.9168L191.467 38.9128Z" fill="#E0E0E0"/>
<g opacity="0.3">
<path d="M181.594 113.288C180.822 119.989 181.525 126.471 183.994 132.772C183.526 126.063 182.362 119.766 181.812 112.867" fill="black"/>
</g>
<g opacity="0.3">
<path d="M187.692 75.5985C186.161 73.718 184.746 71.6556 183.897 69.4031C184.018 70.2038 183.877 71.1582 183.764 71.9629C183.74 72.1368 183.76 72.4967 183.582 72.5291C183.412 72.5614 183.19 72.2581 183.101 72.1166C182.466 71.1582 182.066 70.0542 181.933 68.9219L181.848 69.2939C181.654 70.6446 182.091 72.0681 183.016 73.0952C183.214 73.3177 183.477 73.536 183.78 73.5118C184.075 73.4875 184.305 73.2327 184.382 72.9577C184.463 72.6828 184.423 72.3875 184.382 72.1045C184.859 73.6776 186.12 75.008 187.692 75.5985Z" fill="black"/>
</g>
<path d="M193.921 110.639C193.921 110.639 193.856 110.599 193.743 110.502C193.634 110.405 193.464 110.271 193.262 110.077C192.854 109.697 192.284 109.119 191.646 108.338C190.368 106.794 188.857 104.351 188.056 101.29L188.263 101.253C188.291 101.597 188.319 101.961 188.347 102.333C188.465 104.024 188.477 105.641 188.42 107.109L188.408 107.396L188.242 107.162C186.965 105.35 186.282 103.567 185.935 102.293C185.761 101.654 185.66 101.136 185.607 100.784C185.579 100.606 185.563 100.469 185.555 100.376C185.547 100.283 185.542 100.234 185.547 100.234C185.559 100.234 185.595 100.42 185.668 100.772C185.741 101.12 185.858 101.63 186.048 102.26C186.424 103.518 187.127 105.269 188.4 107.052L188.222 107.105C188.267 105.645 188.246 104.036 188.133 102.353C188.105 101.985 188.077 101.621 188.048 101.278L188.254 101.241C189.043 104.266 190.514 106.697 191.751 108.254C192.369 109.038 192.919 109.628 193.311 110.025C193.501 110.227 193.662 110.373 193.763 110.478C193.864 110.583 193.917 110.639 193.913 110.644L193.921 110.639Z" fill="#421503"/>
<path d="M210.945 143.121C210.945 143.121 210.989 143.307 211.03 143.647C211.074 143.986 211.115 144.48 211.143 145.095C211.2 146.32 211.163 148.022 210.896 149.879C210.626 151.735 210.177 153.377 209.773 154.533C209.571 155.111 209.393 155.576 209.255 155.888C209.118 156.203 209.037 156.373 209.025 156.369C209.013 156.365 209.07 156.183 209.179 155.86C209.296 155.536 209.449 155.071 209.631 154.489C209.995 153.324 210.419 151.69 210.69 149.846C210.957 148.006 211.014 146.316 210.997 145.099C210.989 144.488 210.973 143.995 210.953 143.655C210.937 143.315 210.933 143.125 210.949 143.121H210.945Z" fill="#421503"/>
</g>
<defs>
<clipPath id="clip0_1678_31434">
<rect width="178" height="170" fill="white" transform="translate(46)"/>
</clipPath>
</defs>
</svg>
