<svg width="270" height="170" viewBox="0 0 270 170" fill="none" xmlns="http://www.w3.org/2000/svg">
<g clip-path="url(#clip0_1678_32943)">
<path d="M221.115 82.7332C219.205 98.8968 211.827 117.69 197.086 126.325C174.813 139.372 176.681 159.441 133.209 168.164C126.43 169.525 120 170.098 113.933 169.986C110.673 169.924 107.518 169.661 104.474 169.216C76.8454 165.179 58.2534 145.976 51.4322 122.794C42.4572 92.3037 60.3802 72.3467 72.2593 60.3207C84.1383 48.2908 92.8388 10.8207 135.506 1.90751C142.014 0.55023 148.665 -0.141943 155.316 0.0243336C170.498 0.395555 187.056 5.37997 198.513 15.7858C199.372 16.5669 200.211 17.3789 201.027 18.2142C216.95 34.5595 223.718 60.6958 221.115 82.7332Z" fill="#FF5100"/>
<path opacity="0.7" d="M221.115 82.7332C219.205 98.8968 211.827 117.69 197.086 126.325C174.813 139.372 176.681 159.441 133.209 168.164C126.43 169.525 120 170.098 113.933 169.986C110.673 169.924 107.518 169.661 104.474 169.216C76.8454 165.179 58.2534 145.976 51.4322 122.794C42.4572 92.3037 60.3802 72.3467 72.2593 60.3207C84.1383 48.2908 92.8388 10.8207 135.506 1.90751C142.014 0.55023 148.665 -0.141943 155.316 0.0243336C170.498 0.395555 187.056 5.37997 198.513 15.7858C199.372 16.5669 200.211 17.3789 201.027 18.2142C216.95 34.5595 223.718 60.6958 221.115 82.7332Z" fill="white"/>
<path d="M214.209 129.938H187.427V133.688H214.209V129.938Z" fill="#263238" stroke="#263238" stroke-miterlimit="10"/>
<path d="M184.921 128.191H181.379V132.812H184.921V128.191Z" fill="#FF5100"/>
<path d="M201.092 128.191H197.55V132.812H201.092V128.191Z" fill="#FF5100"/>
<path d="M216.865 134.812H178.916V155.45H216.865V134.812Z" fill="white" stroke="#263238" stroke-miterlimit="10"/>
<path d="M216.869 134.812H202.937V155.45H216.869V134.812Z" fill="white" stroke="#263238" stroke-miterlimit="10"/>
<path d="M217.716 132.094H178.061V135.845H217.716V132.094Z" fill="#263238" stroke="#263238" stroke-miterlimit="10"/>
<path d="M217.716 155.449H178.061V157.325H217.716V155.449Z" fill="#263238" stroke="#263238" stroke-miterlimit="10"/>
<path d="M184.461 139.434H180.764V140.512H184.461V139.434Z" fill="#263238" stroke="#263238" stroke-miterlimit="10"/>
<path d="M201.247 139.434H197.55V140.512H201.247V139.434Z" fill="#263238" stroke="#263238" stroke-miterlimit="10"/>
<path d="M199.936 141.822V138.125H198.857V141.822H199.936Z" fill="#263238" stroke="#263238" stroke-miterlimit="10"/>
<path d="M167.396 136.805H114.946C114.188 136.805 113.573 137.419 113.573 138.177V155.524C113.573 156.282 114.188 156.897 114.946 156.897H167.396C168.154 156.897 168.769 156.282 168.769 155.524V138.177C168.769 137.419 168.154 136.805 167.396 136.805Z" fill="#878787" stroke="#263238" stroke-miterlimit="10"/>
<path d="M160.494 136.809L140.405 156.897H113.519C112.757 156.897 112.142 156.282 112.142 155.524V138.181C112.142 137.423 112.757 136.809 113.519 136.809H160.494Z" fill="#263238" stroke="#263238" stroke-miterlimit="10"/>
<path d="M167.342 142.035V155.523C167.342 156.281 166.727 156.896 165.969 156.896H152.486L167.342 142.035Z" fill="#263238" stroke="#263238" stroke-miterlimit="10"/>
<path d="M165.536 138.98V154.893H137.529L136.767 153.64H119.706L118.944 154.893H113.952V138.98H118.797L119.706 140.481H136.767L137.676 138.98H165.536Z" fill="#878787" stroke="#263238" stroke-miterlimit="10"/>
<path d="M135.993 144.074H120.816V149.936H135.993V144.074Z" fill="#878787" stroke="#263238" stroke-miterlimit="10"/>
<path d="M136.767 153.641L137.528 154.894H118.944L119.706 153.641H136.767Z" fill="#263238" stroke="#263238" stroke-miterlimit="10"/>
<path d="M119.706 140.481L118.797 138.98H137.676L136.767 140.481H119.706Z" fill="#263238" stroke="#263238" stroke-miterlimit="10"/>
<path d="M128.236 152.313C131.203 152.313 133.607 149.908 133.607 146.941C133.607 143.975 131.203 141.57 128.236 141.57C125.27 141.57 122.865 143.975 122.865 146.941C122.865 149.908 125.27 152.313 128.236 152.313Z" fill="#FF5100"/>
<path d="M129.226 151.129C131.542 150.584 132.979 148.266 132.435 145.95C131.89 143.634 129.572 142.197 127.256 142.741C124.94 143.286 123.503 145.604 124.047 147.92C124.591 150.236 126.91 151.673 129.226 151.129Z" fill="#263238" stroke="#263238" stroke-miterlimit="10"/>
<path d="M136.767 153.64H119.706L118.944 154.893H137.529L136.767 153.64ZM118.797 138.98L119.706 140.481H136.767L137.676 138.98H118.797Z" fill="#263238" stroke="#263238" stroke-miterlimit="10"/>
<path d="M163.754 143.113H136.89V150.739H163.754V143.113Z" fill="#878787" stroke="#263238" stroke-miterlimit="10"/>
<path d="M138.708 143.293V144.929" stroke="#263238" stroke-miterlimit="10"/>
<path d="M141.701 143.293V144.929" stroke="#263238" stroke-miterlimit="10"/>
<path d="M144.698 143.293V144.929" stroke="#263238" stroke-miterlimit="10"/>
<path d="M147.69 143.293V144.929" stroke="#263238" stroke-miterlimit="10"/>
<path d="M150.688 143.293V144.929" stroke="#263238" stroke-miterlimit="10"/>
<path d="M153.68 143.293V144.929" stroke="#263238" stroke-miterlimit="10"/>
<path d="M156.677 143.293V144.929" stroke="#263238" stroke-miterlimit="10"/>
<path d="M159.67 143.293V144.929" stroke="#263238" stroke-miterlimit="10"/>
<path d="M162.667 143.293V144.929" stroke="#263238" stroke-miterlimit="10"/>
<path d="M138.708 149.012V150.644" stroke="#263238" stroke-miterlimit="10"/>
<path d="M141.701 149.012V150.644" stroke="#263238" stroke-miterlimit="10"/>
<path d="M144.698 149.012V150.644" stroke="#263238" stroke-miterlimit="10"/>
<path d="M147.69 149.012V150.644" stroke="#263238" stroke-miterlimit="10"/>
<path d="M150.688 149.012V150.644" stroke="#263238" stroke-miterlimit="10"/>
<path d="M153.68 149.012V150.644" stroke="#263238" stroke-miterlimit="10"/>
<path d="M156.677 149.012V150.644" stroke="#263238" stroke-miterlimit="10"/>
<path d="M159.67 149.012V150.644" stroke="#263238" stroke-miterlimit="10"/>
<path d="M162.667 149.012V150.644" stroke="#263238" stroke-miterlimit="10"/>
<path d="M115.193 141.984V144.629L119.988 144.939V143.044L115.193 141.984Z" fill="#FF5100"/>
<path d="M115.193 151.502V148.861L119.988 148.227V150.446L115.193 151.502Z" fill="#FF5100"/>
<path d="M120.085 147.475L115.046 148.279V145.355L120.085 145.773V147.475Z" fill="#FF5100"/>
<path d="M162.899 141.333C163.296 141.333 163.618 141.011 163.618 140.614C163.618 140.217 163.296 139.895 162.899 139.895C162.502 139.895 162.18 140.217 162.18 140.614C162.18 141.011 162.502 141.333 162.899 141.333Z" fill="#FF5100"/>
<path d="M166.136 136.805H113.403C112.645 136.805 112.03 137.419 112.03 138.177V155.524C112.03 156.282 112.645 156.897 113.403 156.897H166.136C166.894 156.897 167.509 156.282 167.509 155.524V138.177C167.509 137.419 166.894 136.805 166.136 136.805Z" stroke="#263238" stroke-miterlimit="10"/>
<path d="M65.0397 160.037C73.3643 160.037 80.1128 153.288 80.1128 144.964C80.1128 136.639 73.3643 129.891 65.0397 129.891C56.715 129.891 49.9666 136.639 49.9666 144.964C49.9666 153.288 56.715 160.037 65.0397 160.037Z" fill="#FF5100"/>
<path d="M64.3785 160.037C72.7032 160.037 79.4517 153.288 79.4517 144.964C79.4517 136.639 72.7032 129.891 64.3785 129.891C56.0539 129.891 49.3054 136.639 49.3054 144.964C49.3054 153.288 56.0539 160.037 64.3785 160.037Z" fill="#FF5100"/>
<path d="M67.6869 156.524C74.0714 154.694 77.7629 148.034 75.9322 141.649C74.1015 135.265 67.4417 131.573 61.0572 133.404C54.6727 135.235 50.9812 141.894 52.8119 148.279C54.6426 154.663 61.3024 158.355 67.6869 156.524Z" fill="#263238" stroke="#263238" stroke-miterlimit="10"/>
<path d="M64.3787 147.675C65.8757 147.675 67.0893 146.462 67.0893 144.965C67.0893 143.468 65.8757 142.254 64.3787 142.254C62.8816 142.254 61.668 143.468 61.668 144.965C61.668 146.462 62.8816 147.675 64.3787 147.675Z" fill="#FF5100"/>
<path d="M66.1263 144.963C66.1263 144 65.3452 143.215 64.3784 143.215C63.4117 143.215 62.6306 143.996 62.6306 144.963C62.6306 145.929 63.4117 146.711 64.3784 146.711C65.3452 146.711 66.1263 145.929 66.1263 144.963Z" fill="white" stroke="#263238" stroke-miterlimit="10"/>
<path d="M64.3787 143.215V146.707" stroke="#263238" stroke-miterlimit="10"/>
<path d="M62.6345 144.965H66.1263" stroke="#263238" stroke-miterlimit="10"/>
<path d="M86.0099 160.037C94.3346 160.037 101.083 153.288 101.083 144.964C101.083 136.639 94.3346 129.891 86.0099 129.891C77.6852 129.891 70.9368 136.639 70.9368 144.964C70.9368 153.288 77.6852 160.037 86.0099 160.037Z" fill="#FF5100"/>
<path d="M85.3485 160.037C93.6732 160.037 100.422 153.288 100.422 144.964C100.422 136.639 93.6732 129.891 85.3485 129.891C77.0239 129.891 70.2754 136.639 70.2754 144.964C70.2754 153.288 77.0239 160.037 85.3485 160.037Z" fill="#FF5100"/>
<path d="M93.8543 153.469C98.5508 148.772 98.5508 141.158 93.8543 136.461C89.1579 131.765 81.5434 131.765 76.8469 136.461C72.1505 141.158 72.1505 148.772 76.8469 153.469C81.5434 158.165 89.1578 158.165 93.8543 153.469Z" fill="#263238" stroke="#263238" stroke-miterlimit="10"/>
<path d="M85.3486 147.675C86.8457 147.675 88.0593 146.462 88.0593 144.965C88.0593 143.468 86.8457 142.254 85.3486 142.254C83.8516 142.254 82.6379 143.468 82.6379 144.965C82.6379 146.462 83.8516 147.675 85.3486 147.675Z" fill="#FF5100"/>
<path d="M87.0965 144.967C87.0965 144.004 86.3154 143.219 85.3487 143.219C84.3819 143.219 83.6008 144 83.6008 144.967C83.6008 145.933 84.3819 146.714 85.3487 146.714C86.3154 146.714 87.0965 145.933 87.0965 144.967Z" fill="white" stroke="#263238" stroke-miterlimit="10"/>
<path d="M85.3486 143.219V146.711" stroke="#263238" stroke-miterlimit="10"/>
<path d="M83.6045 144.965H87.0963" stroke="#263238" stroke-miterlimit="10"/>
<path d="M205.481 113.45C205.632 108.786 175.701 104.035 138.629 102.837C101.557 101.64 71.3817 104.45 71.231 109.114C71.0804 113.778 101.011 118.529 138.083 119.727C175.156 120.924 205.331 118.114 205.481 113.45Z" fill="#263238" stroke="#263238" stroke-miterlimit="10"/>
<path d="M72.9284 96.7838C72.9284 96.7838 73.7444 98.551 74.3283 99.1542C74.9122 99.7575 85.4417 102.364 85.4417 102.364L119.563 109.831L123.697 109.39L138.147 109.854C138.147 109.854 141.032 102.801 137.881 95.8519C134.729 88.9031 118.987 86.1885 114.536 87.5999C110.085 89.0114 99.6602 93.5704 92.1701 91.0724C84.6799 88.5744 78.7056 83.6905 76.2114 84.3402C73.7134 84.9898 72.5186 89.0075 72.5186 90.7476C72.5186 92.4877 72.9246 96.7838 72.9246 96.7838H72.9284Z" fill="#263238" stroke="#263238" stroke-miterlimit="10"/>
<path d="M146.283 106.446C145.986 99.2726 141.187 93.4491 135.568 93.4336H129.474L129.582 96.0012C127.2 98.3639 125.754 102.138 125.932 106.392C126.11 110.649 127.869 114.427 130.448 116.805L130.557 119.404H136.651C142.273 119.419 146.589 113.615 146.291 106.442L146.283 106.446Z" fill="#263238" stroke="#263238" stroke-miterlimit="10"/>
<path d="M131.453 119.354C137.025 118.737 140.9 112.445 140.109 105.3C139.318 98.1549 134.159 92.8632 128.587 93.4803C123.015 94.0974 119.14 100.39 119.931 107.534C120.722 114.679 125.881 119.971 131.453 119.354Z" fill="#878787" stroke="#263238" stroke-miterlimit="10"/>
<path d="M137.888 110.838C137.989 110.517 138.074 110.188 138.151 109.852C138.225 109.515 138.287 109.171 138.333 108.819C138.437 108.054 138.476 107.261 138.445 106.441C138.372 104.701 137.977 103.054 137.343 101.6C137.335 101.588 137.331 101.573 137.324 101.561C137.181 101.24 137.026 100.927 136.864 100.621C136.852 100.602 136.844 100.583 136.833 100.563C136.666 100.266 136.492 99.9756 136.303 99.6972C136.291 99.6817 136.284 99.6663 136.272 99.6508C134.625 97.2224 132.208 95.6679 129.567 95.6602C127.308 95.6563 125.302 96.7854 123.867 98.6299C123.77 98.7537 123.677 98.8774 123.589 99.005C123.5 99.1326 123.411 99.2641 123.326 99.3956C123.241 99.527 123.163 99.6624 123.082 99.7977C123.082 99.7977 123.078 99.8055 123.074 99.8093C122.997 99.9447 122.923 100.08 122.854 100.219C122.854 100.227 122.846 100.231 122.842 100.239C122.773 100.374 122.707 100.513 122.645 100.652C122.641 100.664 122.633 100.676 122.63 100.687C122.568 100.822 122.51 100.962 122.452 101.101C122.444 101.116 122.44 101.132 122.432 101.151C122.378 101.286 122.328 101.426 122.278 101.565C122.27 101.584 122.262 101.607 122.254 101.627C122.208 101.762 122.166 101.897 122.123 102.033C122.115 102.06 122.104 102.087 122.096 102.114C122.057 102.245 122.019 102.381 121.984 102.512C121.976 102.547 121.964 102.582 121.957 102.613C121.926 102.74 121.895 102.872 121.868 103.003C121.86 103.046 121.848 103.085 121.841 103.127C121.814 103.251 121.79 103.378 121.767 103.506C121.76 103.552 121.748 103.599 121.74 103.649C121.721 103.773 121.702 103.897 121.686 104.02C121.678 104.075 121.671 104.125 121.663 104.179C121.647 104.299 121.636 104.423 121.624 104.546C121.62 104.604 121.613 104.662 121.609 104.72C121.597 104.84 121.593 104.964 121.585 105.084C121.585 105.146 121.578 105.204 121.574 105.266C121.57 105.393 121.566 105.525 121.566 105.656C121.566 105.71 121.566 105.768 121.566 105.822C121.566 106.008 121.57 106.197 121.578 106.383C121.585 106.611 121.605 106.839 121.624 107.064C121.628 107.118 121.636 107.172 121.64 107.226C121.659 107.419 121.682 107.613 121.709 107.802C121.713 107.833 121.717 107.86 121.721 107.891C121.79 108.363 121.887 108.827 122.003 109.275C122.583 111.514 123.708 113.463 125.158 114.863C125.178 114.879 125.193 114.898 125.213 114.913C125.391 115.084 125.572 115.242 125.762 115.393C125.773 115.405 125.789 115.412 125.8 115.424C127.165 116.518 128.762 117.156 130.448 117.16C132.146 117.164 133.7 116.526 134.98 115.424C136.28 114.306 137.289 112.709 137.877 110.822L137.888 110.838Z" fill="white" stroke="#263238" stroke-miterlimit="10"/>
<path d="M137.478 106.769C137.428 105.516 137.177 104.325 136.771 103.242L133.422 105.342C133.565 105.787 133.658 106.262 133.681 106.765C133.681 106.838 133.681 106.908 133.681 106.978L137.486 107.596C137.494 107.326 137.494 107.051 137.486 106.773L137.478 106.769Z" fill="#263238" stroke="#263238" stroke-miterlimit="10"/>
<path d="M131.543 102.92C131.891 103.109 132.212 103.372 132.49 103.689L134.849 100.062C134.029 99.165 133.062 98.4883 132.007 98.1016L131.539 102.92H131.543Z" fill="#263238" stroke="#263238" stroke-miterlimit="10"/>
<path d="M133.202 109.125C133.031 109.469 132.819 109.771 132.575 110.03L134.513 114.365C135.441 113.587 136.198 112.524 136.717 111.271L133.202 109.129V109.125Z" fill="#263238" stroke="#263238" stroke-miterlimit="10"/>
<path d="M127.502 104.507L124.087 102.133C123.585 103.301 123.295 104.639 123.271 106.069L127.088 106.178C127.131 105.57 127.274 105.002 127.502 104.507Z" fill="#263238" stroke="#263238" stroke-miterlimit="10"/>
<path d="M128.662 103.06C128.94 102.863 129.246 102.724 129.575 102.642L129.018 97.8281C127.811 98.0408 126.717 98.6479 125.816 99.5412L128.666 103.064L128.662 103.06Z" fill="#263238" stroke="#263238" stroke-miterlimit="10"/>
<path d="M130.913 110.92C130.793 110.936 130.673 110.947 130.549 110.947C130.201 110.947 129.861 110.878 129.544 110.75L127.672 114.899C128.616 115.456 129.66 115.769 130.75 115.773C131.048 115.773 131.338 115.75 131.624 115.703L130.913 110.92Z" fill="#263238" stroke="#263238" stroke-miterlimit="10"/>
<path d="M127.475 108.547L123.701 109.39C124.091 110.77 124.729 112.008 125.541 113.021L127.966 109.444C127.776 109.173 127.61 108.868 127.475 108.543V108.547Z" fill="#263238" stroke="#263238" stroke-miterlimit="10"/>
<path d="M89.1384 99.1976C88.9992 93.1884 86.7487 88.3046 84.1115 88.293H78.0327L78.5393 110.056H84.618C87.2552 110.067 89.2815 105.207 89.1423 99.1976H89.1384Z" fill="#263238" stroke="#263238" stroke-miterlimit="10"/>
<path d="M83.0597 99.1976C83.1989 105.207 81.1726 110.071 78.5354 110.056C75.8982 110.044 73.6477 105.16 73.5085 99.1512C73.3693 93.1421 75.3955 88.2775 78.0327 88.293C80.67 88.3046 82.9205 93.1885 83.0597 99.1976Z" fill="#878787" stroke="#263238" stroke-miterlimit="10"/>
<path d="M81.977 102.878C82.0234 102.608 82.066 102.333 82.1008 102.051C82.1356 101.769 82.1626 101.479 82.1858 101.185C82.2361 100.543 82.2555 99.8777 82.2361 99.1933C82.2013 97.7354 82.0157 96.355 81.718 95.1369C81.718 95.1253 81.7141 95.1137 81.7102 95.1021C81.6445 94.8314 81.571 94.5685 81.4937 94.3171C81.4898 94.3016 81.4859 94.2862 81.4782 94.2707C81.4009 94.0194 81.3197 93.7757 81.2307 93.5437C81.2269 93.5321 81.223 93.5167 81.2153 93.5051C80.4419 91.4711 79.3089 90.1679 78.0676 90.1641C77.0081 90.1602 76.0684 91.1076 75.3917 92.6544C75.3453 92.7549 75.3028 92.8632 75.2603 92.9676C75.2177 93.0758 75.179 93.1841 75.1365 93.2963C75.0978 93.4084 75.0592 93.5205 75.0244 93.6327V93.6404C74.9896 93.7525 74.9548 93.8686 74.92 93.9846C74.92 93.9884 74.92 93.9962 74.9161 94C74.8852 94.1122 74.8542 94.2282 74.8233 94.3481C74.8233 94.3558 74.8194 94.3674 74.8156 94.3751C74.7885 94.4873 74.7576 94.6033 74.7344 94.7231C74.7344 94.7386 74.7266 94.7502 74.7266 94.7657C74.6996 94.8778 74.6763 94.9938 74.6531 95.1098C74.6531 95.1292 74.6454 95.1446 74.6415 95.164C74.6183 95.2761 74.599 95.3921 74.5797 95.5042C74.5758 95.5274 74.5719 95.5507 74.5681 95.5739C74.5487 95.686 74.5333 95.7943 74.5178 95.9103C74.5139 95.9373 74.5101 95.9683 74.5062 95.9953C74.4907 96.1036 74.4753 96.2119 74.4637 96.324C74.4598 96.3588 74.4559 96.3936 74.4521 96.4246C74.4405 96.529 74.4289 96.6372 74.4173 96.7416C74.4134 96.7803 74.4095 96.819 74.4057 96.8615C74.3979 96.9659 74.3863 97.0703 74.3786 97.1747C74.3786 97.2211 74.3709 97.2637 74.367 97.3101C74.3593 97.4106 74.3554 97.515 74.3477 97.6156C74.3477 97.6658 74.3399 97.7122 74.3399 97.7625C74.3361 97.8631 74.3322 97.9675 74.3283 98.068C74.3283 98.1183 74.3245 98.1685 74.3245 98.2227C74.3245 98.3309 74.3245 98.4392 74.3245 98.5475C74.3245 98.5939 74.3245 98.6403 74.3245 98.6867C74.3245 98.8414 74.3245 98.9999 74.3283 99.1585C74.3322 99.3479 74.3399 99.5374 74.3515 99.7269C74.3515 99.7733 74.3554 99.8158 74.3593 99.8622C74.367 100.025 74.3786 100.187 74.3941 100.346C74.3941 100.369 74.3941 100.396 74.3979 100.419C74.4327 100.813 74.4753 101.204 74.5294 101.579C74.804 103.458 75.3299 105.086 76.0104 106.262C76.0182 106.277 76.0259 106.293 76.0375 106.304C76.1226 106.448 76.2076 106.579 76.2927 106.707C76.3004 106.714 76.3043 106.722 76.312 106.734C76.9501 107.65 77.7003 108.184 78.493 108.188C79.2895 108.188 80.0204 107.654 80.6198 106.734C81.2307 105.798 81.7025 104.46 81.977 102.878Z" fill="white" stroke="#263238" stroke-miterlimit="10"/>
<path d="M204.967 102.289C204.669 95.1164 199.871 89.2928 194.252 89.2774H188.158C182.535 89.2619 178.22 95.0661 178.518 102.239C178.815 109.412 183.614 115.236 189.233 115.251H195.327C200.95 115.267 205.265 109.463 204.967 102.289Z" fill="#263238" stroke="#263238" stroke-miterlimit="10"/>
<path d="M91.0835 57.5227C91.0835 57.5227 88.3612 58.3154 88.0209 59.112C87.6806 59.9086 87.4525 60.4732 87.4525 60.4732L79.2817 72.3871C79.2817 72.3871 76.3313 72.1589 75.4226 74.6569C74.5138 77.1549 74.8541 80.5578 74.8541 80.5578C74.8541 80.5578 72.6964 85.8902 72.5843 89.8615C72.4721 93.8328 72.9246 96.7832 72.9246 96.7832C72.9246 96.7832 72.3561 89.5212 74.0576 87.2514C75.759 84.9815 79.2779 86.6829 80.639 90.7702C82.0001 94.8537 83.5894 102.456 83.5894 102.456L119.559 109.83C119.559 109.83 117.746 100.298 120.128 94.8537C122.51 89.4091 133.631 89.7494 135.673 99.6177C137.714 109.49 137.034 111.303 137.034 111.303C137.034 111.303 144.636 112.893 167.783 112.552C190.93 112.212 203.637 109.49 207.044 108.581C207.044 108.581 207.836 104.382 208.065 101.888C208.293 99.3895 207.384 97.6881 207.384 97.6881C207.384 97.6881 207.156 93.1484 206.591 91.5591C206.023 89.9698 204.321 87.5878 204.321 87.5878C204.321 87.5878 202.62 83.6165 199.782 81.1185C196.943 78.6205 192.292 76.1263 191.159 75.5579C190.026 74.9895 188.548 74.6492 186.395 73.1759C184.237 71.7026 170.85 62.395 166.65 59.9009C162.451 57.4029 153.375 56.1577 151.558 55.8174C149.74 55.4772 128.863 54 121.601 54C114.339 54 99.3625 54.3403 91.0796 57.5189L91.0835 57.5227Z" fill="#FF5100"/>
<path opacity="0.15" d="M208.068 101.893C208.297 99.3951 207.388 97.6937 207.388 97.6937C207.388 97.6937 207.314 96.2398 207.148 94.693C192.949 98.8808 167.547 99.1631 160.463 98.5406C152.323 97.8213 137.884 95.8531 137.246 93.5136C136.605 91.1741 131.025 85.8533 127.193 84.4187C123.91 83.189 85.8091 77.9107 74.9895 76.4297C74.657 78.5139 74.858 80.5634 74.858 80.5634C74.858 80.5634 72.7003 85.8958 72.5882 89.8671C72.476 93.8384 72.9285 96.7889 72.9285 96.7889C72.9285 96.7889 72.36 89.5268 74.0615 87.257C75.7629 84.9871 79.2818 86.6885 80.6429 90.7758C82.0041 94.8631 83.5933 102.462 83.5933 102.462L119.563 109.836C119.563 109.836 117.75 100.304 120.132 94.8593C122.514 89.4147 133.635 89.755 135.676 99.6233C137.718 109.495 137.038 111.309 137.038 111.309C137.038 111.309 144.64 112.898 167.787 112.558C190.934 112.218 203.641 109.495 207.048 108.587C207.048 108.587 207.84 104.387 208.068 101.893Z" fill="black"/>
<path d="M115.932 61.1554C111.369 57.8801 107.409 57.3813 105.58 57.2344C103.821 60.3936 100.944 66.3718 100.364 72.5705C110.016 74.0747 120.816 75.7916 120.816 75.7916C120.816 75.7916 123.314 76.7003 124.219 75.7916C124.219 75.7916 124.671 75.4513 124.899 74.8829C125.128 74.3144 121.156 64.8985 115.936 61.1515L115.932 61.1554Z" fill="white" stroke="#263238" stroke-miterlimit="10"/>
<path d="M102.472 57.2265C100.252 57.3541 97.1313 57.6828 94.7145 58.2087C92.1044 58.7771 91.1957 58.8893 90.7432 59.3417C90.2908 59.7941 85.8632 65.3547 84.2739 69.326C84.2739 69.326 84.5021 70.3469 85.5229 70.3469C85.8942 70.3469 90.6582 71.0661 96.5745 71.9826C97.5644 68.4598 99.552 62.2573 102.472 57.2227V57.2265Z" fill="white" stroke="#263238" stroke-miterlimit="10"/>
<path d="M88.0557 70.5236C88.0557 70.5236 89.9698 63.0721 93.8947 58.6406" stroke="#263238" stroke-miterlimit="10"/>
<path d="M100.464 77.9237L97.2356 77.3398C97.2356 77.3398 96.4467 77.5912 96.6865 78.38C96.9262 79.1689 97.3516 79.0838 97.3516 79.0838L100.039 79.5169C100.039 79.5169 100.677 79.5865 100.816 78.9485C100.952 78.3104 101.133 78.2292 100.464 77.9237Z" stroke="#263238" stroke-miterlimit="10"/>
<path d="M84.1464 75.1124L81.6832 74.6406C81.6832 74.6406 81.0799 74.8456 81.2617 75.4875C81.4434 76.1294 81.7721 76.0598 81.7721 76.0598L83.8254 76.4117C83.8254 76.4117 84.3126 76.4658 84.4171 75.9515C84.5215 75.4372 84.6607 75.3676 84.1502 75.1163L84.1464 75.1124Z" stroke="#263238" stroke-miterlimit="10"/>
<path d="M103.887 56.875C103.887 56.875 99.2852 65.4324 98.4771 72.5359" stroke="#263238" stroke-miterlimit="10"/>
<path d="M97.4289 73.9883C97.4289 73.9883 95.3292 77.542 95.248 78.7523C95.1668 79.9626 95.4104 94.4944 95.8126 97.1587" stroke="#263238" stroke-miterlimit="10"/>
<path d="M120.275 66.0781C120.275 66.0781 118.658 70.7609 118.175 73.2628" stroke="#263238" stroke-miterlimit="10"/>
<path d="M119.629 79.0742C119.629 79.0742 117.854 84.9674 117.773 89.4065C117.692 93.8457 117.61 102.16 117.61 102.16" stroke="#263238" stroke-miterlimit="10"/>
<path d="M84.0303 70.918C84.0303 70.918 80.2369 74.3904 79.9121 75.5196C79.5873 76.6487 79.9933 86.3353 79.9933 86.3353" stroke="#263238" stroke-miterlimit="10"/>
<path d="M84.7534 97.3164C84.7534 97.3164 85.318 98.9328 86.5283 99.3349C87.7387 99.7371 117.123 105.39 117.123 105.39" stroke="#263238" stroke-miterlimit="10"/>
<path d="M169.879 102.442C169.879 102.442 192.381 102.751 200.741 100.172C200.741 100.172 199.913 105.744 198.367 106.881C196.82 108.018 185.563 109.178 180.095 109.36C173.901 109.565 170.393 108.946 170.393 108.946L169.879 102.442Z" fill="#263238" stroke="#263238" stroke-miterlimit="10"/>
<path d="M165.854 88.3989L168.123 93.043C168.123 93.043 180.818 93.3524 182.265 93.4568C183.711 93.5612 185.258 94.2843 186.909 93.4568C188.56 92.6293 195.683 91.7012 196.51 91.7012C197.338 91.7012 198.366 92.4243 198.366 92.4243C198.366 92.4243 196.51 87.7802 195.787 87.3665C195.064 86.9527 194.341 87.0571 194.032 87.0571C193.722 87.0571 178.653 85.9202 165.854 88.3989Z" fill="#263238" stroke="#263238" stroke-miterlimit="10"/>
<path d="M141.925 79.1291C141.925 79.1291 136.527 78.2977 134.451 79.0247C132.374 79.7516 133.414 82.5551 136.941 85.1498C140.467 87.7445 143.375 90.2348 147.01 90.6524C150.645 91.0661 156.871 92.4157 157.184 91.275C157.497 90.1342 156.353 85.9812 152.2 82.9689C148.047 79.9566 141.921 79.1291 141.921 79.1291H141.925Z" fill="white" stroke="#263238" stroke-miterlimit="10"/>
<path d="M185.319 73.2097L184.283 73.5229C184.283 73.5229 182.357 73.5809 179.276 73.666C176.634 73.7433 173.147 73.84 169.291 73.9405C163.97 74.0836 157.954 74.2305 152.521 74.3465C144.214 74.5205 137.262 74.6095 136.218 74.4548C134.424 74.1919 132.417 73.5422 130.553 71.9104C129.505 70.9978 128.499 69.772 127.602 68.1247C125.108 63.554 118.778 57.9509 118.778 57.9509C128.743 56.8063 152.517 57.224 155.216 57.3284C155.889 57.3516 156.751 57.456 157.71 57.63C160.591 58.1404 164.349 59.2734 166.53 60.7544C166.917 61.0174 167.54 61.4311 168.321 61.9532C170.146 63.1712 172.853 64.9655 175.571 66.7674C177.211 67.8502 178.854 68.9368 180.312 69.9035C183.173 71.7905 185.319 73.2097 185.319 73.2097Z" fill="white" stroke="#263238" stroke-miterlimit="10"/>
<path d="M166.53 60.7573C166.917 61.0202 167.54 61.434 168.321 61.956L152.521 74.3494C144.214 74.5234 137.262 74.6123 136.218 74.4576C134.423 74.1947 132.417 73.5451 130.553 71.9132L157.71 57.6328C160.591 58.1432 164.349 59.2762 166.53 60.7573Z" fill="#263238" stroke="#263238" stroke-miterlimit="10"/>
<path d="M180.312 69.9056L179.276 73.6681C176.634 73.7454 173.147 73.8421 169.291 73.9426L175.571 66.7695C177.211 67.8523 178.854 68.9389 180.312 69.9056Z" fill="#263238" stroke="#263238" stroke-miterlimit="10"/>
<path d="M162.942 85.293C163.576 85.9349 164.187 86.6116 164.763 87.3269" stroke="#263238" stroke-miterlimit="10"/>
<path d="M147.637 76.1172C147.637 76.1172 155.494 78.4296 161.851 84.2454" stroke="#263238" stroke-miterlimit="10"/>
<path d="M197.96 87.1484C198.745 88.6256 199.372 90.2768 199.747 92.1058" stroke="#263238" stroke-miterlimit="10"/>
<path d="M185.942 76.5352C185.942 76.5352 192.903 79.2304 197.075 85.6494" stroke="#263238" stroke-miterlimit="10"/>
<path d="M153.862 104.458C153.862 105.661 152.702 106.639 151.268 106.639C149.833 106.639 148.673 105.665 148.673 104.458C148.673 103.252 149.833 102.277 151.268 102.277C152.702 102.277 153.862 103.252 153.862 104.458Z" fill="white" stroke="#263238" stroke-miterlimit="10"/>
<path d="M207.612 100.916C207.392 101.953 206.692 102.684 206.046 102.548C205.4 102.413 205.056 101.462 205.277 100.421C205.497 99.3851 206.197 98.6542 206.843 98.7896C207.488 98.9249 207.833 99.8762 207.612 100.916Z" fill="white" stroke="#263238" stroke-miterlimit="10"/>
<path d="M118.43 74.6551C118.43 74.6551 116.272 71.0241 114.911 70.796C113.55 70.5678 107.761 70.3435 106.516 71.1363C105.267 71.929 105.608 74.5391 106.064 75.2197C106.516 75.9003 108.334 76.2406 109.923 76.1284C111.512 76.0163 116.845 76.4687 116.845 76.4687C116.845 76.4687 120.023 78.7386 121.156 78.5104C122.289 78.2823 123.766 75.7881 122.746 74.427C121.725 73.0658 120.135 73.4061 118.434 74.6551H118.43Z" fill="#263238" stroke="#263238" stroke-miterlimit="10"/>
<path d="M118.43 74.6562L122.173 75.4528" stroke="#263238" stroke-miterlimit="10"/>
<path d="M91.0835 57.5227C91.0835 57.5227 88.3612 58.3154 88.0209 59.112C87.6806 59.9086 87.4525 60.4732 87.4525 60.4732L79.2817 72.3871C79.2817 72.3871 76.3313 72.1589 75.4226 74.6569C74.5138 77.1549 74.8541 80.5578 74.8541 80.5578C74.8541 80.5578 72.6964 85.8902 72.5843 89.8615C72.4721 93.8328 72.9246 96.7832 72.9246 96.7832C72.9246 96.7832 72.3561 89.5212 74.0576 87.2514C75.759 84.9815 79.2779 86.6829 80.639 90.7702C82.0001 94.8537 83.5894 102.456 83.5894 102.456L119.559 109.83C119.559 109.83 117.746 100.298 120.128 94.8537C122.51 89.4091 133.631 89.7494 135.673 99.6177C137.714 109.49 137.034 111.303 137.034 111.303C137.034 111.303 144.636 112.893 167.783 112.552C190.93 112.212 203.637 109.49 207.044 108.581C207.044 108.581 207.836 104.382 208.065 101.888C208.293 99.3895 207.384 97.6881 207.384 97.6881C207.384 97.6881 207.156 93.1484 206.591 91.5591C206.023 89.9698 204.321 87.5878 204.321 87.5878C204.321 87.5878 202.62 83.6165 199.782 81.1185C196.943 78.6205 192.292 76.1263 191.159 75.5579C190.026 74.9895 188.548 74.6492 186.395 73.1759C184.237 71.7026 170.85 62.395 166.65 59.9009C162.451 57.4029 153.375 56.1577 151.558 55.8174C149.74 55.4772 128.863 54 121.601 54C114.339 54 99.3625 54.3403 91.0796 57.5189L91.0835 57.5227Z" stroke="#263238" stroke-miterlimit="10"/>
<path d="M195.698 78.1953C195.698 78.1953 193.413 79.0267 194.035 79.8581C194.658 80.6895 198.084 82.8704 199.642 85.5695C201.201 88.2686 201.51 89.6181 202.237 89.6181C202.964 89.6181 204.534 88.2724 204.321 87.5957C204.105 86.919 202.964 80.7939 195.698 78.1992V78.1953Z" fill="white" stroke="#263238" stroke-miterlimit="10"/>
<path d="M81.4742 98.9953C81.451 97.8778 81.335 96.8183 81.1494 95.8516L79.6143 97.7231C79.68 98.1214 79.7225 98.5468 79.7341 98.9915C79.7341 99.0572 79.7341 99.1191 79.7341 99.1809L81.4781 99.7339C81.4781 99.4903 81.4781 99.2467 81.4781 98.9992L81.4742 98.9953Z" fill="#263238" stroke="#263238" stroke-miterlimit="10"/>
<path d="M78.7559 95.5656C78.9144 95.7357 79.0613 95.9678 79.189 96.25L80.2717 93.0135C79.8966 92.213 79.4519 91.6098 78.9685 91.2656L78.7559 95.5617V95.5656Z" fill="#263238" stroke="#263238" stroke-miterlimit="10"/>
<path d="M79.5137 101.098C79.4364 101.403 79.3397 101.674 79.2275 101.906L80.1169 105.769C80.5423 105.077 80.8903 104.129 81.1262 103.008L79.5137 101.098Z" fill="#263238" stroke="#263238" stroke-miterlimit="10"/>
<path d="M76.8997 96.9784L75.3336 94.8594C75.1054 95.8996 74.9701 97.0944 74.9585 98.3705L76.7063 98.4672C76.7257 97.9258 76.7914 97.4193 76.8958 96.9784H76.8997Z" fill="#263238" stroke="#263238" stroke-miterlimit="10"/>
<path d="M77.4332 95.6907C77.5608 95.5167 77.7 95.3891 77.8509 95.3156L77.5956 91.0195C77.0427 91.209 76.54 91.7504 76.1262 92.547L77.4332 95.6869V95.6907Z" fill="#263238" stroke="#263238" stroke-miterlimit="10"/>
<path d="M78.4658 102.698C78.4117 102.713 78.3576 102.721 78.2996 102.721C78.141 102.721 77.9863 102.659 77.8394 102.543L76.981 106.244C77.414 106.742 77.8935 107.021 78.3924 107.025C78.5277 107.025 78.6631 107.001 78.7945 106.963L78.4697 102.698H78.4658Z" fill="#263238" stroke="#263238" stroke-miterlimit="10"/>
<path d="M76.8881 100.582L75.1558 101.336C75.3336 102.566 75.6275 103.672 75.9987 104.573L77.1085 101.382C77.0196 101.139 76.9461 100.868 76.8843 100.582H76.8881Z" fill="#263238" stroke="#263238" stroke-miterlimit="10"/>
<path d="M183.966 23.0561L176.719 26.8457L167.466 28.1836C167.466 28.1836 164.566 30.9717 168.58 36.0992C172.593 41.2267 175.606 42.901 176.944 42.901C178.282 42.901 184.302 40.782 185.308 40.113C186.313 39.444 193.56 34.0922 193.56 34.0922C193.56 34.0922 196.905 36.3234 201.924 32.6422C206.943 28.9609 220.098 18.0331 220.098 18.0331C220.098 18.0331 221.993 16.8073 220.767 14.3518C219.541 11.9002 216.084 9.4447 213.629 8.55145C211.177 7.6582 207.941 8.77573 207.051 9.22042C206.162 9.66511 186.758 18.6982 186.758 18.6982C186.758 18.6982 183.301 19.924 183.97 23.0484L183.966 23.0561Z" fill="white" stroke="#263238" stroke-miterlimit="10"/>
<path d="M200.717 31.0078C200.69 31.7116 200.493 32.3148 200.164 32.8136" stroke="#263238" stroke-miterlimit="10"/>
<path d="M187.667 18.9648C187.667 18.9648 193.243 19.1505 197.04 23.5587C198.869 25.6816 199.928 27.4913 200.408 28.9956" stroke="#263238" stroke-miterlimit="10"/>
<path d="M184.848 22.5793L187.786 21.5391C187.786 21.5391 191.831 21.7827 194.465 24.358C197.098 26.9295 197.222 29.9921 196.974 30.9743L194.217 33.364" stroke="#263238" stroke-miterlimit="10"/>
<path d="M178.603 27.2969C178.603 27.2969 183.517 30.4407 185.157 31.8907C186.34 32.9387 186.197 36.7282 186.197 36.7282" stroke="#263238" stroke-miterlimit="10"/>
<path d="M167.574 29.4637C167.3 29.7111 167.133 30.0592 167.126 30.4265C167.106 31.2386 167.219 32.7815 168.1 34.5757C169.403 37.2245 175.169 41.4317 176.05 41.7681C176.932 42.1045 177.524 41.5593 177.775 40.1711C178.026 38.7829 176.75 34.974 175.501 33.8178C174.945 33.2996 171.016 30.5425 169.218 29.3438C168.707 29.0035 168.031 29.0499 167.57 29.4598L167.574 29.4637Z" fill="#263238" stroke="#263238" stroke-miterlimit="10"/>
<path d="M177.075 34.3624L184.708 32.6339L195.396 26.3231C195.396 26.3231 196.181 25.6503 194.464 24.3587C192.748 23.0672 192.036 22.7617 192.036 22.7617L181.348 29.0725L183.892 30.801L175.242 32.7344C175.242 32.7344 176.669 33.8558 177.075 34.3624Z" fill="#263238"/>
<path d="M220.763 14.3577C220.059 12.9463 218.613 11.5387 217.051 10.4251C216.769 10.3787 216.506 10.3748 216.266 10.4405C215.554 10.6455 194.689 21.3297 194.689 21.3297C197.639 23.2631 199.982 27.8454 199.982 27.8454C199.982 27.8454 220.338 14.1063 220.767 14.3577H220.763Z" fill="#263238"/>
<path d="M146.96 34.3297C145.486 33.7612 145.146 31.7195 145.146 31.7195C145.146 31.7195 145.711 28.2045 147.752 26.7312C149.794 25.2579 151.38 25.1458 152.288 25.1458C152.706 25.1458 153.332 25.691 153.893 26.2865C154.253 24.3763 154.222 22.4003 153.924 20.1807C149.253 20.3315 145.444 18.0849 137.664 17.7755C131.202 17.5242 125.12 20.0106 122.486 21.2712C122.409 21.8938 122.374 22.5241 122.374 23.1621C122.374 24.2758 122.49 25.3662 122.707 26.418C123.128 26.1628 123.6 25.9076 124.06 25.7142C125.421 25.1497 128.708 26.9632 129.16 27.3035C129.613 27.64 130.858 30.2501 130.858 30.2501C130.858 30.2501 129.613 32.6321 127.687 33.0845C127.018 33.2431 126.442 33.2779 125.978 33.2547C127.212 34.7589 128.72 36.035 130.421 36.9978C130.525 36.8702 130.634 36.7349 130.746 36.5957C131.767 35.3505 133.468 33.3088 133.468 33.3088C133.468 33.3088 140.046 33.6491 140.951 33.6491C141.855 33.6491 142.648 34.8981 142.988 36.4835C143.147 37.2221 143.305 37.806 143.429 38.2275C143.429 38.2275 146.43 37.3226 149.16 34.7666C148.503 34.7202 147.675 34.6042 146.956 34.3297H146.96Z" fill="#263238" stroke="#263238" stroke-miterlimit="10"/>
<path d="M138.286 3.03906C127.173 3.03906 118.163 12.0489 118.163 23.1623C118.163 34.2758 127.173 43.2856 138.286 43.2856C149.4 43.2856 158.41 34.2758 158.41 23.1623C158.41 12.0489 149.4 3.03906 138.286 3.03906ZM149.176 34.7707C147.548 36.302 145.591 37.493 143.429 38.2277C141.817 38.7807 140.084 39.0785 138.286 39.0785C135.425 39.0785 132.741 38.3244 130.421 36.9981C128.72 36.0313 127.212 34.7591 125.978 33.2549C124.381 31.306 123.236 28.9743 122.703 26.4183C122.486 25.3665 122.37 24.2799 122.37 23.1623C122.37 22.5243 122.405 21.894 122.482 21.2714C123.418 13.3753 130.131 7.24624 138.286 7.24624C146.442 7.24624 152.528 12.8184 153.92 20.181C154.106 21.1477 154.199 22.1415 154.199 23.1623C154.199 24.2335 154.09 25.2814 153.889 26.2907C153.228 29.6046 151.538 32.5473 149.172 34.7707H149.176Z" fill="#FF5100"/>
<path d="M151.72 23.901C151.72 23.901 152.091 22.2034 151.128 20.0109C147.532 19.4966 143.855 18.0233 137.664 17.7758C132.834 17.5863 128.221 18.9281 125.096 20.1423C124.702 20.5677 124.199 21.1709 123.948 21.7432C123.495 22.7641 124.06 24.3495 124.06 24.3495L136.871 24.5777L151.724 23.8971L151.72 23.901Z" fill="white" stroke="#263238" stroke-miterlimit="10"/>
<path d="M130.974 19.2538C130.974 19.2538 129.613 19.7062 129.841 22.881C130.069 26.0557 131.995 29.911 133.356 30.8158C134.717 31.7245 139.477 32.177 140.951 31.1561C142.424 30.1352 144.354 22.765 144.125 21.0674C143.897 19.366 142.992 19.1417 141.859 18.9135C140.727 18.6854 136.303 18.1208 131.995 18.8014C131.995 18.8014 131.655 18.8014 130.974 19.2538Z" fill="#CFCFCF" stroke="#263238" stroke-miterlimit="10"/>
<path d="M150.135 21.6295C150.135 22.4416 149.295 23.1028 148.263 23.1028C147.23 23.1028 146.391 22.4416 146.391 21.6295C146.391 20.8175 147.23 20.1562 148.263 20.1562C149.295 20.1562 150.135 20.8175 150.135 21.6295Z" fill="white" stroke="#263238" stroke-miterlimit="10"/>
<path d="M128.576 21.5006C128.685 22.3087 127.942 23.0705 126.918 23.2097C125.893 23.3451 124.976 22.8037 124.868 21.9955C124.76 21.1873 125.502 20.4256 126.527 20.2864C127.552 20.151 128.468 20.6924 128.576 21.5006Z" fill="white" stroke="#263238" stroke-miterlimit="10"/>
<path d="M85.086 3.32422H77.186V4.88644C69.6649 7.99155 64.3711 15.3966 64.3711 24.0353C64.3711 32.6739 69.6649 40.079 77.186 43.1841V44.7463H85.086C96.5243 44.7463 105.801 35.4735 105.801 24.0314C105.801 12.5893 96.5243 3.32422 85.086 3.32422Z" fill="#263238" stroke="#263238" stroke-miterlimit="10"/>
<path d="M77.1859 44.7541C88.6264 44.7541 97.9008 35.4797 97.9008 24.0391C97.9008 12.5986 88.6264 3.32422 77.1859 3.32422C65.7453 3.32422 56.4709 12.5986 56.4709 24.0391C56.4709 35.4797 65.7453 44.7541 77.1859 44.7541Z" fill="#878787" stroke="#263238" stroke-miterlimit="10"/>
<path d="M77.1859 41.9173C87.0589 41.9173 95.0626 33.9137 95.0626 24.0407C95.0626 14.1677 87.0589 6.16406 77.1859 6.16406C67.313 6.16406 59.3093 14.1677 59.3093 24.0407C59.3093 33.9137 67.313 41.9173 77.1859 41.9173Z" fill="#FF5100"/>
<path d="M82.6111 9.06114L80.9019 17.1081C80.8401 17.4059 80.9599 17.7114 81.2113 17.8854C81.3389 17.9743 81.4858 18.0169 81.6366 18.0169C81.7874 18.0169 81.9383 17.9705 82.0697 17.8815L88.8136 13.1562C87.116 11.3426 84.997 9.92732 82.615 9.06114H82.6111ZM92.2783 18.941L84.9196 22.6223C84.6451 22.7577 84.4827 23.0477 84.5059 23.3493C84.5291 23.6625 84.7417 23.9255 85.0395 24.0144L92.9434 26.3461C93.0556 25.596 93.1097 24.8226 93.1097 24.0415C93.1097 22.2588 92.8197 20.5458 92.2783 18.9488V18.941ZM83.1138 29.1999C82.8354 29.0723 82.5106 29.1226 82.2863 29.3314C82.1316 29.4783 82.0465 29.6794 82.0465 29.8843C82.0465 29.981 82.0659 30.0738 82.1007 30.1666L85.2058 37.796C87.3751 36.5315 89.2157 34.7643 90.5769 32.6608L83.1138 29.2038V29.1999ZM76.8456 31.8912C76.776 31.5935 76.5323 31.3731 76.2269 31.3267C76.1882 31.3228 76.1495 31.3189 76.1147 31.3189C75.8479 31.3189 75.5966 31.462 75.4651 31.7018L71.4358 38.8903C73.2184 39.5825 75.1596 39.9614 77.1897 39.9614C77.7311 39.9614 78.2686 39.9344 78.7983 39.8802L76.8456 31.8912ZM70.8906 27.831C70.7552 27.5951 70.5077 27.4559 70.2409 27.4559C70.2022 27.4559 70.1597 27.4598 70.121 27.4675L61.989 28.7977C62.7508 31.2223 64.0732 33.3993 65.8056 35.1704L70.8364 28.6663C71.022 28.4265 71.0452 28.094 70.8906 27.831ZM70.1017 20.6463L63.992 15.1206C62.6154 17.1545 61.6951 19.5211 61.3857 22.0771L69.6106 21.9533C69.9161 21.9495 70.1868 21.76 70.2951 21.4777C70.3299 21.3888 70.3492 21.296 70.3492 21.2032C70.3492 20.9944 70.2603 20.7933 70.1017 20.6463ZM68.8643 10.4571L74.0885 16.8104C74.2354 16.9883 74.4481 17.0849 74.6685 17.0849C74.742 17.0849 74.8154 17.0733 74.8889 17.0501C75.1867 16.9612 75.3955 16.6944 75.4187 16.3812L75.9252 8.16016C73.3499 8.36123 70.9486 9.17328 68.8643 10.4571Z" fill="#263238" stroke="#263238" stroke-miterlimit="10"/>
<path d="M77.1859 26.6691C78.6381 26.6691 79.8154 25.4919 79.8154 24.0396C79.8154 22.5874 78.6381 21.4102 77.1859 21.4102C75.7337 21.4102 74.5564 22.5874 74.5564 24.0396C74.5564 25.4919 75.7337 26.6691 77.1859 26.6691Z" fill="#FF5100"/>
<path d="M73.6283 24.4881C73.6283 23.6297 72.9323 22.9375 72.0777 22.9375C71.2231 22.9375 70.5271 23.6335 70.5271 24.4881C70.5271 25.3427 71.2231 26.0387 72.0777 26.0387C72.9323 26.0387 73.6283 25.3427 73.6283 24.4881Z" fill="#263238" stroke="#263238" stroke-miterlimit="10"/>
<path d="M76.7101 19.6795C76.7101 18.8211 76.0141 18.1289 75.1595 18.1289C74.3049 18.1289 73.6089 18.8249 73.6089 19.6795C73.6089 20.5341 74.3049 21.2302 75.1595 21.2302C76.0141 21.2302 76.7101 20.5341 76.7101 19.6795Z" fill="#263238" stroke="#263238" stroke-miterlimit="10"/>
<path d="M82.82 20.8084C82.82 19.95 82.124 19.2578 81.2694 19.2578C80.4148 19.2578 79.7188 19.9539 79.7188 20.8084C79.7188 21.663 80.4148 22.3591 81.2694 22.3591C82.124 22.3591 82.82 21.663 82.82 20.8084Z" fill="#263238" stroke="#263238" stroke-miterlimit="10"/>
<path d="M83.0441 26.5194C83.0441 25.6609 82.3481 24.9688 81.4935 24.9688C80.6389 24.9688 79.9429 25.6648 79.9429 26.5194C79.9429 27.374 80.6389 28.07 81.4935 28.07C82.3481 28.07 83.0441 27.374 83.0441 26.5194Z" fill="#263238" stroke="#263238" stroke-miterlimit="10"/>
<path d="M77.8625 28.7733C77.8625 27.9148 77.1664 27.2227 76.3119 27.2227C75.4573 27.2227 74.7612 27.9187 74.7612 28.7733C74.7612 29.6279 75.4573 30.3239 76.3119 30.3239C77.1664 30.3239 77.8625 29.6279 77.8625 28.7733Z" fill="#263238" stroke="#263238" stroke-miterlimit="10"/>
</g>
<defs>
<clipPath id="clip0_1678_32943">
<rect width="172.657" height="170" fill="white" transform="translate(49)"/>
</clipPath>
</defs>
</svg>
