<svg width="24" height="25" viewBox="0 0 24 25" fill="none" xmlns="http://www.w3.org/2000/svg">
<path d="M13.028 2.50123C13.7578 2.49843 14.4875 2.50576 15.217 2.52323L15.411 2.53023C15.635 2.53823 15.856 2.54823 16.123 2.56023C17.187 2.61023 17.913 2.77823 18.55 3.02523C19.21 3.27923 19.766 3.62323 20.322 4.17923C20.8304 4.67884 21.2239 5.28318 21.475 5.95023C21.722 6.58723 21.89 7.31423 21.94 8.37823C21.952 8.64423 21.962 8.86623 21.97 9.09023L21.976 9.28423C21.9938 10.0134 22.0015 10.7428 21.999 11.4722L22 12.2182V13.5282C22.0025 14.258 21.9948 14.9877 21.977 15.7172L21.971 15.9112C21.963 16.1352 21.953 16.3562 21.941 16.6232C21.891 17.6872 21.721 18.4132 21.475 19.0502C21.2247 19.718 20.8311 20.3228 20.322 20.8222C19.822 21.3306 19.2173 21.724 18.55 21.9752C17.913 22.2222 17.187 22.3902 16.123 22.4402C15.856 22.4522 15.635 22.4622 15.411 22.4702L15.217 22.4762C14.4875 22.494 13.7578 22.5017 13.028 22.4992L12.282 22.5002H10.973C10.2433 22.5027 9.51355 22.495 8.78403 22.4772L8.59003 22.4712C8.35264 22.4626 8.1153 22.4526 7.87803 22.4412C6.81403 22.3912 6.08803 22.2212 5.45003 21.9752C4.78271 21.7246 4.17827 21.3311 3.67903 20.8222C3.17007 20.3225 2.77625 19.7178 2.52503 19.0502C2.27803 18.4132 2.11003 17.6872 2.06003 16.6232C2.04889 16.3859 2.03889 16.1486 2.03003 15.9112L2.02503 15.7172C2.00659 14.9877 1.99826 14.258 2.00003 13.5282V11.4722C1.99724 10.7428 2.00457 10.0134 2.02203 9.28423L2.02903 9.09023C2.03703 8.86623 2.04703 8.64423 2.05903 8.37823C2.10903 7.31323 2.27703 6.58823 2.52403 5.95023C2.7754 5.28285 3.16999 4.67868 3.68003 4.18023C4.17892 3.67098 4.78299 3.2768 5.45003 3.02523C6.08803 2.77823 6.81303 2.61023 7.87803 2.56023L8.59003 2.53023L8.78403 2.52523C9.51321 2.5068 10.2426 2.49847 10.972 2.50023L13.028 2.50123ZM12 7.50123C11.3375 7.49186 10.6798 7.61425 10.065 7.8613C9.45022 8.10834 8.89067 8.47511 8.41887 8.94029C7.94707 9.40546 7.57243 9.95977 7.31671 10.571C7.061 11.1822 6.92932 11.8382 6.92932 12.5007C6.92932 13.1633 7.061 13.8192 7.31671 14.4305C7.57243 15.0417 7.94707 15.596 8.41887 16.0612C8.89067 16.5264 9.45022 16.8931 10.065 17.1402C10.6798 17.3872 11.3375 17.5096 12 17.5002C13.3261 17.5002 14.5979 16.9734 15.5356 16.0358C16.4732 15.0981 17 13.8263 17 12.5002C17 11.1741 16.4732 9.90238 15.5356 8.9647C14.5979 8.02701 13.3261 7.50123 12 7.50123ZM12 9.50123C12.3985 9.49389 12.7945 9.56603 13.1648 9.71344C13.5351 9.86085 13.8724 10.0806 14.1568 10.3598C14.4412 10.639 14.6672 10.9721 14.8215 11.3396C14.9757 11.7071 15.0552 12.1016 15.0553 12.5002C15.0554 12.8988 14.976 13.2934 14.8219 13.6609C14.6677 14.0285 14.4419 14.3617 14.1575 14.641C13.8732 14.9203 13.536 15.1401 13.1658 15.2876C12.7955 15.4352 12.3995 15.5074 12.001 15.5002C11.2054 15.5002 10.4423 15.1842 9.87971 14.6216C9.3171 14.0589 9.00103 13.2959 9.00103 12.5002C9.00103 11.7046 9.3171 10.9415 9.87971 10.3789C10.4423 9.8163 11.2054 9.50023 12.001 9.50023L12 9.50123ZM17.25 6.00123C16.9274 6.01414 16.6223 6.15138 16.3986 6.3842C16.1749 6.61702 16.05 6.92736 16.05 7.25023C16.05 7.5731 16.1749 7.88344 16.3986 8.11626C16.6223 8.34908 16.9274 8.48632 17.25 8.49923C17.5815 8.49923 17.8995 8.36753 18.1339 8.13311C18.3683 7.89869 18.5 7.58075 18.5 7.24923C18.5 6.91771 18.3683 6.59977 18.1339 6.36535C17.8995 6.13093 17.5815 5.99923 17.25 5.99923V6.00123Z" fill="#FF5100"/>
</svg>
